{
.appVersion = "3192";
.formatVersion = 3;
classes = (
{
automatic = 1;
code = "A Aacute Abreve Abreveacute Abrevedotbelow Abrevegrave Abrevehookabove Abrevetilde Acircumflex Acircumflexacute Acircumflexdotbelow Acircumflexgrave Acircumflexhookabove Acircumflextilde Adieresis Adotbelow Agrave Ahookabove Amacron Aogonek Aring Atilde AE B C Cacute Ccaron Ccedilla Ccircumflex Cdotaccent D Dcaron Dcroat Ddotbelow Dmacronbelow Eth E Eacute Ebreve Ecaron Ecircumflex Ecircumflexacute Ecircumflexdotbelow Ecircumflexgrave Ecircumflexhookabove Ecircumflextilde Edieresis Edotaccent Edotbelow Egrave Ehookabove Emacron Eogonek Etilde F G Gbreve Gcircumflex Gcommaaccent Gdotaccent Gmacron H Hbar Hbrevebelow Hcircumflex Hdotbelow I IJ Iacute_J.loclNLD Iacute Ibreve Icircumflex Idieresis Idotaccent Idotbelow Igrave Ihookabove Imacron Iogonek Itilde J Jcircumflex K Kcommaaccent L Lacute Lcaron Lcommaaccent Ldot Ldotbelow Ldotbelowmacron Lmacronbelow Lslash M Mdotbelow N Nacute Ncaron Ncommaaccent Ndotaccent Ndotbelow Nmacronbelow Ntilde Eng O Oacute Obreve Ocircumflex Ocircumflexacute Ocircumflexdotbelow Ocircumflexgrave Ocircumflexhookabove Ocircumflextilde Odieresis Odotbelow Ograve Ohookabove Ohorn Ohornacute Ohorndotbelow Ohorngrave Ohornhookabove Ohorntilde Ohungarumlaut Omacron Oslash Otilde OE P Thorn Q R Racute Rcaron Rcommaaccent Rdotbelow Rdotbelowmacron Rmacronbelow S Sacute Scaron Scedilla Scircumflex Scommaaccent Sdotaccent Sdotbelow Germandbls T Tbar Tcaron Tcedilla Tcommaaccent Tdotbelow Tmacronbelow U Uacute Ubreve Ucircumflex Udieresis Udotbelow Ugrave Uhookabove Uhorn Uhornacute Uhorndotbelow Uhorngrave Uhornhookabove Uhorntilde Uhungarumlaut Umacron Uogonek Uring Utilde V W Wacute Wcircumflex Wdieresis Wgrave X Y Yacute Ycircumflex Ydieresis Ydotaccent Ydotbelow Ygrave Yhookabove Ytilde Z Zacute Zcaron Zdotaccent Zdotbelow Delta Omega";
name = Uppercase;
}
);
customParameters = (
{
disabled = 1;
name = glyphOrder;
value = (
.notdef,
NULL,
CR,
space,
exclam,

glyphs = (
{
glyphname = A;
kernLeft = A_2nd;
kernRight = A1_1st;
lastChange = "2023-05-05 07:38:30 +0000";
layers = (
{
anchors = (
{
name = bottom;
pos = (355,0);
},
{
name = ogonek;
pos = (678,9);
},
{
name = top;
pos = (361,636);
}
);
background = {
shapes = (
{
closed = 1;
nodes = (
(40,0,l),
(227,0,l),
(265,126,l),
(445,126,l),
(483,0,l),
(666,0,l),
(463,637,l),
(260,637,l)
);
},
{
closed = 1;
nodes = (
(303,266,l),
(360,449,l),
(364,449,l),
(417,266,l)
);
}
);
};
hints = (
{
horizontal = 1;
place = (126,140);
type = Stem;
},
{
horizontal = 1;
place = (637,-20);
target = down;
type = TopGhost;
},
{
horizontal = 1;
place = (0,21);
target = up;
type = BottomGhost;
}
);
layerId = "49A649E9-A574-4B20-B218-33A3EC71A7EA";
shapes = (
{
closed = 1;
nodes = (
(227,0,l),
(265,126,l),
(445,126,l),
(483,0,l),
(666,0,l),
(463,637,l),
(260,637,l),
(40,0,l)
);
},
{
closed = 1;
nodes = (
(360,449,l),
(364,449,l),
(417,266,l),
(303,266,l)
);
}
);
width = 706;
}
);
unicode = 65;
},
{
glyphname = Aacute;
kernLeft = A_2nd;
kernRight = A1_1st;
lastChange = "2023-05-04 08:14:42 +0000";
layers = (
{
background = {
shapes = (
{
closed = 1;
nodes = (
(594,797,l),
(523,920,l),
(283,770,l),
(343,670,l)
);
},
{
closed = 1;
nodes = (
(40,0,l),
(227,0,l),
(265,126,l),
(445,126,l),
(483,0,l),
(666,0,l),
(463,637,l),
(260,637,l)
);
},
{
closed = 1;
nodes = (
(303,266,l),
(360,449,l),
(364,449,l),
(417,266,l)
);
}
);
};
hints = (
{
horizontal = 1;
place = (126,140);
type = Stem;
},
{
horizontal = 1;
place = (637,-20);
target = down;
type = TopGhost;
},
{
horizontal = 1;
place = (0,21);
target = up;
type = BottomGhost;
}
);
layerId = "49A649E9-A574-4B20-B218-33A3EC71A7EA";
shapes = (
{
ref = A;
},
{
pos = (190,140);
ref = acutecomb;
}
);
width = 706;
}
);
unicode = 193;
},
{
glyphname = Abreve;
kernLeft = A;
kernRight = A1;
lastChange = "2023-05-04 08:45:31 +0000";
layers = (
{
background = {
shapes = (
{
closed = 1;
nodes = (
(156,804,l),
(184,727,o),
(259,680,o),
(357,680,cs),
(455,680,o),
(530,727,o),
(558,804,c),
(463,861,l),
(446,821,o),
(404,800,o),
(357,800,cs),
(310,800,o),
(268,821,o),
(251,861,c)
);
},
{
closed = 1;
nodes = (
(40,0,l),
(227,0,l),
(265,126,l),
(445,126,l),
(483,0,l),
(666,0,l),
(463,637,l),
(260,637,l)
);
},
{
closed = 1;
nodes = (
(303,266,l),
(360,449,l),
(364,449,l),
(417,266,l)
);
}
);
};
hints = (
{
horizontal = 1;
place = (680,120);
type = Stem;
},
{
horizontal = 1;
place = (126,140);
type = Stem;
},
{
horizontal = 1;
place = (637,-20);
target = down;
type = TopGhost;
},
{
horizontal = 1;
place = (0,21);
target = up;
type = BottomGhost;
}
);
layerId = "49A649E9-A574-4B20-B218-33A3EC71A7EA";
shapes = (
{
ref = A;
},
{
pos = (150,17);
ref = brevecomb;
}
);
width = 706;
}
);
unicode = 258;
},
{
glyphname = Abreveacute;
kernLeft = A_2nd;
kernRight = A1_1st;
lastChange = "2023-05-04 08:44:22 +0000";
layers = (
{
background = {
shapes = (
{
closed = 1;
nodes = (
(272,903,l),
(363,832,l),
(507,983,l),
(392,1073,l)
);
},
{
closed = 1;
nodes = (
(161,790,l),
(189,713,o),
(264,666,o),
(362,666,cs),
(460,666,o),
(535,713,o),
(563,790,c),
(468,847,l),
(451,807,o),
(409,786,o),
(362,786,cs),
(315,786,o),
(273,807,o),
(256,847,c)
);
},
{
closed = 1;
nodes = (
(40,0,l),
(227,0,l),
(265,126,l),
(445,126,l),
(483,0,l),
(666,0,l),
(463,637,l),
(260,637,l)
);
},
{
closed = 1;
nodes = (
(303,266,l),
(360,449,l),
(364,449,l),
(417,266,l)
);
}
);
};
hints = (
{
horizontal = 1;
place = (666,120);
type = Stem;
},
{
horizontal = 1;
place = (126,140);
type = Stem;
},
{
horizontal = 1;
place = (637,-20);
target = down;
type = TopGhost;
},
{
horizontal = 1;
place = (0,21);
target = up;
type = BottomGhost;
}
);
layerId = "49A649E9-A574-4B20-B218-33A3EC71A7EA";
shapes = (
{
ref = A;
},
{
pos = (139,2);
ref = brevecomb_acutecomb;
}
);
width = 706;
}
);
unicode = 7854;
},
{
glyphname = Abrevedotbelow;
kernLeft = uni1EA0_2nd;
kernRight = uni1EA01_1st;
lastChange = "2023-05-05 07:38:07 +0000";
layers = (
{
background = {
shapes = (
{
closed = 1;
nodes = (
(161,790,l),
(189,713,o),
(264,666,o),
(362,666,cs),
(460,666,o),
(535,713,o),
(563,790,c),
(468,847,l),
(451,807,o),
(409,786,o),
(362,786,cs),
(315,786,o),
(273,807,o),
(256,847,c)
);
},
{
closed = 1;
nodes = (
(40,0,l),
(227,0,l),
(265,126,l),
(445,126,l),
(483,0,l),
(666,0,l),
(463,637,l),
(260,637,l)
);
},
{
closed = 1;
nodes = (
(303,266,l),
(360,449,l),
(364,449,l),
(417,266,l)
);
},
{
closed = 1;
nodes = (
(414,-237,o),
(451,-197,o),
(451,-148,cs),
(451,-99,o),
(414,-60,o),
(360,-60,cs),
(306,-60,o),
(269,-99,o),
(269,-148,cs),
(269,-197,o),
(306,-237,o),
(360,-237,cs)
);
}
);
};
hints = (
{
place = (269,182);
type = Stem;
},
{
horizontal = 1;
place = (-237,177);
type = Stem;
},
{
horizontal = 1;
place = (666,120);
type = Stem;
},
{
horizontal = 1;
place = (126,140);
type = Stem;
},
{
horizontal = 1;
place = (637,-20);
target = down;
type = TopGhost;
},
{
horizontal = 1;
place = (0,21);
target = up;
type = BottomGhost;
}
);
layerId = "49A649E9-A574-4B20-B218-33A3EC71A7EA";
shapes = (
{
ref = A;
},
{
pos = (246,0);
ref = dotbelowcomb;
},
{
pos = (150,17);
ref = brevecomb;
}
);
width = 706;
}
);
unicode = 7862;
},
{
glyphname = Abrevegrave;
kernLeft = A_2nd;
kernRight = A1_1st;
lastChange = "2023-05-04 08:45:23 +0000";
layers = (
{
background = {
shapes = (
{
closed = 1;
nodes = (
(361,832,l),
(452,903,l),
(332,1073,l),
(217,983,l)
);
},
{
closed = 1;
nodes = (
(161,790,l),
(189,713,o),
(264,666,o),
(362,666,cs),
(460,666,o),
(535,713,o),
(563,790,c),
(468,847,l),
(451,807,o),
(409,786,o),
(362,786,cs),
(315,786,o),
(273,807,o),
(256,847,c)
);
},
{
closed = 1;
nodes = (
(40,0,l),
(227,0,l),
(265,126,l),
(445,126,l),
(483,0,l),
(666,0,l),
(463,637,l),
(260,637,l)
);
},
{
closed = 1;
nodes = (
(303,266,l),
(360,449,l),
(364,449,l),
(417,266,l)
);
}
);
};
hints = (
{
horizontal = 1;
place = (666,120);
type = Stem;
},
{
horizontal = 1;
place = (126,140);
type = Stem;
},
{
horizontal = 1;
place = (637,-20);
target = down;
type = TopGhost;
},
{
horizontal = 1;
place = (0,21);
target = up;
type = BottomGhost;
}
);
layerId = "49A649E9-A574-4B20-B218-33A3EC71A7EA";
shapes = (
{
ref = A;
},
{
pos = (129,0);
ref = brevecomb_gravecomb;
}
);
width = 706;
}
);
unicode = 7856;
},
{
glyphname = Abrevehookabove;
kernLeft = A_2nd;
kernRight = A1_1st;
lastChange = "2023-05-04 08:45:43 +0000";
layers = (
{
background = {
shapes = (
{
closed = 1;
nodes = (
(319,852,l),
(403,852,l),
(403,867,ls),
(403,880,o),
(412,891,o),
(430,905,cs),
(453,923,ls),
(479,943,o),
(502,965,o),
(502,998,cs),
(502,1045,o),
(456,1083,o),
(388,1083,cs),
(340,1083,o),
(300,1064,o),
(277,1044,c),
(307,982,l),
(327,996,o),
(348,1004,o),
(371,1004,cs),
(394,1004,o),
(403,996,o),
(403,986,cs),
(403,978,o),
(398,971,o),
(385,961,cs),
(362,943,ls),
(330,918,o),
(319,900,o),
(319,870,cs)
);
},
{
closed = 1;
nodes = (
(161,790,l),
(189,713,o),
(264,666,o),
(362,666,cs),
(460,666,o),
(535,713,o),
(563,790,c),
(468,847,l),
(451,807,o),
(409,786,o),
(362,786,cs),
(315,786,o),
(273,807,o),
(256,847,c)
);
},
{
closed = 1;
nodes = (
(40,0,l),
(227,0,l),
(265,126,l),
(445,126,l),
(483,0,l),
(666,0,l),
(463,637,l),
(260,637,l)
);
},
{
closed = 1;
nodes = (
(303,266,l),
(360,449,l),
(364,449,l),
(417,266,l)
);
}
);
};
hints = (
{
horizontal = 1;
place = (1004,79);
type = Stem;
},
{
horizontal = 1;
place = (666,120);
type = Stem;
},
{
horizontal = 1;
place = (126,140);
type = Stem;
},
{
horizontal = 1;
place = (637,-20);
target = down;
type = TopGhost;
},
{
horizontal = 1;
place = (0,21);
target = up;
type = BottomGhost;
}
);
layerId = "49A649E9-A574-4B20-B218-33A3EC71A7EA";
shapes = (
{
ref = A;
},
{
pos = (150,17);
ref = brevecomb;
},
{
pos = (256,333);
ref = hookabovecomb;
}
);
width = 706;
}
);
unicode = 7858;
},
{
glyphname = Abrevetilde;
kernLeft = A_2nd;
kernRight = A1_1st;
lastChange = "2023-05-04 08:46:14 +0000";
layers = (
{
background = {
shapes = (
{
closed = 1;
nodes = (
(489,1043,l),
(474,1018,o),
(448,999,o),
(409,999,cs),
(384,999,o),
(359,1006,o),
(342,1011,cs),
(312,1020,o),
(290,1028,o),
(261,1028,cs),
(190,1028,o),
(143,982,o),
(125,923,c),
(208,867,l),
(223,892,o),
(249,911,o),
(288,911,cs),
(311,911,o),
(332,905,o),
(352,898,cs),
(395,884,o),
(414,882,o),
(429,882,cs),
(506,882,o),
(554,928,o),
(572,987,c)
);
},
{
closed = 1;
nodes = (
(161,790,l),
(189,713,o),
(264,666,o),
(362,666,cs),
(460,666,o),
(535,713,o),
(563,790,c),
(468,847,l),
(451,807,o),
(409,786,o),
(362,786,cs),
(315,786,o),
(273,807,o),
(256,847,c)
);
},
{
closed = 1;
nodes = (
(40,0,l),
(227,0,l),
(265,126,l),
(445,126,l),
(483,0,l),
(666,0,l),
(463,637,l),
(260,637,l)
);
},
{
closed = 1;
nodes = (
(303,266,l),
(360,449,l),
(364,449,l),
(417,266,l)
);
}
);
};
hints = (
{
horizontal = 1;
place = (126,140);
type = Stem;
},
{
horizontal = 1;
place = (666,120);
type = Stem;
},
{
horizontal = 1;
place = (882,117);
type = Stem;
},
{
horizontal = 1;
place = (911,117);
type = Stem;
},
{
horizontal = 1;
place = (637,-20);
target = down;
type = TopGhost;
},
{
horizontal = 1;
place = (0,21);
target = up;
type = BottomGhost;
}
);
layerId = "49A649E9-A574-4B20-B218-33A3EC71A7EA";
shapes = (
{
ref = A;
},
{
pos = (130,0);
ref = brevecomb_tildecomb;
}
);
width = 706;
}
);
unicode = 7860;
},
{
glyphname = Acircumflex;
kernLeft = A_2nd;
kernRight = A1_1st;
lastChange = "2023-05-04 08:46:23 +0000";
layers = (
{
background = {
shapes = (
{
closed = 1;
nodes = (
(229,668,l),
(360,786,l),
(490,669,l),
(585,765,l),
(424,891,l),
(294,891,l),
(133,765,l)
);
},
{
closed = 1;
nodes = (
(40,0,l),
(227,0,l),
(265,126,l),
(445,126,l),
(483,0,l),
(666,0,l),
(463,637,l),
(260,637,l)
);
},
{
closed = 1;
nodes = (
(303,266,l),
(360,449,l),
(364,449,l),
(417,266,l)
);
}
);
};
hints = (
{
horizontal = 1;
place = (126,140);
type = Stem;
},
{
horizontal = 1;
place = (637,-20);
target = down;
type = TopGhost;
},
{
horizontal = 1;
place = (0,21);
target = up;
type = BottomGhost;
},
{
horizontal = 1;
place = (891,-20);
target = down;
type = TopGhost;
}
);
layerId = "49A649E9-A574-4B20-B218-33A3EC71A7EA";
shapes = (
{
ref = A;
},
{
pos = (115,35);
ref = circumflexcomb;
}
);
width = 706;
}
);
unicode = 194;
},
{
glyphname = Acircumflexacute;
kernLeft = A_2nd;
kernRight = uni1EA4_1st;
lastChange = "2023-05-04 08:47:00 +0000";
layers = (
{
background = {
shapes = (
{
closed = 1;
nodes = (
(487,872,l),
(578,801,l),
(722,952,l),
(607,1042,l)
);
},
{
closed = 1;
nodes = (
(229,653,l),
(360,771,l),
(490,654,l),
(585,750,l),
(424,876,l),
(294,876,l),
(133,750,l)
);
},
{
closed = 1;
nodes = (
(40,0,l),
(227,0,l),
(265,126,l),
(445,126,l),
(483,0,l),
(666,0,l),
(463,637,l),
(260,637,l)
);
},
{
closed = 1;
nodes = (
(303,266,l),
(360,449,l),
(364,449,l),
(417,266,l)
);
}
);
};
hints = (
{
horizontal = 1;
place = (126,140);
type = Stem;
},
{
horizontal = 1;
place = (637,-20);
target = down;
type = TopGhost;
},
{
horizontal = 1;
place = (0,21);
target = up;
type = BottomGhost;
}
);
layerId = "49A649E9-A574-4B20-B218-33A3EC71A7EA";
shapes = (
{
ref = A;
},
{
pos = (74,0);
ref = circumflexcomb_acutecomb;
}
);
width = 706;
}
);
unicode = 7844;
},
{
glyphname = Acircumflexdotbelow;
kernLeft = uni1EA0_2nd;
kernRight = uni1EA01_1st;
lastChange = "2023-05-05 07:38:07 +0000";
layers = (
{
background = {
shapes = (
{
closed = 1;
nodes = (
(229,653,l),
(360,771,l),
(490,654,l),
(585,750,l),
(424,876,l),
(294,876,l),
(133,750,l)
);
},
{
closed = 1;
nodes = (
(40,0,l),
(227,0,l),
(265,126,l),
(445,126,l),
(483,0,l),
(666,0,l),
(463,637,l),
(260,637,l)
);
},
{
closed = 1;
nodes = (
(303,266,l),
(360,449,l),
(364,449,l),
(417,266,l)
);
},
{
closed = 1;
nodes = (
(414,-237,o),
(451,-197,o),
(451,-148,cs),
(451,-99,o),
(414,-60,o),
(360,-60,cs),
(306,-60,o),
(269,-99,o),
(269,-148,cs),
(269,-197,o),
(306,-237,o),
(360,-237,cs)
);
}
);
};
hints = (
{
place = (269,182);
type = Stem;
},
{
horizontal = 1;
place = (-237,177);
type = Stem;
},
{
horizontal = 1;
place = (126,140);
type = Stem;
},
{
horizontal = 1;
place = (637,-20);
target = down;
type = TopGhost;
},
{
horizontal = 1;
place = (0,21);
target = up;
type = BottomGhost;
},
{
horizontal = 1;
place = (876,-20);
target = down;
type = TopGhost;
}
);
layerId = "49A649E9-A574-4B20-B218-33A3EC71A7EA";
shapes = (
{
ref = A;
},
{
pos = (246,0);
ref = dotbelowcomb;
},
{
pos = (115,35);
ref = circumflexcomb;
}
);
width = 706;
}
);
unicode = 7852;
},
{
glyphname = Acircumflexgrave;
kernLeft = A_2nd;
kernRight = uni1EA4_1st;
lastChange = "2023-05-04 08:47:34 +0000";
layers = (
{
background = {
shapes = (
{
closed = 1;
nodes = (
(443,908,l),
(608,779,l),
(689,863,l),
(551,1020,l)
);
},
{
closed = 1;
nodes = (
(229,653,l),
(360,771,l),
(490,654,l),
(585,750,l),
(424,876,l),
(294,876,l),
(133,750,l)
);
},
{
closed = 1;
nodes = (
(40,0,l),
(227,0,l),
(265,126,l),
(445,126,l),
(483,0,l),
(666,0,l),
(463,637,l),
(260,637,l)
);
},
{
closed = 1;
nodes = (
(303,266,l),
(360,449,l),
(364,449,l),
(417,266,l)
);
}
);
};
hints = (
{
horizontal = 1;
place = (126,140);
type = Stem;
},
{
horizontal = 1;
place = (637,-20);
target = down;
type = TopGhost;
},
{
horizontal = 1;
place = (0,21);
target = up;
type = BottomGhost;
}
);
layerId = "49A649E9-A574-4B20-B218-33A3EC71A7EA";
shapes = (
{
ref = A;
},
{
pos = (130,1);
ref = circumflexcomb_gravecomb;
}
);
width = 706;
}
);
unicode = 7846;
},
{
glyphname = Acircumflexhookabove;
kernLeft = A_2nd;
kernRight = uni1EA4_1st;
lastChange = "2023-05-04 08:47:50 +0000";
layers = (
{
background = {
shapes = (
{
closed = 1;
nodes = (
(516,836,l),
(600,836,l),
(600,851,ls),
(600,864,o),
(609,875,o),
(627,889,cs),
(650,907,ls),
(676,927,o),
(699,949,o),
(699,982,cs),
(699,1029,o),
(653,1067,o),
(585,1067,cs),
(537,1067,o),
(497,1048,o),
(474,1028,c),
(504,966,l),
(524,980,o),
(545,988,o),
(568,988,cs),
(591,988,o),
(600,980,o),
(600,970,cs),
(600,962,o),
(595,955,o),
(582,945,cs),
(559,927,ls),
(527,902,o),
(516,884,o),
(516,854,cs)
);
},
{
closed = 1;
nodes = (
(229,653,l),
(360,771,l),
(490,654,l),
(585,750,l),
(424,876,l),
(294,876,l),
(133,750,l)
);
},
{
closed = 1;
nodes = (
(40,0,l),
(227,0,l),
(265,126,l),
(445,126,l),
(483,0,l),
(666,0,l),
(463,637,l),
(260,637,l)
);
},
{
closed = 1;
nodes = (
(303,266,l),
(360,449,l),
(364,449,l),
(417,266,l)
);
}
);
};
hints = (
{
horizontal = 1;
place = (126,140);
type = Stem;
},
{
horizontal = 1;
place = (836,231);
type = Stem;
},
{
horizontal = 1;
place = (988,79);
type = Stem;
},
{
horizontal = 1;
place = (637,-20);
target = down;
type = TopGhost;
},
{
horizontal = 1;
place = (0,21);
target = up;
type = BottomGhost;
}
);
layerId = "49A649E9-A574-4B20-B218-33A3EC71A7EA";
shapes = (
{
ref = A;
},
{
pos = (115,35);
ref = circumflexcomb_hookabovecomb;
}
);
width = 706;
}
);
unicode = 7848;
},
{
glyphname = Acircumflextilde;
kernLeft = A_2nd;
kernRight = A1_1st;
lastChange = "2023-05-04 08:48:48 +0000";
layers = (
{
background = {
shapes = (
{
closed = 1;
nodes = (
(489,1077,l),
(474,1052,o),
(448,1033,o),
(409,1033,cs),
(384,1033,o),
(359,1040,o),
(342,1045,cs),
(312,1054,o),
(290,1062,o),
(261,1062,cs),
(190,1062,o),
(143,1016,o),
(125,957,c),
(208,901,l),
(223,926,o),
(249,945,o),
(288,945,cs),
(311,945,o),
(332,939,o),
(352,932,cs),
(395,918,o),
(414,916,o),
(429,916,cs),
(506,916,o),
(554,962,o),
(572,1021,c)
);
},
{
closed = 1;
nodes = (
(229,653,l),
(360,771,l),
(490,654,l),
(585,750,l),
(424,876,l),
(294,876,l),
(133,750,l)
);
},
{
closed = 1;
nodes = (
(40,0,l),
(227,0,l),
(265,126,l),
(445,126,l),
(483,0,l),
(666,0,l),
(463,637,l),
(260,637,l)
);
},
{
closed = 1;
nodes = (
(303,266,l),
(360,449,l),
(364,449,l),
(417,266,l)
);
}
);
};
hints = (
{
horizontal = 1;
place = (126,140);
type = Stem;
},
{
horizontal = 1;
place = (916,117);
type = Stem;
},
{
horizontal = 1;
place = (945,117);
type = Stem;
},
{
horizontal = 1;
place = (637,-20);
target = down;
type = TopGhost;
},
{
horizontal = 1;
place = (0,21);
target = up;
type = BottomGhost;
}
);
layerId = "49A649E9-A574-4B20-B218-33A3EC71A7EA";
shapes = (
{
ref = A;
},
{
pos = (100,0);
ref = circumflexcomb_tildecomb;
}
);
width = 706;
}
);
unicode = 7850;
},
{
glyphname = Adieresis;
kernLeft = A_2nd;
kernRight = A1_1st;
lastChange = "2023-05-04 08:22:07 +0000";
layers = (
{
background = {
shapes = (
{
closed = 1;
nodes = (
(318,700,o),
(354,738,o),
(354,787,cs),
(354,836,o),
(318,874,o),
(264,874,cs),
(210,874,o),
(174,836,o),
(174,787,cs),
(174,738,o),
(210,700,o),
(264,700,cs)
);
},
{
closed = 1;
nodes = (
(539,700,o),
(575,738,o),
(575,787,cs),
(575,836,o),
(539,874,o),
(485,874,cs),
(431,874,o),
(395,836,o),
(395,787,cs),
(395,738,o),
(431,700,o),
(485,700,cs)
);
},
{
closed = 1;
nodes = (
(40,0,l),
(227,0,l),
(265,126,l),
(445,126,l),
(483,0,l),
(666,0,l),
(463,637,l),
(260,637,l)
);
},
{
closed = 1;
nodes = (
(303,266,l),
(360,449,l),
(364,449,l),
(417,266,l)
);
}
);
};
hints = (
{
place = (174,180);
type = Stem;
},
{
place = (395,180);
type = Stem;
},
{
horizontal = 1;
place = (126,140);
type = Stem;
},
{
horizontal = 1;
place = (700,174);
type = Stem;
},
{
horizontal = 1;
place = (637,-20);
target = down;
type = TopGhost;
},
{
horizontal = 1;
place = (0,21);
target = up;
type = BottomGhost;
}
);
layerId = "49A649E9-A574-4B20-B218-33A3EC71A7EA";
shapes = (
{
ref = A;
},
{
pos = (140,140);
ref = dieresiscomb;
}
);
width = 706;
}
);
unicode = 196;
},
{
glyphname = Adotbelow;
kernLeft = uni1EA0_2nd;
kernRight = uni1EA01_1st;
lastChange = "2023-05-05 07:38:07 +0000";
layers = (
{
background = {
shapes = (
{
closed = 1;
nodes = (
(40,0,l),
(227,0,l),
(265,126,l),
(445,126,l),
(483,0,l),
(666,0,l),
(463,637,l),
(260,637,l)
);
},
{
closed = 1;
nodes = (
(303,266,l),
(360,449,l),
(364,449,l),
(417,266,l)
);
},
{
closed = 1;
nodes = (
(414,-237,o),
(451,-197,o),
(451,-148,cs),
(451,-99,o),
(414,-60,o),
(360,-60,cs),
(306,-60,o),
(269,-99,o),
(269,-148,cs),
(269,-197,o),
(306,-237,o),
(360,-237,cs)
);
}
);
};
hints = (
{
place = (269,182);
type = Stem;
},
{
horizontal = 1;
place = (-237,177);
type = Stem;
},
{
horizontal = 1;
place = (126,140);
type = Stem;
},
{
horizontal = 1;
place = (637,-20);
target = down;
type = TopGhost;
},
{
horizontal = 1;
place = (0,21);
target = up;
type = BottomGhost;
}
);
layerId = "49A649E9-A574-4B20-B218-33A3EC71A7EA";
shapes = (
{
ref = A;
},
{
pos = (246,0);
ref = dotbelowcomb;
}
);
width = 706;
}
);
unicode = 7840;
},
{
glyphname = Agrave;
kernLeft = A_2nd;
kernRight = A1_1st;
lastChange = "2023-05-04 08:28:41 +0000";
layers = (
{
background = {
shapes = (
{
closed = 1;
nodes = (
(133,797,l),
(384,670,l),
(444,770,l),
(204,920,l)
);
},
{
closed = 1;
nodes = (
(40,0,l),
(227,0,l),
(265,126,l),
(445,126,l),
(483,0,l),
(666,0,l),
(463,637,l),
(260,637,l)
);
},
{
closed = 1;
nodes = (
(303,266,l),
(360,449,l),
(364,449,l),
(417,266,l)
);
}
);
};
hints = (
{
horizontal = 1;
place = (126,140);
type = Stem;
},
{
horizontal = 1;
place = (637,-20);
target = down;
type = TopGhost;
},
{
horizontal = 1;
place = (0,21);
target = up;
type = BottomGhost;
}
);
layerId = "49A649E9-A574-4B20-B218-33A3EC71A7EA";
shapes = (
{
ref = A;
},
{
pos = (189,135);
ref = gravecomb;
}
);
width = 706;
}
);
unicode = 192;
},
{
glyphname = Ahookabove;
kernLeft = A_2nd;
kernRight = A1_1st;
lastChange = "2023-05-04 08:41:32 +0000";
layers = (
{
background = {
shapes = (
{
closed = 1;
nodes = (
(319,676,l),
(403,676,l),
(403,691,ls),
(403,704,o),
(412,715,o),
(430,729,cs),
(453,747,ls),
(479,767,o),
(502,789,o),
(502,822,cs),
(502,869,o),
(456,907,o),
(388,907,cs),
(340,907,o),
(300,888,o),
(277,868,c),
(307,806,l),
(327,820,o),
(348,828,o),
(371,828,cs),
(394,828,o),
(403,820,o),
(403,810,cs),
(403,802,o),
(398,795,o),
(385,785,cs),
(362,767,ls),
(330,742,o),
(319,724,o),
(319,694,cs)
);
},
{
closed = 1;
nodes = (
(40,0,l),
(227,0,l),
(265,126,l),
(445,126,l),
(483,0,l),
(666,0,l),
(463,637,l),
(260,637,l)
);
},
{
closed = 1;
nodes = (
(303,266,l),
(360,449,l),
(364,449,l),
(417,266,l)
);
}
);
};
hints = (
{
horizontal = 1;
place = (828,79);
type = Stem;
},
{
horizontal = 1;
place = (126,140);
type = Stem;
},
{
horizontal = 1;
place = (637,-20);
target = down;
type = TopGhost;
},
{
horizontal = 1;
place = (0,21);
target = up;
type = BottomGhost;
}
);
layerId = "49A649E9-A574-4B20-B218-33A3EC71A7EA";
shapes = (
{
ref = A;
},
{
pos = (256,155);
ref = hookabovecomb;
}
);
width = 706;
}
);
unicode = 7842;
},
{
glyphname = Amacron;
kernLeft = A;
kernRight = A1;
lastChange = "2023-05-04 08:22:47 +0000";
layers = (
{
background = {
shapes = (
{
closed = 1;
nodes = (
(188,692,l),
(538,692,l),
(538,832,l),
(188,832,l)
);
},
{
closed = 1;
nodes = (
(40,0,l),
(227,0,l),
(265,126,l),
(445,126,l),
(483,0,l),
(666,0,l),
(463,637,l),
(260,637,l)
);
},
{
closed = 1;
nodes = (
(303,266,l),
(360,449,l),
(364,449,l),
(417,266,l)
);
}
);
};
hints = (
{
horizontal = 1;
place = (126,140);
type = Stem;
},
{
horizontal = 1;
place = (692,140);
type = Stem;
},
{
horizontal = 1;
place = (637,-20);
target = down;
type = TopGhost;
},
{
horizontal = 1;
place = (0,21);
target = up;
type = BottomGhost;
}
);
layerId = "49A649E9-A574-4B20-B218-33A3EC71A7EA";
shapes = (
{
ref = A;
},
{
pos = (166,20);
ref = macroncomb;
}
);
width = 706;
}
);
unicode = 256;
},
{
glyphname = Aogonek;
lastChange = "2023-05-05 07:38:30 +0000";
layers = (
{
background = {
shapes = (
{
closed = 1;
nodes = (
(40,0,l),
(227,0,l),
(265,126,l),
(445,126,l),
(473,34,l),
(443,9,o),
(423,-29,o),
(423,-74,cs),
(423,-150,o),
(478,-210,o),
(576,-210,cs),
(607,-210,o),
(638,-204,o),
(666,-187,c),
(643,-101,l),
(631,-106,o),
(620,-108,o),
(609,-108,cs),
(574,-108,o),
(553,-85,o),
(553,-54,cs),
(553,-34,o),
(561,-12,o),
(574,0,c),
(666,0,l),
(463,637,l),
(260,637,l)
);
},
{
closed = 1;
nodes = (
(303,266,l),
(360,449,l),
(364,449,l),
(417,266,l)
);
}
);
};
hints = (
{
place = (423,130);
type = Stem;
},
{
horizontal = 1;
place = (-210,102);
type = Stem;
},
{
horizontal = 1;
place = (126,140);
type = Stem;
},
{
horizontal = 1;
place = (637,-20);
target = down;
type = TopGhost;
},
{
horizontal = 1;
place = (0,21);
target = up;
type = BottomGhost;
}
);
layerId = "49A649E9-A574-4B20-B218-33A3EC71A7EA";
shapes = (
{
ref = A;
},
{
pos = (403,-5);
ref = ogonekcomb;
}
);
width = 706;
}
);
unicode = 260;
},
{
glyphname = Aring;
kernLeft = A_2nd;
kernRight = A1_1st;
lastChange = "2023-05-05 07:38:52 +0000";
layers = (
{
background = {
shapes = (
{
closed = 1;
nodes = (
(223,706,o),
(286,670,o),
(362,670,cs),
(438,670,o),
(495,706,o),
(495,788,cs),
(495,870,o),
(437,909,o),
(359,909,cs),
(282,909,o),
(223,869,o),
(223,789,cs)
);
},
{
closed = 1;
nodes = (
(337,746,o),
(316,761,o),
(316,790,cs),
(316,817,o),
(334,832,o),
(359,832,cs),
(383,832,o),
(402,819,o),
(402,789,cs),
(402,760,o),
(384,746,o),
(361,746,cs)
);
},
{
closed = 1;
nodes = (
(40,0,l),
(227,0,l),
(265,126,l),
(445,126,l),
(483,0,l),
(666,0,l),
(463,637,l),
(260,637,l)
);
},
{
closed = 1;
nodes = (
(303,266,l),
(360,449,l),
(364,449,l),
(417,266,l)
);
}
);
};
hints = (
{
place = (223,93);
type = Stem;
},
{
place = (402,93);
type = Stem;
},
{
horizontal = 1;
place = (832,77);
type = Stem;
},
{
horizontal = 1;
place = (670,76);
type = Stem;
},
{
horizontal = 1;
place = (126,140);
type = Stem;
},
{
horizontal = 1;
place = (637,-20);
target = down;
type = TopGhost;
},
{
horizontal = 1;
place = (0,21);
target = up;
type = BottomGhost;
}
);
layerId = "49A649E9-A574-4B20-B218-33A3EC71A7EA";
shapes = (
{
ref = A;
},
{
pos = (206,140);
ref = ringcomb;
}
);
width = 706;
}
);
unicode = 197;
},
{
glyphname = Atilde;
kernLeft = A_2nd;
kernRight = A1_1st;
lastChange = "2023-05-19 07:56:56 +0000";
layers = (
{
background = {
shapes = (
{
closed = 1;
nodes = (
(509,857,l),
(494,832,o),
(463,813,o),
(424,813,cs),
(400,813,o),
(371,820,o),
(347,826,cs),
(318,834,o),
(287,842,o),
(257,842,cs),
(185,842,o),
(133,796,o),
(115,737,c),
(198,681,l),
(213,706,o),
(244,725,o),
(284,725,cs),
(303,725,o),
(325,721,o),
(372,709,cs),
(393,703,o),
(421,696,o),
(449,696,cs),
(521,696,o),
(574,742,o),
(592,801,c)
);
},
{
closed = 1;
nodes = (
(40,0,l),
(227,0,l),
(265,126,l),
(445,126,l),
(483,0,l),
(666,0,l),
(463,637,l),
(260,637,l)
);
},
{
closed = 1;
nodes = (
(303,266,l),
(360,449,l),
(364,449,l),
(417,266,l)
);
}
);
};
hints = (
{
horizontal = 1;
place = (126,140);
type = Stem;
},
{
horizontal = 1;
place = (696,117);
type = Stem;
},
{
horizontal = 1;
place = (725,117);
type = Stem;
},
{
horizontal = 1;
place = (637,-20);
target = down;
type = TopGhost;
},
{
horizontal = 1;
place = (0,21);
target = up;
type = BottomGhost;
}
);
layerId = "49A649E9-A574-4B20-B218-33A3EC71A7EA";
shapes = (
{
ref = A;
},
{
pos = (102,124);
ref = tildecomb;
}
);
width = 706;
}
);
unicode = 195;
},
{
glyphname = AE;
lastChange = "2023-05-05 07:39:04 +0000";
layers = (
{
anchors = (
{
name = bottom;
pos = (462,0);
},
{
name = top;
pos = (562,636);
}
);
background = {
shapes = (
{
closed = 1;
nodes = (
(884,0,l),
(884,130,l),
(610,130,l),
(610,260,l),
(839,260,l),
(839,388,l),
(610,388,l),
(610,507,l),
(878,507,l),
(878,636,l),
(308,636,l),
(40,-1,l),
(232,-1,l),
(282,125,l),
(440,125,l),
(440,0,l)
);
},
{
closed = 1;
nodes = (
(436,509,l),
(440,509,l),
(440,266,l),
(339,266,l)
);
}
);
};
hints = (
{
place = (440,170);
type = Stem;
},
{
horizontal = 1;
place = (0,130);
type = Stem;
},
{
horizontal = 1;
place = (125,141);
type = Stem;
},
{
horizontal = 1;
place = (260,128);
type = Stem;
},
{
horizontal = 1;
place = (507,129);
type = Stem;
}
);
layerId = "49A649E9-A574-4B20-B218-33A3EC71A7EA";
shapes = (
{
closed = 1;
nodes = (
(232,-1,l),
(282,125,l),
(440,125,l),
(440,0,l),
(884,0,l),
(884,130,l),
(610,130,l),
(610,260,l),
(839,260,l),
(839,388,l),
(610,388,l),
(610,507,l),
(878,507,l),
(878,636,l),
(308,636,l),
(40,-1,l)
);
},
{
closed = 1;
nodes = (
(436,509,l),
(440,509,l),
(440,266,l),
(339,266,l)
);
}
);
width = 924;
}
);
unicode = 198;
},
{
glyphname = B;
kernLeft = B_2nd;
lastChange = "2023-05-04 08:30:25 +0000";
layers = (
{
anchors = (
{
name = bottom;
pos = (301,0);
},
{
name = center;
pos = (301,318);
},
{
name = top;
pos = (301,636);
}
);
background = {
shapes = (
{
closed = 1;
nodes = (
(50,0,l),
(304,0,ls),
(494,0,o),
(562,65,o),
(562,171,cs),
(562,258,o),
(517,310,o),
(448,328,c),
(507,348,o),
(542,405,o),
(542,469,cs),
(542,572,o),
(453,640,o),
(277,640,cs),
(200,640,o),
(112,627,o),
(50,601,c)
);
},
{
closed = 1;
nodes = (
(218,382,l),
(218,505,l),
(236,510,o),
(260,512,o),
(278,512,cs),
(349,512,o),
(370,479,o),
(370,447,cs),
(370,411,o),
(343,382,o),
(303,382,cs)
);
},
{
closed = 1;
nodes = (
(218,128,l),
(218,254,l),
(316,254,ls),
(364,254,o),
(386,228,o),
(386,192,cs),
(386,152,o),
(359,128,o),
(315,128,cs)
);
}
);
};
guides = (
{
}
);
hints = (
{
place = (50,168);
type = Stem;
},
{
place = (370,172);
type = Stem;
},
{
place = (386,176);
type = Stem;
},
{
horizontal = 1;
place = (0,128);
type = Stem;
},
{
horizontal = 1;
place = (254,128);
type = Stem;
},
{
horizontal = 1;
place = (512,128);
type = Stem;
}
);
layerId = "49A649E9-A574-4B20-B218-33A3EC71A7EA";
shapes = (
{
closed = 1;
nodes = (
(304,0,ls),
(494,0,o),
(562,65,o),
(562,171,cs),
(562,258,o),
(517,310,o),
(448,328,c),
(507,348,o),
(542,405,o),
(542,469,cs),
(542,572,o),
(453,640,o),
(277,640,cs),
(200,640,o),
(112,627,o),
(50,601,c),
(50,0,l)
);
},
{
closed = 1;
nodes = (
(218,254,l),
(316,254,ls),
(364,254,o),
(386,228,o),
(386,192,cs),
(386,152,o),
(359,128,o),
(315,128,cs),
(218,128,l)
);
},
{
closed = 1;
nodes = (
(218,505,l),
(236,510,o),
(260,512,o),
(278,512,cs),
(349,512,o),
(370,479,o),
(370,447,cs),
(370,411,o),
(343,382,o),
(303,382,cs),
(218,382,l)
);
}
);
width = 602;
}
);
unicode = 66;
},
{
glyphname = C;
kernLeft = C_2nd;
kernRight = C1_1st;
lastChange = "2023-05-05 07:39:15 +0000";
layers = (
{
anchors = (
{
name = bottom;
pos = (317,0);
},
{
name = top;
pos = (355,636);
}
);
background = {
shapes = (
{
closed = 1;
nodes = (
(541,186,l),
(504,160,o),
(451,141,o),
(394,141,cs),
(291,141,o),
(220,203,o),
(220,320,cs),
(220,427,o),
(279,495,o),
(383,495,cs),
(427,495,o),
(480,483,o),
(512,463,c),
(557,589,l),
(496,625,o),
(422,640,o),
(350,640,cs),
(144,640,o),
(40,517,o),
(40,323,cs),
(40,106,o),
(170,-4,o),
(360,-4,cs),
(475,-4,o),
(544,36,o),
(593,74,c)
);
}
);
};
hints = (
{
place = (40,180);
type = Stem;
},
{
horizontal = 1;
place = (-4,145);
type = Stem;
},
{
horizontal = 1;
place = (495,145);
type = Stem;
}
);
layerId = "49A649E9-A574-4B20-B218-33A3EC71A7EA";
shapes = (
{
closed = 1;
nodes = (
(475,-4,o),
(544,36,o),
(593,74,c),
(541,186,l),
(504,160,o),
(451,141,o),
(394,141,cs),
(291,141,o),
(220,203,o),
(220,320,cs),
(220,427,o),
(279,495,o),
(383,495,cs),
(427,495,o),
(480,483,o),
(512,463,c),
(557,589,l),
(496,625,o),
(422,640,o),
(350,640,cs),
(144,640,o),
(40,517,o),
(40,323,cs),
(40,106,o),
(170,-4,o),
(360,-4,cs)
);
}
);
width = 633;
}
);
unicode = 67;
},
{
glyphname = Cacute;
kernLeft = C;
kernRight = C1;
lastChange = "2023-05-05 07:39:15 +0000";
layers = (
{
background = {
shapes = (
{
closed = 1;
nodes = (
(472,787,l),
(401,910,l),
(161,760,l),
(221,660,l)
);
},
{
closed = 1;
nodes = (
(541,186,l),
(504,160,o),
(451,141,o),
(394,141,cs),
(291,141,o),
(220,203,o),
(220,320,cs),
(220,427,o),
(279,495,o),
(383,495,cs),
(427,495,o),
(480,483,o),
(512,463,c),
(557,589,l),
(496,625,o),
(422,640,o),
(350,640,cs),
(144,640,o),
(40,517,o),
(40,323,cs),
(40,106,o),
(170,-4,o),
(360,-4,cs),
(475,-4,o),
(544,36,o),
(593,74,c)
);
}
);
};
hints = (
{
place = (40,180);
type = Stem;
},
{
horizontal = 1;
place = (-4,145);
type = Stem;
},
{
horizontal = 1;
place = (495,145);
type = Stem;
}
);
layerId = "49A649E9-A574-4B20-B218-33A3EC71A7EA";
shapes = (
{
ref = C;
},
{
pos = (184,140);
ref = acutecomb;
}
);
width = 633;
}
);
unicode = 262;
},
{
glyphname = Ccaron;
kernLeft = C;
kernRight = C1;
lastChange = "2023-05-05 07:39:15 +0000";
layers = (
{
background = {
shapes = (
{
closed = 1;
nodes = (
(207,936,l),
(111,839,l),
(272,713,l),
(402,713,l),
(563,839,l),
(468,935,l),
(338,818,l)
);
},
{
closed = 1;
nodes = (
(541,186,l),
(504,160,o),
(451,141,o),
(394,141,cs),
(291,141,o),
(220,203,o),
(220,320,cs),
(220,427,o),
(279,495,o),
(383,495,cs),
(427,495,o),
(480,483,o),
(512,463,c),
(557,589,l),
(496,625,o),
(422,640,o),
(350,640,cs),
(144,640,o),
(40,517,o),
(40,323,cs),
(40,106,o),
(170,-4,o),
(360,-4,cs),
(475,-4,o),
(544,36,o),
(593,74,c)
);
}
);
};
hints = (
{
place = (40,180);
type = Stem;
},
{
horizontal = 1;
place = (-4,145);
type = Stem;
},
{
horizontal = 1;
place = (495,145);
type = Stem;
},
{
horizontal = 1;
place = (640,73);
type = Stem;
}
);
layerId = "49A649E9-A574-4B20-B218-33A3EC71A7EA";
shapes = (
{
ref = C;
},
{
pos = (119,112);
ref = caroncomb;
}
);
width = 633;
}
);
unicode = 268;
},
{
glyphname = Ccedilla;
kernLeft = C_2nd;
kernRight = C1_1st;
lastChange = "2023-05-04 08:30:54 +0000";
layers = (
{
background = {
shapes = (
{
closed = 1;
nodes = (
(541,186,l),
(504,160,o),
(451,141,o),
(394,141,cs),
(291,141,o),
(220,203,o),
(220,320,cs),
(220,427,o),
(279,495,o),
(383,495,cs),
(427,495,o),
(480,483,o),
(512,463,c),
(557,589,l),
(496,625,o),
(422,640,o),
(350,640,cs),
(144,640,o),
(40,517,o),
(40,323,cs),
(40,139,o),
(133,33,o),
(277,4,c),
(283,-8,o),
(287,-23,o),
(287,-36,cs),
(287,-67,o),
(268,-90,o),
(232,-90,cs),
(222,-90,o),
(209,-88,o),
(197,-83,c),
(174,-169,l),
(202,-186,o),
(233,-192,o),
(264,-192,cs),
(362,-192,o),
(417,-132,o),
(417,-56,cs),
(417,-36,o),
(414,-18,o),
(407,-2,c),
(495,7,o),
(551,41,o),
(593,74,c)
);
}
);
};
guides = (
{
pos = (0,-202);
}
);
hints = (
{
place = (40,180);
type = Stem;
},
{
place = (287,130);
type = Stem;
},
{
horizontal = 1;
place = (-192,102);
type = Stem;
},
{
horizontal = 1;
place = (495,145);
type = Stem;
}
);
layerId = "49A649E9-A574-4B20-B218-33A3EC71A7EA";
shapes = (
{
ref = C;
},
{
pos = (155,0);
ref = cedillacomb;
}
);
width = 633;
}
);
unicode = 199;
},
{
glyphname = Ccircumflex;
kernLeft = C;
kernRight = C1;
lastChange = "2023-05-05 07:39:15 +0000";
layers = (
{
background = {
shapes = (
{
closed = 1;
nodes = (
(227,673,l),
(358,791,l),
(488,674,l),
(583,770,l),
(422,896,l),
(292,896,l),
(131,770,l)
);
},
{
closed = 1;
nodes = (
(541,186,l),
(504,160,o),
(451,141,o),
(394,141,cs),
(291,141,o),
(220,203,o),
(220,320,cs),
(220,427,o),
(279,495,o),
(383,495,cs),
(427,495,o),
(480,483,o),
(512,463,c),
(557,589,l),
(496,625,o),
(422,640,o),
(350,640,cs),
(144,640,o),
(40,517,o),
(40,323,cs),
(40,106,o),
(170,-4,o),
(360,-4,cs),
(475,-4,o),
(544,36,o),
(593,74,c)
);
}
);
};
hints = (
{
place = (40,180);
type = Stem;
},
{
horizontal = 1;
place = (-4,145);
type = Stem;
},
{
horizontal = 1;
place = (495,145);
type = Stem;
},
{
horizontal = 1;
place = (896,-20);
target = down;
type = TopGhost;
}
);
layerId = "49A649E9-A574-4B20-B218-33A3EC71A7EA";
shapes = (
{
ref = C;
},
{
pos = (109,35);
ref = circumflexcomb;
}
);
width = 633;
}
);
unicode = 264;
},
{
glyphname = Cdotaccent;
kernLeft = C;
kernRight = C1;
lastChange = "2023-05-05 07:39:15 +0000";
layers = (
{
background = {
shapes = (
{
closed = 1;
nodes = (
(421,683,o),
(457,721,o),
(457,770,cs),
(457,819,o),
(421,857,o),
(367,857,cs),
(313,857,o),
(277,819,o),
(277,770,cs),
(277,721,o),
(313,683,o),
(367,683,cs)
);
},
{
closed = 1;
nodes = (
(541,186,l),
(504,160,o),
(451,141,o),
(394,141,cs),
(291,141,o),
(220,203,o),
(220,320,cs),
(220,427,o),
(279,495,o),
(383,495,cs),
(427,495,o),
(480,483,o),
(512,463,c),
(557,589,l),
(496,625,o),
(422,640,o),
(350,640,cs),
(144,640,o),
(40,517,o),
(40,323,cs),
(40,106,o),
(170,-4,o),
(360,-4,cs),
(475,-4,o),
(544,36,o),
(593,74,c)
);
}
);
};
hints = (
{
place = (40,180);
type = Stem;
},
{
place = (277,180);
type = Stem;
},
{
horizontal = 1;
place = (-4,145);
type = Stem;
},
{
horizontal = 1;
place = (495,145);
type = Stem;
},
{
horizontal = 1;
place = (683,174);
type = Stem;
}
);
layerId = "49A649E9-A574-4B20-B218-33A3EC71A7EA";
shapes = (
{
ref = C;
},
{
pos = (245,20);
ref = dotaccentcomb;
}
);
width = 633;
}
);
unicode = 266;
},
{
glyphname = D;
kernLeft = B_2nd;
kernRight = D_1st;
lastChange = "2023-05-05 07:39:23 +0000";
layers = (
{
anchors = (
{
name = bottom;
pos = (310,0);
},
{
name = center;
pos = (333,318);
},
{
name = top;
pos = (333,636);
}
);
background = {
shapes = (
{
closed = 1;
nodes = (
(50,0,l),
(290,0,ls),
(488,0,o),
(626,93,o),
(626,317,cs),
(626,527,o),
(505,640,o),
(277,640,cs),
(200,640,o),
(112,627,o),
(50,601,c)
);
},
{
closed = 1;
nodes = (
(222,130,l),
(222,495,l),
(240,500,o),
(261,502,o),
(280,502,cs),
(386,502,o),
(444,439,o),
(444,317,cs),
(444,190,o),
(382,130,o),
(281,130,cs)
);
}
);
};
hints = (
{
place = (50,172);
type = Stem;
},
{
place = (444,182);
type = Stem;
},
{
horizontal = 1;
place = (0,130);
type = Stem;
},
{
horizontal = 1;
place = (502,138);
type = Stem;
}
);
layerId = "49A649E9-A574-4B20-B218-33A3EC71A7EA";
shapes = (
{
closed = 1;
nodes = (
(290,0,ls),
(488,0,o),
(626,93,o),
(626,317,cs),
(626,527,o),
(505,640,o),
(277,640,cs),
(200,640,o),
(112,627,o),
(50,601,c),
(50,0,l)
);
},
{
closed = 1;
nodes = (
(222,495,l),
(240,500,o),
(261,502,o),
(280,502,cs),
(386,502,o),
(444,439,o),
(444,317,cs),
(444,190,o),
(382,130,o),
(281,130,cs),
(222,130,l)
);
}
);
width = 666;
}
);
unicode = 68;
},
{
glyphname = Dcaron;
kernLeft = B;
lastChange = "2023-05-04 08:28:11 +0000";
layers = (
{
background = {
shapes = (
{
closed = 1;
nodes = (
(193,916,l),
(97,819,l),
(258,693,l),
(388,693,l),
(549,819,l),
(454,915,l),
(324,798,l)
);
},
{
closed = 1;
nodes = (
(50,0,l),
(290,0,ls),
(488,0,o),
(626,93,o),
(626,317,cs),
(626,527,o),
(505,640,o),
(277,640,cs),
(200,640,o),
(112,627,o),
(50,601,c)
);
},
{
closed = 1;
nodes = (
(222,130,l),
(222,495,l),
(240,500,o),
(261,502,o),
(280,502,cs),
(386,502,o),
(444,439,o),
(444,317,cs),
(444,190,o),
(382,130,o),
(281,130,cs)
);
}
);
};
hints = (
{
place = (50,172);
type = Stem;
},
{
place = (444,182);
type = Stem;
},
{
horizontal = 1;
place = (0,130);
type = Stem;
},
{
horizontal = 1;
place = (502,138);
type = Stem;
},
{
horizontal = 1;
place = (640,53);
type = Stem;
}
);
layerId = "49A649E9-A574-4B20-B218-33A3EC71A7EA";
shapes = (
{
ref = D;
},
{
pos = (97,112);
ref = caroncomb;
}
);
width = 666;
}
);
unicode = 270;
},
{
glyphname = Dcroat;
kernLeft = Eth_2nd;
kernRight = Eth1_1st;
lastChange = "2023-05-04 08:11:29 +0000";
layers = (
{
background = {
shapes = (
{
closed = 1;
nodes = (
(30,383,l),
(30,243,l),
(120,243,l),
(120,0,l),
(360,0,ls),
(588,0,o),
(726,101,o),
(726,313,cs),
(726,535,o),
(575,640,o),
(356,640,cs),
(270,640,o),
(183,624,o),
(120,601,c),
(120,383,l)
);
},
{
closed = 1;
nodes = (
(292,383,l),
(292,495,l),
(310,500,o),
(331,502,o),
(352,502,cs),
(471,502,o),
(544,435,o),
(544,308,cs),
(544,182,o),
(472,130,o),
(361,130,cs),
(292,130,l),
(292,243,l),
(422,243,l),
(422,383,l)
);
}
);
};
hints = (
{
place = (120,172);
type = Stem;
},
{
place = (544,182);
type = Stem;
},
{
horizontal = 1;
place = (0,130);
type = Stem;
},
{
horizontal = 1;
place = (243,140);
type = Stem;
},
{
horizontal = 1;
place = (502,138);
type = Stem;
}
);
layerId = "49A649E9-A574-4B20-B218-33A3EC71A7EA";
shapes = (
{
ref = Eth;
}
);
width = 766;
}
);
unicode = 272;
},
{
glyphname = Ddotbelow;
kernLeft = uni1E0C_2nd;
lastChange = "2023-05-05 07:39:23 +0000";
layers = (
{
background = {
shapes = (
{
closed = 1;
nodes = (
(50,0,l),
(290,0,ls),
(488,0,o),
(626,93,o),
(626,317,cs),
(626,527,o),
(505,640,o),
(277,640,cs),
(200,640,o),
(112,627,o),
(50,601,c)
);
},
{
closed = 1;
nodes = (
(222,130,l),
(222,495,l),
(240,500,o),
(261,502,o),
(280,502,cs),
(386,502,o),
(444,439,o),
(444,317,cs),
(444,190,o),
(382,130,o),
(281,130,cs)
);
},
{
closed = 1;
nodes = (
(364,-237,o),
(401,-197,o),
(401,-148,cs),
(401,-99,o),
(364,-60,o),
(310,-60,cs),
(256,-60,o),
(219,-99,o),
(219,-148,cs),
(219,-197,o),
(256,-237,o),
(310,-237,cs)
);
}
);
};
hints = (
{
place = (50,172);
type = Stem;
},
{
place = (219,182);
type = Stem;
},
{
place = (444,182);
type = Stem;
},
{
horizontal = 1;
place = (-237,177);
type = Stem;
},
{
horizontal = 1;
place = (0,130);
type = Stem;
},
{
horizontal = 1;
place = (502,138);
type = Stem;
}
);
layerId = "49A649E9-A574-4B20-B218-33A3EC71A7EA";
shapes = (
{
ref = D;
},
{
pos = (201,0);
ref = dotbelowcomb;
}
);
width = 666;
}
);
unicode = 7692;
},
{
glyphname = Dmacronbelow;
kernLeft = uni1E0C_2nd;
kernRight = D_1st;
lastChange = "2023-05-05 07:39:23 +0000";
layers = (
{
background = {
shapes = (
{
closed = 1;
nodes = (
(50,0,l),
(290,0,ls),
(488,0,o),
(626,93,o),
(626,317,cs),
(626,527,o),
(505,640,o),
(277,640,cs),
(200,640,o),
(112,627,o),
(50,601,c)
);
},
{
closed = 1;
nodes = (
(222,130,l),
(222,495,l),
(240,500,o),
(261,502,o),
(280,502,cs),
(386,502,o),
(444,439,o),
(444,317,cs),
(444,190,o),
(382,130,o),
(281,130,cs)
);
},
{
closed = 1;
nodes = (
(125,-210,l),
(475,-210,l),
(475,-80,l),
(125,-80,l)
);
}
);
};
hints = (
{
place = (50,172);
type = Stem;
},
{
place = (444,182);
type = Stem;
},
{
horizontal = 1;
place = (-210,130);
type = Stem;
},
{
horizontal = 1;
place = (0,130);
type = Stem;
},
{
horizontal = 1;
place = (502,138);
type = Stem;
}
);
layerId = "49A649E9-A574-4B20-B218-33A3EC71A7EA";
shapes = (
{
ref = D;
},
{
pos = (95,0);
ref = macronbelowcomb;
}
);
width = 666;
}
);
unicode = 7694;
},
{
glyphname = Eth;
kernLeft = Eth_2nd;
kernRight = Eth1_1st;
lastChange = "2023-05-04 08:30:25 +0000";
layers = (
{
background = {
shapes = (
{
closed = 1;
nodes = (
(30,383,l),
(30,243,l),
(120,243,l),
(120,0,l),
(360,0,ls),
(588,0,o),
(726,101,o),
(726,313,cs),
(726,535,o),
(575,640,o),
(356,640,cs),
(270,640,o),
(183,624,o),
(120,601,c),
(120,383,l)
);
},
{
closed = 1;
nodes = (
(292,383,l),
(292,495,l),
(310,500,o),
(331,502,o),
(352,502,cs),
(471,502,o),
(544,435,o),
(544,308,cs),
(544,182,o),
(472,130,o),
(361,130,cs),
(292,130,l),
(292,243,l),
(422,243,l),
(422,383,l)
);
}
);
};
hints = (
{
place = (120,172);
type = Stem;
},
{
place = (544,182);
type = Stem;
},
{
horizontal = 1;
place = (0,130);
type = Stem;
},
{
horizontal = 1;
place = (243,140);
type = Stem;
},
{
horizontal = 1;
place = (502,138);
type = Stem;
}
);
layerId = "49A649E9-A574-4B20-B218-33A3EC71A7EA";
shapes = (
{
closed = 1;
nodes = (
(360,0,ls),
(588,0,o),
(726,101,o),
(726,313,cs),
(726,535,o),
(575,640,o),
(356,640,cs),
(270,640,o),
(183,624,o),
(120,601,c),
(120,383,l),
(30,383,l),
(30,243,l),
(120,243,l),
(120,0,l)
);
},
{
closed = 1;
nodes = (
(292,243,l),
(422,243,l),
(422,383,l),
(292,383,l),
(292,495,l),
(310,500,o),
(331,502,o),
(352,502,cs),
(471,502,o),
(544,435,o),
(544,308,cs),
(544,182,o),
(472,130,o),
(361,130,cs),
(292,130,l)
);
}
);
width = 766;
}
);
unicode = 208;
},
{
glyphname = E;
kernLeft = B_2nd;
kernRight = E_1st;
lastChange = "2023-05-05 07:39:37 +0000";
layers = (
{
anchors = (
{
name = bottom;
pos = (277,0);
},
{
name = ogonek;
pos = (552,10);
},
{
name = top;
pos = (277,636);
},
{
name = topleft;
pos = (20,636);
}
);
background = {
shapes = (
{
closed = 1;
nodes = (
(50,0,l),
(514,0,l),
(514,130,l),
(220,130,l),
(220,258,l),
(469,258,l),
(469,388,l),
(220,388,l),
(220,506,l),
(508,506,l),
(508,636,l),
(50,636,l)
);
}
);
};
hints = (
{
place = (50,170);
type = Stem;
},
{
horizontal = 1;
place = (0,130);
type = Stem;
},
{
horizontal = 1;
place = (258,130);
type = Stem;
},
{
horizontal = 1;
place = (506,130);
type = Stem;
}
);
layerId = "49A649E9-A574-4B20-B218-33A3EC71A7EA";
shapes = (
{
closed = 1;
nodes = (
(514,0,l),
(514,130,l),
(220,130,l),
(220,258,l),
(469,258,l),
(469,388,l),
(220,388,l),
(220,506,l),
(508,506,l),
(508,636,l),
(50,636,l),
(50,0,l)
);
}
);
width = 554;
}
);
unicode = 69;
},
{
glyphname = Eacute;
kernLeft = B_2nd;
kernRight = E_1st;
lastChange = "2023-05-04 08:12:54 +0000";
layers = (
{
background = {
shapes = (
{
closed = 1;
nodes = (
(431,797,l),
(360,920,l),
(120,770,l),
(180,670,l)
);
},
{
closed = 1;
nodes = (
(50,0,l),
(514,0,l),
(514,130,l),
(220,130,l),
(220,258,l),
(469,258,l),
(469,388,l),
(220,388,l),
(220,506,l),
(508,506,l),
(508,636,l),
(50,636,l)
);
}
);
};
hints = (
{
place = (50,170);
type = Stem;
},
{
horizontal = 1;
place = (0,130);
type = Stem;
},
{
horizontal = 1;
place = (258,130);
type = Stem;
},
{
horizontal = 1;
place = (506,130);
type = Stem;
}
);
layerId = "49A649E9-A574-4B20-B218-33A3EC71A7EA";
shapes = (
{
ref = E;
},
{
pos = (106,140);
ref = acutecomb;
}
);
width = 554;
}
);
unicode = 201;
},
{
glyphname = Ebreve;
kernLeft = B1;
kernRight = E;
lastChange = "2023-05-04 08:46:16 +0000";
layers = (
{
background = {
shapes = (
{
closed = 1;
nodes = (
(82,808,l),
(110,731,o),
(185,684,o),
(283,684,cs),
(381,684,o),
(456,731,o),
(484,808,c),
(389,865,l),
(372,825,o),
(330,804,o),
(283,804,cs),
(236,804,o),
(194,825,o),
(177,865,c)
);
},
{
closed = 1;
nodes = (
(50,0,l),
(514,0,l),
(514,130,l),
(220,130,l),
(220,258,l),
(469,258,l),
(469,388,l),
(220,388,l),
(220,506,l),
(508,506,l),
(508,636,l),
(50,636,l)
);
}
);
};
hints = (
{
place = (50,170);
type = Stem;
},
{
horizontal = 1;
place = (0,130);
type = Stem;
},
{
horizontal = 1;
place = (258,130);
type = Stem;
},
{
horizontal = 1;
place = (506,130);
type = Stem;
},
{
horizontal = 1;
place = (684,120);
type = Stem;
}
);
layerId = "49A649E9-A574-4B20-B218-33A3EC71A7EA";
shapes = (
{
ref = E;
},
{
pos = (66,17);
ref = brevecomb;
}
);
width = 554;
}
);
unicode = 276;
},
{
glyphname = Ecaron;
kernLeft = B;
kernRight = E;
lastChange = "2023-05-04 08:28:11 +0000";
layers = (
{
background = {
shapes = (
{
closed = 1;
nodes = (
(147,916,l),
(51,819,l),
(212,693,l),
(342,693,l),
(503,819,l),
(408,915,l),
(278,798,l)
);
},
{
closed = 1;
nodes = (
(50,0,l),
(514,0,l),
(514,130,l),
(220,130,l),
(220,258,l),
(469,258,l),
(469,388,l),
(220,388,l),
(220,506,l),
(508,506,l),
(508,636,l),
(50,636,l)
);
}
);
};
hints = (
{
place = (50,170);
type = Stem;
},
{
horizontal = 1;
place = (0,130);
type = Stem;
},
{
horizontal = 1;
place = (258,130);
type = Stem;
},
{
horizontal = 1;
place = (506,130);
type = Stem;
},
{
horizontal = 1;
place = (636,57);
type = Stem;
},
{
horizontal = 1;
place = (388,118);
type = Stem;
},
{
horizontal = 1;
place = (130,128);
type = Stem;
}
);
layerId = "49A649E9-A574-4B20-B218-33A3EC71A7EA";
shapes = (
{
ref = E;
},
{
pos = (41,112);
ref = caroncomb;
}
);
width = 554;
}
);
unicode = 282;
},
{
glyphname = Ecircumflex;
kernLeft = B_2nd;
kernRight = E_1st;
lastChange = "2023-05-04 08:47:02 +0000";
layers = (
{
background = {
shapes = (
{
closed = 1;
nodes = (
(152,668,l),
(283,786,l),
(413,669,l),
(508,765,l),
(347,891,l),
(217,891,l),
(56,765,l)
);
},
{
closed = 1;
nodes = (
(50,0,l),
(514,0,l),
(514,130,l),
(220,130,l),
(220,258,l),
(469,258,l),
(469,388,l),
(220,388,l),
(220,506,l),
(508,506,l),
(508,636,l),
(50,636,l)
);
}
);
};
hints = (
{
place = (50,170);
type = Stem;
},
{
horizontal = 1;
place = (0,130);
type = Stem;
},
{
horizontal = 1;
place = (258,130);
type = Stem;
},
{
horizontal = 1;
place = (506,130);
type = Stem;
},
{
horizontal = 1;
place = (891,-20);
target = down;
type = TopGhost;
}
);
layerId = "49A649E9-A574-4B20-B218-33A3EC71A7EA";
shapes = (
{
ref = E;
},
{
pos = (31,35);
ref = circumflexcomb;
}
);
width = 554;
}
);
unicode = 202;
},
{
glyphname = Ecircumflexacute;
kernLeft = B_2nd;
kernRight = uni1EBE_1st;
lastChange = "2023-05-04 08:49:37 +0000";
layers = (
{
background = {
shapes = (
{
closed = 1;
nodes = (
(408,872,l),
(499,801,l),
(643,952,l),
(528,1042,l)
);
},
{
closed = 1;
nodes = (
(151,653,l),
(282,771,l),
(412,654,l),
(507,750,l),
(346,876,l),
(216,876,l),
(55,750,l)
);
},
{
closed = 1;
nodes = (
(50,0,l),
(514,0,l),
(514,130,l),
(220,130,l),
(220,258,l),
(469,258,l),
(469,388,l),
(220,388,l),
(220,506,l),
(508,506,l),
(508,636,l),
(50,636,l)
);
}
);
};
hints = (
{
place = (50,170);
type = Stem;
},
{
horizontal = 1;
place = (0,130);
type = Stem;
},
{
horizontal = 1;
place = (258,130);
type = Stem;
},
{
horizontal = 1;
place = (506,130);
type = Stem;
}
);
layerId = "49A649E9-A574-4B20-B218-33A3EC71A7EA";
shapes = (
{
ref = E;
},
{
pos = (-10,0);
ref = circumflexcomb_acutecomb;
}
);
width = 554;
}
);
unicode = 7870;
},
{
glyphname = Ecircumflexdotbelow;
kernLeft = uni1EB8_2nd;
kernRight = uni1EB81_1st;
lastChange = "2023-05-04 08:47:02 +0000";
layers = (
{
background = {
shapes = (
{
closed = 1;
nodes = (
(151,663,l),
(282,781,l),
(412,664,l),
(507,760,l),
(346,886,l),
(216,886,l),
(55,760,l)
);
},
{
closed = 1;
nodes = (
(50,0,l),
(514,0,l),
(514,130,l),
(220,130,l),
(220,258,l),
(469,258,l),
(469,388,l),
(220,388,l),
(220,506,l),
(508,506,l),
(508,636,l),
(50,636,l)
);
},
{
closed = 1;
nodes = (
(335,-237,o),
(372,-197,o),
(372,-148,cs),
(372,-99,o),
(335,-60,o),
(281,-60,cs),
(227,-60,o),
(190,-99,o),
(190,-148,cs),
(190,-197,o),
(227,-237,o),
(281,-237,cs)
);
}
);
};
hints = (
{
place = (50,170);
type = Stem;
},
{
place = (190,182);
type = Stem;
},
{
horizontal = 1;
place = (-237,177);
type = Stem;
},
{
horizontal = 1;
place = (0,130);
type = Stem;
},
{
horizontal = 1;
place = (258,130);
type = Stem;
},
{
horizontal = 1;
place = (506,130);
type = Stem;
},
{
horizontal = 1;
place = (886,-20);
target = down;
type = TopGhost;
}
);
layerId = "49A649E9-A574-4B20-B218-33A3EC71A7EA";
shapes = (
{
ref = E;
},
{
pos = (168,0);
ref = dotbelowcomb;
},
{
pos = (31,35);
ref = circumflexcomb;
}
);
width = 554;
}
);
unicode = 7878;
},
{
glyphname = Ecircumflexgrave;
kernLeft = B_2nd;
kernRight = uni1EBE_1st;
lastChange = "2023-05-04 08:49:37 +0000";
layers = (
{
background = {
shapes = (
{
closed = 1;
nodes = (
(365,908,l),
(530,779,l),
(611,863,l),
(473,1020,l)
);
},
{
closed = 1;
nodes = (
(151,653,l),
(282,771,l),
(412,654,l),
(507,750,l),
(346,876,l),
(216,876,l),
(55,750,l)
);
},
{
closed = 1;
nodes = (
(50,0,l),
(514,0,l),
(514,130,l),
(220,130,l),
(220,258,l),
(469,258,l),
(469,388,l),
(220,388,l),
(220,506,l),
(508,506,l),
(508,636,l),
(50,636,l)
);
}
);
};
hints = (
{
place = (50,170);
type = Stem;
},
{
horizontal = 1;
place = (0,130);
type = Stem;
},
{
horizontal = 1;
place = (258,130);
type = Stem;
},
{
horizontal = 1;
place = (506,130);
type = Stem;
}
);
layerId = "49A649E9-A574-4B20-B218-33A3EC71A7EA";
shapes = (
{
ref = E;
},
{
pos = (46,1);
ref = circumflexcomb_gravecomb;
}
);
width = 554;
}
);
unicode = 7872;
},
{
glyphname = Ecircumflexhookabove;
kernLeft = B_2nd;
kernRight = uni1EBE_1st;
lastChange = "2023-05-04 08:49:37 +0000";
layers = (
{
background = {
shapes = (
{
closed = 1;
nodes = (
(438,836,l),
(522,836,l),
(522,851,ls),
(522,864,o),
(531,875,o),
(549,889,cs),
(572,907,ls),
(598,927,o),
(621,949,o),
(621,982,cs),
(621,1029,o),
(575,1067,o),
(507,1067,cs),
(459,1067,o),
(419,1048,o),
(396,1028,c),
(426,966,l),
(446,980,o),
(467,988,o),
(490,988,cs),
(513,988,o),
(522,980,o),
(522,970,cs),
(522,962,o),
(517,955,o),
(504,945,cs),
(481,927,ls),
(449,902,o),
(438,884,o),
(438,854,cs)
);
},
{
closed = 1;
nodes = (
(151,653,l),
(282,771,l),
(412,654,l),
(507,750,l),
(346,876,l),
(216,876,l),
(55,750,l)
);
},
{
closed = 1;
nodes = (
(50,0,l),
(514,0,l),
(514,130,l),
(220,130,l),
(220,258,l),
(469,258,l),
(469,388,l),
(220,388,l),
(220,506,l),
(508,506,l),
(508,636,l),
(50,636,l)
);
}
);
};
hints = (
{
place = (50,170);
type = Stem;
},
{
horizontal = 1;
place = (0,130);
type = Stem;
},
{
horizontal = 1;
place = (258,130);
type = Stem;
},
{
horizontal = 1;
place = (506,130);
type = Stem;
},
{
horizontal = 1;
place = (836,231);
type = Stem;
},
{
horizontal = 1;
place = (988,79);
type = Stem;
}
);
layerId = "49A649E9-A574-4B20-B218-33A3EC71A7EA";
shapes = (
{
ref = E;
},
{
pos = (31,35);
ref = circumflexcomb_hookabovecomb;
}
);
width = 554;
}
);
unicode = 7874;
},
{
glyphname = Ecircumflextilde;
kernLeft = B_2nd;
kernRight = E_1st;
lastChange = "2023-05-04 08:49:37 +0000";
layers = (
{
background = {
shapes = (
{
closed = 1;
nodes = (
(419,1076,l),
(404,1051,o),
(378,1032,o),
(339,1032,cs),
(314,1032,o),
(289,1039,o),
(272,1044,cs),
(242,1053,o),
(220,1061,o),
(191,1061,cs),
(120,1061,o),
(73,1015,o),
(55,956,c),
(138,900,l),
(153,925,o),
(179,944,o),
(218,944,cs),
(241,944,o),
(262,938,o),
(282,931,cs),
(325,917,o),
(344,915,o),
(359,915,cs),
(436,915,o),
(484,961,o),
(502,1020,c)
);
},
{
closed = 1;
nodes = (
(151,653,l),
(282,771,l),
(412,654,l),
(507,750,l),
(346,876,l),
(216,876,l),
(55,750,l)
);
},
{
closed = 1;
nodes = (
(50,0,l),
(514,0,l),
(514,130,l),
(220,130,l),
(220,258,l),
(469,258,l),
(469,388,l),
(220,388,l),
(220,506,l),
(508,506,l),
(508,636,l),
(50,636,l)
);
}
);
};
hints = (
{
place = (50,170);
type = Stem;
},
{
horizontal = 1;
place = (0,130);
type = Stem;
},
{
horizontal = 1;
place = (258,130);
type = Stem;
},
{
horizontal = 1;
place = (506,130);
type = Stem;
},
{
horizontal = 1;
place = (915,117);
type = Stem;
},
{
horizontal = 1;
place = (944,117);
type = Stem;
}
);
layerId = "49A649E9-A574-4B20-B218-33A3EC71A7EA";
shapes = (
{
ref = E;
},
{
pos = (16,0);
ref = circumflexcomb_tildecomb;
}
);
width = 554;
}
);
unicode = 7876;
},
{
glyphname = Edieresis;
kernLeft = B_2nd;
kernRight = E_1st;
lastChange = "2023-05-04 08:22:07 +0000";
layers = (
{
background = {
shapes = (
{
closed = 1;
nodes = (
(238,700,o),
(274,738,o),
(274,787,cs),
(274,836,o),
(238,874,o),
(184,874,cs),
(130,874,o),
(94,836,o),
(94,787,cs),
(94,738,o),
(130,700,o),
(184,700,cs)
);
},
{
closed = 1;
nodes = (
(459,700,o),
(495,738,o),
(495,787,cs),
(495,836,o),
(459,874,o),
(405,874,cs),
(351,874,o),
(315,836,o),
(315,787,cs),
(315,738,o),
(351,700,o),
(405,700,cs)
);
},
{
closed = 1;
nodes = (
(50,0,l),
(514,0,l),
(514,130,l),
(220,130,l),
(220,258,l),
(469,258,l),
(469,388,l),
(220,388,l),
(220,506,l),
(508,506,l),
(508,636,l),
(50,636,l)
);
}
);
};
hints = (
{
place = (50,170);
type = Stem;
},
{
place = (94,180);
type = Stem;
},
{
place = (315,180);
type = Stem;
},
{
horizontal = 1;
place = (0,130);
type = Stem;
},
{
horizontal = 1;
place = (258,130);
type = Stem;
},
{
horizontal = 1;
place = (506,130);
type = Stem;
},
{
horizontal = 1;
place = (700,174);
type = Stem;
}
);
layerId = "49A649E9-A574-4B20-B218-33A3EC71A7EA";
shapes = (
{
ref = E;
},
{
pos = (56,140);
ref = dieresiscomb;
}
);
width = 554;
}
);
unicode = 203;
},
{
glyphname = Edotaccent;
kernLeft = B1;
kernRight = E;
lastChange = "2023-05-04 08:22:25 +0000";
layers = (
{
background = {
shapes = (
{
closed = 1;
nodes = (
(351,693,o),
(387,731,o),
(387,780,cs),
(387,829,o),
(351,867,o),
(297,867,cs),
(243,867,o),
(207,829,o),
(207,780,cs),
(207,731,o),
(243,693,o),
(297,693,cs)
);
},
{
closed = 1;
nodes = (
(50,0,l),
(514,0,l),
(514,130,l),
(220,130,l),
(220,258,l),
(469,258,l),
(469,388,l),
(220,388,l),
(220,506,l),
(508,506,l),
(508,636,l),
(50,636,l)
);
}
);
};
hints = (
{
place = (50,170);
type = Stem;
},
{
place = (207,180);
type = Stem;
},
{
horizontal = 1;
place = (0,130);
type = Stem;
},
{
horizontal = 1;
place = (258,130);
type = Stem;
},
{
horizontal = 1;
place = (506,130);
type = Stem;
},
{
horizontal = 1;
place = (693,174);
type = Stem;
}
);
layerId = "49A649E9-A574-4B20-B218-33A3EC71A7EA";
shapes = (
{
ref = E;
},
{
pos = (167,20);
ref = dotaccentcomb;
}
);
width = 554;
}
);
unicode = 278;
},
{
glyphname = Edotbelow;
kernLeft = uni1EB8_2nd;
kernRight = uni1EB81_1st;
lastChange = "2023-05-04 08:21:50 +0000";
layers = (
{
background = {
shapes = (
{
closed = 1;
nodes = (
(50,0,l),
(514,0,l),
(514,130,l),
(220,130,l),
(220,258,l),
(469,258,l),
(469,388,l),
(220,388,l),
(220,506,l),
(508,506,l),
(508,636,l),
(50,636,l)
);
},
{
closed = 1;
nodes = (
(335,-237,o),
(372,-197,o),
(372,-148,cs),
(372,-99,o),
(335,-60,o),
(281,-60,cs),
(227,-60,o),
(190,-99,o),
(190,-148,cs),
(190,-197,o),
(227,-237,o),
(281,-237,cs)
);
}
);
};
hints = (
{
place = (50,170);
type = Stem;
},
{
place = (190,182);
type = Stem;
},
{
horizontal = 1;
place = (-237,177);
type = Stem;
},
{
horizontal = 1;
place = (0,130);
type = Stem;
},
{
horizontal = 1;
place = (258,130);
type = Stem;
},
{
horizontal = 1;
place = (506,130);
type = Stem;
}
);
layerId = "49A649E9-A574-4B20-B218-33A3EC71A7EA";
shapes = (
{
ref = E;
},
{
pos = (168,0);
ref = dotbelowcomb;
}
);
width = 554;
}
);
unicode = 7864;
},
{
glyphname = Egrave;
kernLeft = B_2nd;
kernRight = E_1st;
lastChange = "2023-05-04 08:28:41 +0000";
layers = (
{
background = {
shapes = (
{
closed = 1;
nodes = (
(132,798,l),
(383,671,l),
(443,771,l),
(203,921,l)
);
},
{
closed = 1;
nodes = (
(50,0,l),
(514,0,l),
(514,130,l),
(220,130,l),
(220,258,l),
(469,258,l),
(469,388,l),
(220,388,l),
(220,506,l),
(508,506,l),
(508,636,l),
(50,636,l)
);
}
);
};
hints = (
{
place = (50,170);
type = Stem;
},
{
horizontal = 1;
place = (0,130);
type = Stem;
},
{
horizontal = 1;
place = (258,130);
type = Stem;
},
{
horizontal = 1;
place = (506,130);
type = Stem;
}
);
layerId = "49A649E9-A574-4B20-B218-33A3EC71A7EA";
shapes = (
{
ref = E;
},
{
pos = (105,135);
ref = gravecomb;
}
);
width = 554;
}
);
unicode = 200;
},
{
glyphname = Ehookabove;
kernLeft = B_2nd;
kernRight = E_1st;
lastChange = "2023-05-04 08:41:32 +0000";
layers = (
{
background = {
shapes = (
{
closed = 1;
nodes = (
(234,676,l),
(318,676,l),
(318,691,ls),
(318,704,o),
(327,715,o),
(345,729,cs),
(368,747,ls),
(394,767,o),
(417,789,o),
(417,822,cs),
(417,869,o),
(371,907,o),
(303,907,cs),
(255,907,o),
(215,888,o),
(192,868,c),
(222,806,l),
(242,820,o),
(263,828,o),
(286,828,cs),
(309,828,o),
(318,820,o),
(318,810,cs),
(318,802,o),
(313,795,o),
(300,785,cs),
(277,767,ls),
(245,742,o),
(234,724,o),
(234,694,cs)
);
},
{
closed = 1;
nodes = (
(50,0,l),
(514,0,l),
(514,130,l),
(220,130,l),
(220,258,l),
(469,258,l),
(469,388,l),
(220,388,l),
(220,506,l),
(508,506,l),
(508,636,l),
(50,636,l)
);
}
);
};
hints = (
{
place = (50,170);
type = Stem;
},
{
horizontal = 1;
place = (0,130);
type = Stem;
},
{
horizontal = 1;
place = (258,130);
type = Stem;
},
{
horizontal = 1;
place = (506,130);
type = Stem;
},
{
horizontal = 1;
place = (676,231);
type = Stem;
},
{
horizontal = 1;
place = (828,79);
type = Stem;
}
);
layerId = "49A649E9-A574-4B20-B218-33A3EC71A7EA";
shapes = (
{
ref = E;
},
{
pos = (172,155);
ref = hookabovecomb;
}
);
width = 554;
}
);
unicode = 7866;
},
{
glyphname = Emacron;
kernLeft = B1;
kernRight = E;
lastChange = "2023-05-04 08:22:47 +0000";
layers = (
{
background = {
shapes = (
{
closed = 1;
nodes = (
(110,692,l),
(460,692,l),
(460,832,l),
(110,832,l)
);
},
{
closed = 1;
nodes = (
(50,0,l),
(514,0,l),
(514,130,l),
(220,130,l),
(220,258,l),
(469,258,l),
(469,388,l),
(220,388,l),
(220,506,l),
(508,506,l),
(508,636,l),
(50,636,l)
);
}
);
};
hints = (
{
place = (50,170);
type = Stem;
},
{
horizontal = 1;
place = (0,130);
type = Stem;
},
{
horizontal = 1;
place = (258,130);
type = Stem;
},
{
horizontal = 1;
place = (506,130);
type = Stem;
},
{
horizontal = 1;
place = (692,140);
type = Stem;
}
);
layerId = "49A649E9-A574-4B20-B218-33A3EC71A7EA";
shapes = (
{
ref = E;
},
{
pos = (82,20);
ref = macroncomb;
}
);
width = 554;
}
);
unicode = 274;
},
{
glyphname = Eogonek;
lastChange = "2023-05-05 07:39:37 +0000";
layers = (
{
background = {
shapes = (
{
closed = 1;
nodes = (
(50,0,l),
(316,0,l),
(304,-21,o),
(296,-45,o),
(296,-73,cs),
(296,-149,o),
(351,-209,o),
(449,-209,cs),
(480,-209,o),
(511,-203,o),
(539,-186,c),
(516,-100,l),
(504,-105,o),
(493,-107,o),
(482,-107,cs),
(447,-107,o),
(426,-84,o),
(426,-53,cs),
(426,-34,o),
(434,-12,o),
(446,0,c),
(514,0,l),
(514,130,l),
(220,130,l),
(220,258,l),
(469,258,l),
(469,388,l),
(220,388,l),
(220,506,l),
(508,506,l),
(508,636,l),
(50,636,l)
);
}
);
};
hints = (
{
place = (50,170);
type = Stem;
},
{
place = (296,130);
type = Stem;
},
{
horizontal = 1;
place = (-209,102);
type = Stem;
},
{
horizontal = 1;
place = (0,130);
type = Stem;
},
{
horizontal = 1;
place = (258,130);
type = Stem;
},
{
horizontal = 1;
place = (506,130);
type = Stem;
}
);
layerId = "49A649E9-A574-4B20-B218-33A3EC71A7EA";
shapes = (
{
ref = E;
},
{
pos = (277,-4);
ref = ogonekcomb;
}
);
width = 554;
}
);
unicode = 280;
},
{
glyphname = Etilde;
kernLeft = B_2nd;
kernRight = E_1st;
lastChange = "2023-05-19 07:56:56 +0000";
layers = (
{
background = {
shapes = (
{
closed = 1;
nodes = (
(438,857,l),
(423,832,o),
(392,813,o),
(353,813,cs),
(329,813,o),
(300,820,o),
(276,826,cs),
(247,834,o),
(216,842,o),
(186,842,cs),
(114,842,o),
(62,796,o),
(44,737,c),
(127,681,l),
(142,706,o),
(173,725,o),
(213,725,cs),
(232,725,o),
(254,721,o),
(301,709,cs),
(322,703,o),
(350,696,o),
(378,696,cs),
(450,696,o),
(503,742,o),
(521,801,c)
);
},
{
closed = 1;
nodes = (
(50,0,l),
(514,0,l),
(514,130,l),
(220,130,l),
(220,258,l),
(469,258,l),
(469,388,l),
(220,388,l),
(220,506,l),
(508,506,l),
(508,636,l),
(50,636,l)
);
}
);
};
hints = (
{
place = (50,170);
type = Stem;
},
{
horizontal = 1;
place = (0,130);
type = Stem;
},
{
horizontal = 1;
place = (258,130);
type = Stem;
},
{
horizontal = 1;
place = (506,130);
type = Stem;
},
{
horizontal = 1;
place = (696,117);
type = Stem;
},
{
horizontal = 1;
place = (725,117);
type = Stem;
}
);
layerId = "49A649E9-A574-4B20-B218-33A3EC71A7EA";
shapes = (
{
ref = E;
},
{
pos = (18,124);
ref = tildecomb;
}
);
width = 554;
}
);
unicode = 7868;
},
{
glyphname = F;
kernLeft = B_2nd;
lastChange = "2023-05-04 08:30:25 +0000";
layers = (
{
anchors = (
{
name = bottom;
pos = (269,0);
},
{
name = top;
pos = (269,636);
}
);
background = {
shapes = (
{
closed = 1;
nodes = (
(50,0,l),
(220,0,l),
(220,221,l),
(467,221,l),
(467,350,l),
(220,350,l),
(220,507,l),
(497,507,l),
(497,636,l),
(50,636,l)
);
}
);
};
hints = (
{
place = (50,170);
type = Stem;
},
{
horizontal = 1;
place = (221,129);
type = Stem;
},
{
horizontal = 1;
place = (507,129);
type = Stem;
},
{
horizontal = 1;
place = (0,21);
target = up;
type = BottomGhost;
}
);
layerId = "49A649E9-A574-4B20-B218-33A3EC71A7EA";
shapes = (
{
closed = 1;
nodes = (
(220,0,l),
(220,221,l),
(467,221,l),
(467,350,l),
(220,350,l),
(220,507,l),
(497,507,l),
(497,636,l),
(50,636,l),
(50,0,l)
);
}
);
width = 537;
}
);
unicode = 70;
},
{
glyphname = G;
kernLeft = G_2nd;
kernRight = G1_1st;
lastChange = "2023-05-05 07:40:17 +0000";
layers = (
{
anchors = (
{
name = bottom;
pos = (378,0);
},
{
name = top;
pos = (338,636);
}
);
background = {
shapes = (
{
closed = 1;
nodes = (
(347,246,l),
(455,246,l),
(455,150,l),
(444,145,o),
(420,139,o),
(390,139,cs),
(301,139,o),
(220,193,o),
(220,318,cs),
(220,425,o),
(280,495,o),
(387,495,cs),
(446,495,o),
(509,474,o),
(551,448,c),
(602,564,l),
(549,605,o),
(468,639,o),
(358,639,cs),
(148,639,o),
(40,515,o),
(40,320,cs),
(40,103,o),
(175,-7,o),
(364,-7,cs),
(478,-7,o),
(576,33,o),
(625,92,c),
(625,374,l),
(347,374,l)
);
}
);
};
hints = (
{
place = (40,180);
type = Stem;
},
{
place = (455,170);
type = Stem;
},
{
horizontal = 1;
place = (-7,146);
type = Stem;
},
{
horizontal = 1;
place = (246,128);
type = Stem;
},
{
horizontal = 1;
place = (495,144);
type = Stem;
}
);
layerId = "49A649E9-A574-4B20-B218-33A3EC71A7EA";
shapes = (
{
closed = 1;
nodes = (
(478,-7,o),
(576,33,o),
(625,92,c),
(625,374,l),
(347,374,l),
(347,246,l),
(455,246,l),
(455,150,l),
(444,145,o),
(420,139,o),
(390,139,cs),
(301,139,o),
(220,193,o),
(220,318,cs),
(220,425,o),
(280,495,o),
(387,495,cs),
(446,495,o),
(509,474,o),
(551,448,c),
(602,564,l),
(549,605,o),
(468,639,o),
(358,639,cs),
(148,639,o),
(40,515,o),
(40,320,cs),
(40,103,o),
(175,-7,o),
(364,-7,cs)
);
}
);
width = 675;
}
);
unicode = 71;
},
{
glyphname = Gbreve;
kernLeft = G;
kernRight = G1;
lastChange = "2023-05-04 08:46:16 +0000";
layers = (
{
background = {
shapes = (
{
closed = 1;
nodes = (
(167,808,l),
(195,731,o),
(270,684,o),
(368,684,cs),
(466,684,o),
(541,731,o),
(569,808,c),
(474,865,l),
(457,825,o),
(415,804,o),
(368,804,cs),
(321,804,o),
(279,825,o),
(262,865,c)
);
},
{
closed = 1;
nodes = (
(347,246,l),
(455,246,l),
(455,150,l),
(444,145,o),
(420,139,o),
(390,139,cs),
(301,139,o),
(220,193,o),
(220,318,cs),
(220,425,o),
(280,495,o),
(387,495,cs),
(446,495,o),
(509,474,o),
(551,448,c),
(602,564,l),
(549,605,o),
(468,639,o),
(358,639,cs),
(148,639,o),
(40,515,o),
(40,320,cs),
(40,103,o),
(175,-7,o),
(364,-7,cs),
(478,-7,o),
(576,33,o),
(625,92,c),
(625,374,l),
(347,374,l)
);
}
);
};
hints = (
{
place = (40,180);
type = Stem;
},
{
place = (455,170);
type = Stem;
},
{
horizontal = 1;
place = (-7,146);
type = Stem;
},
{
horizontal = 1;
place = (246,128);
type = Stem;
},
{
horizontal = 1;
place = (495,144);
type = Stem;
},
{
horizontal = 1;
place = (684,120);
type = Stem;
}
);
layerId = "49A649E9-A574-4B20-B218-33A3EC71A7EA";
shapes = (
{
ref = G;
},
{
pos = (127,17);
ref = brevecomb;
}
);
width = 675;
}
);
unicode = 286;
},
{
glyphname = Gcircumflex;
kernLeft = G;
kernRight = G1;
lastChange = "2023-05-04 08:47:02 +0000";
layers = (
{
background = {
shapes = (
{
closed = 1;
nodes = (
(233,673,l),
(364,791,l),
(494,674,l),
(589,770,l),
(428,896,l),
(298,896,l),
(137,770,l)
);
},
{
closed = 1;
nodes = (
(347,246,l),
(455,246,l),
(455,150,l),
(444,145,o),
(420,139,o),
(390,139,cs),
(301,139,o),
(220,193,o),
(220,318,cs),
(220,425,o),
(280,495,o),
(387,495,cs),
(446,495,o),
(509,474,o),
(551,448,c),
(602,564,l),
(549,605,o),
(468,639,o),
(358,639,cs),
(148,639,o),
(40,515,o),
(40,320,cs),
(40,103,o),
(175,-7,o),
(364,-7,cs),
(478,-7,o),
(576,33,o),
(625,92,c),
(625,374,l),
(347,374,l)
);
}
);
};
hints = (
{
place = (40,180);
type = Stem;
},
{
place = (455,170);
type = Stem;
},
{
horizontal = 1;
place = (-7,146);
type = Stem;
},
{
horizontal = 1;
place = (246,128);
type = Stem;
},
{
horizontal = 1;
place = (495,144);
type = Stem;
},
{
horizontal = 1;
place = (896,-20);
target = down;
type = TopGhost;
}
);
layerId = "49A649E9-A574-4B20-B218-33A3EC71A7EA";
shapes = (
{
ref = G;
},
{
pos = (92,35);
ref = circumflexcomb;
}
);
width = 675;
}
);
unicode = 284;
},
{
glyphname = Gcommaaccent;
lastChange = "2023-05-05 07:40:17 +0000";
layers = (
{
background = {
shapes = (
{
closed = 1;
nodes = (
(347,246,l),
(455,246,l),
(455,150,l),
(444,145,o),
(420,139,o),
(390,139,cs),
(301,139,o),
(220,193,o),
(220,318,cs),
(220,425,o),
(280,495,o),
(387,495,cs),
(446,495,o),
(509,474,o),
(551,448,c),
(602,564,l),
(549,605,o),
(468,639,o),
(358,639,cs),
(148,639,o),
(40,515,o),
(40,320,cs),
(40,103,o),
(175,-7,o),
(364,-7,cs),
(478,-7,o),
(576,33,o),
(625,92,c),
(625,374,l),
(347,374,l)
);
},
{
closed = 1;
nodes = (
(350,-344,l),
(432,-296,o),
(466,-232,o),
(466,-160,cs),
(466,-97,o),
(440,-54,o),
(376,-54,cs),
(324,-54,o),
(289,-83,o),
(289,-137,cs),
(289,-180,o),
(310,-204,o),
(339,-215,c),
(327,-233,o),
(308,-249,o),
(286,-267,c),
(281,-272,l)
);
}
);
};
hints = (
{
place = (40,180);
type = Stem;
},
{
place = (289,177);
type = Stem;
},
{
place = (455,170);
type = Stem;
},
{
horizontal = 1;
place = (-54,47);
type = Stem;
},
{
horizontal = 1;
place = (139,107);
type = Stem;
},
{
horizontal = 1;
place = (374,121);
type = Stem;
},
{
horizontal = 1;
place = (495,144);
type = Stem;
},
{
horizontal = 1;
place = (246,128);
type = Stem;
},
{
horizontal = 1;
place = (-7,146);
type = Stem;
}
);
layerId = "49A649E9-A574-4B20-B218-33A3EC71A7EA";
shapes = (
{
ref = G;
},
{
pos = (255,0);
ref = commaaccentcomb;
}
);
width = 675;
}
);
unicode = 290;
},
{
glyphname = Gdotaccent;
kernLeft = G;
kernRight = G1;
lastChange = "2023-05-04 08:22:25 +0000";
layers = (
{
background = {
shapes = (
{
closed = 1;
nodes = (
(412,683,o),
(448,721,o),
(448,770,cs),
(448,819,o),
(412,857,o),
(358,857,cs),
(304,857,o),
(268,819,o),
(268,770,cs),
(268,721,o),
(304,683,o),
(358,683,cs)
);
},
{
closed = 1;
nodes = (
(347,246,l),
(455,246,l),
(455,150,l),
(444,145,o),
(420,139,o),
(390,139,cs),
(301,139,o),
(220,193,o),
(220,318,cs),
(220,425,o),
(280,495,o),
(387,495,cs),
(446,495,o),
(509,474,o),
(551,448,c),
(602,564,l),
(549,605,o),
(468,639,o),
(358,639,cs),
(148,639,o),
(40,515,o),
(40,320,cs),
(40,103,o),
(175,-7,o),
(364,-7,cs),
(478,-7,o),
(576,33,o),
(625,92,c),
(625,374,l),
(347,374,l)
);
}
);
};
hints = (
{
place = (40,180);
type = Stem;
},
{
place = (268,180);
type = Stem;
},
{
place = (455,170);
type = Stem;
},
{
horizontal = 1;
place = (-7,146);
type = Stem;
},
{
horizontal = 1;
place = (246,128);
type = Stem;
},
{
horizontal = 1;
place = (495,144);
type = Stem;
},
{
horizontal = 1;
place = (683,174);
type = Stem;
}
);
layerId = "49A649E9-A574-4B20-B218-33A3EC71A7EA";
shapes = (
{
ref = G;
},
{
pos = (228,20);
ref = dotaccentcomb;
}
);
width = 675;
}
);
unicode = 288;
},
{
glyphname = Gmacron;
kernLeft = G_2nd;
kernRight = G1_1st;
lastChange = "2023-05-04 08:22:47 +0000";
layers = (
{
background = {
shapes = (
{
closed = 1;
nodes = (
(167,716,l),
(517,716,l),
(517,846,l),
(167,846,l)
);
},
{
closed = 1;
nodes = (
(347,246,l),
(455,246,l),
(455,150,l),
(444,145,o),
(420,139,o),
(390,139,cs),
(301,139,o),
(220,193,o),
(220,318,cs),
(220,425,o),
(280,495,o),
(387,495,cs),
(446,495,o),
(509,474,o),
(551,448,c),
(602,564,l),
(549,605,o),
(468,639,o),
(358,639,cs),
(148,639,o),
(40,515,o),
(40,320,cs),
(40,103,o),
(175,-7,o),
(364,-7,cs),
(478,-7,o),
(576,33,o),
(625,92,c),
(625,374,l),
(347,374,l)
);
}
);
};
hints = (
{
place = (40,180);
type = Stem;
},
{
place = (455,170);
type = Stem;
},
{
horizontal = 1;
place = (-7,146);
type = Stem;
},
{
horizontal = 1;
place = (246,128);
type = Stem;
},
{
horizontal = 1;
place = (495,144);
type = Stem;
},
{
horizontal = 1;
place = (716,130);
type = Stem;
}
);
layerId = "49A649E9-A574-4B20-B218-33A3EC71A7EA";
shapes = (
{
ref = G;
},
{
pos = (143,20);
ref = macroncomb;
}
);
width = 675;
}
);
unicode = 7712;
},
{
glyphname = H;
kernLeft = B_2nd;
kernRight = H_1st;
lastChange = "2023-05-04 08:30:25 +0000";
layers = (
{
anchors = (
{
name = bottom;
pos = (319,0);
},
{
name = center;
pos = (319,318);
},
{
name = top;
pos = (319,636);
},
{
name = topleft;
pos = (20,636);
}
);
background = {
shapes = (
{
closed = 1;
nodes = (
(50,0,l),
(220,0,l),
(220,248,l),
(417,248,l),
(417,0,l),
(587,0,l),
(587,636,l),
(417,636,l),
(417,383,l),
(220,383,l),
(220,636,l),
(50,636,l)
);
}
);
};
hints = (
{
place = (50,170);
type = Stem;
},
{
place = (417,170);
type = Stem;
},
{
horizontal = 1;
place = (248,135);
type = Stem;
},
{
horizontal = 1;
place = (0,21);
target = up;
type = BottomGhost;
},
{
horizontal = 1;
place = (636,-20);
target = down;
type = TopGhost;
}
);
layerId = "49A649E9-A574-4B20-B218-33A3EC71A7EA";
shapes = (
{
closed = 1;
nodes = (
(220,0,l),
(220,248,l),
(417,248,l),
(417,0,l),
(587,0,l),
(587,636,l),
(417,636,l),
(417,383,l),
(220,383,l),
(220,636,l),
(50,636,l),
(50,0,l)
);
}
);
width = 637;
}
);
unicode = 72;
},
{
glyphname = Hbar;
lastChange = "2023-05-04 08:30:25 +0000";
layers = (
{
background = {
shapes = (
{
closed = 1;
nodes = (
(4,494,l),
(50,494,l),
(50,0,l),
(220,0,l),
(220,248,l),
(417,248,l),
(417,0,l),
(587,0,l),
(587,494,l),
(634,494,l),
(634,578,l),
(587,578,l),
(587,636,l),
(417,636,l),
(417,578,l),
(220,578,l),
(220,636,l),
(50,636,l),
(50,578,l),
(4,578,l)
);
},
{
closed = 1;
nodes = (
(220,383,l),
(220,494,l),
(417,494,l),
(417,383,l)
);
}
);
};
hints = (
{
place = (50,170);
type = Stem;
},
{
place = (417,170);
type = Stem;
},
{
horizontal = 1;
place = (248,135);
type = Stem;
},
{
horizontal = 1;
place = (494,84);
type = Stem;
},
{
horizontal = 1;
place = (0,21);
target = up;
type = BottomGhost;
},
{
horizontal = 1;
place = (636,-20);
target = down;
type = TopGhost;
}
);
layerId = "49A649E9-A574-4B20-B218-33A3EC71A7EA";
shapes = (
{
closed = 1;
nodes = (
(220,0,l),
(220,248,l),
(417,248,l),
(417,0,l),
(587,0,l),
(587,494,l),
(634,494,l),
(634,578,l),
(587,578,l),
(587,636,l),
(417,636,l),
(417,578,l),
(220,578,l),
(220,636,l),
(50,636,l),
(50,578,l),
(4,578,l),
(4,494,l),
(50,494,l),
(50,0,l)
);
},
{
closed = 1;
nodes = (
(220,494,l),
(417,494,l),
(417,383,l),
(220,383,l)
);
}
);
width = 637;
}
);
unicode = 294;
},
{
glyphname = Hbrevebelow;
kernLeft = uni1E24_2nd;
kernRight = uni1E241_1st;
lastChange = "2023-05-04 08:41:00 +0000";
layers = (
{
background = {
shapes = (
{
closed = 1;
nodes = (
(50,0,l),
(50,636,l),
(220,636,l),
(220,383,l),
(417,383,l),
(417,636,l),
(587,636,l),
(587,0,l),
(417,0,l),
(417,248,l),
(220,248,l),
(220,0,l)
);
},
{
closed = 1;
nodes = (
(213,-60,l),
(230,-100,o),
(272,-121,o),
(319,-121,cs),
(366,-121,o),
(408,-100,o),
(425,-60,c),
(520,-117,l),
(492,-194,o),
(417,-241,o),
(319,-241,cs),
(221,-241,o),
(146,-194,o),
(118,-117,c)
);
}
);
};
hints = (
{
place = (50,170);
type = Stem;
},
{
place = (417,170);
type = Stem;
},
{
horizontal = 1;
place = (-241,120);
type = Stem;
},
{
horizontal = 1;
place = (248,135);
type = Stem;
},
{
horizontal = 1;
place = (636,-20);
target = down;
type = TopGhost;
},
{
horizontal = 1;
place = (0,21);
target = up;
type = BottomGhost;
}
);
layerId = "49A649E9-A574-4B20-B218-33A3EC71A7EA";
shapes = (
{
ref = H;
},
{
pos = (122,0);
ref = brevebelowcomb;
}
);
width = 637;
}
);
unicode = 7722;
},
{
glyphname = Hcircumflex;
kernLeft = B1;
kernRight = H;
lastChange = "2023-05-04 08:47:02 +0000";
layers = (
{
background = {
shapes = (
{
closed = 1;
nodes = (
(189,693,l),
(320,811,l),
(450,694,l),
(545,790,l),
(384,916,l),
(254,916,l),
(93,790,l)
);
},
{
closed = 1;
nodes = (
(50,0,l),
(220,0,l),
(220,248,l),
(417,248,l),
(417,0,l),
(587,0,l),
(587,636,l),
(417,636,l),
(417,383,l),
(220,383,l),
(220,636,l),
(50,636,l)
);
}
);
};
hints = (
{
place = (50,170);
type = Stem;
},
{
place = (417,170);
type = Stem;
},
{
horizontal = 1;
place = (248,135);
type = Stem;
},
{
horizontal = 1;
place = (0,21);
target = up;
type = BottomGhost;
},
{
horizontal = 1;
place = (636,-20);
target = down;
type = TopGhost;
},
{
horizontal = 1;
place = (916,-20);
target = down;
type = TopGhost;
}
);
layerId = "49A649E9-A574-4B20-B218-33A3EC71A7EA";
shapes = (
{
ref = H;
},
{
pos = (73,35);
ref = circumflexcomb;
}
);
width = 637;
}
);
unicode = 292;
},
{
glyphname = Hdotbelow;
kernLeft = uni1E24_2nd;
kernRight = uni1E241_1st;
lastChange = "2023-05-04 08:21:50 +0000";
layers = (
{
background = {
shapes = (
{
closed = 1;
nodes = (
(50,0,l),
(220,0,l),
(220,248,l),
(417,248,l),
(417,0,l),
(587,0,l),
(587,636,l),
(417,636,l),
(417,383,l),
(220,383,l),
(220,636,l),
(50,636,l)
);
},
{
closed = 1;
nodes = (
(373,-237,o),
(410,-197,o),
(410,-148,cs),
(410,-99,o),
(373,-60,o),
(319,-60,cs),
(265,-60,o),
(228,-99,o),
(228,-148,cs),
(228,-197,o),
(265,-237,o),
(319,-237,cs)
);
}
);
};
hints = (
{
place = (50,170);
type = Stem;
},
{
place = (228,182);
type = Stem;
},
{
place = (417,170);
type = Stem;
},
{
horizontal = 1;
place = (-237,177);
type = Stem;
},
{
horizontal = 1;
place = (248,135);
type = Stem;
},
{
horizontal = 1;
place = (0,21);
target = up;
type = BottomGhost;
},
{
horizontal = 1;
place = (636,-20);
target = down;
type = TopGhost;
}
);
layerId = "49A649E9-A574-4B20-B218-33A3EC71A7EA";
shapes = (
{
ref = H;
},
{
pos = (210,0);
ref = dotbelowcomb;
}
);
width = 637;
}
);
unicode = 7716;
},
{
glyphname = I;
kernLeft = B_2nd;
kernRight = H_1st;
lastChange = "2023-05-04 08:30:25 +0000";
layers = (
{
anchors = (
{
name = bottom;
pos = (135,0);
},
{
name = ogonek;
pos = (243,10);
},
{
name = top;
pos = (135,636);
},
{
name = topleft;
pos = (20,636);
}
);
background = {
anchors = (
{
name = top;
pos = (148,637);
}
);
shapes = (
{
closed = 1;
nodes = (
(50,0,l),
(220,0,l),
(220,636,l),
(50,636,l)
);
}
);
};
hints = (
{
place = (50,170);
type = Stem;
},
{
horizontal = 1;
place = (0,21);
target = up;
type = BottomGhost;
},
{
horizontal = 1;
place = (636,-20);
target = down;
type = TopGhost;
}
);
layerId = "49A649E9-A574-4B20-B218-33A3EC71A7EA";
shapes = (
{
closed = 1;
nodes = (
(220,0,l),
(220,636,l),
(50,636,l),
(50,0,l)
);
}
);
width = 270;
}
);
unicode = 73;
},
{
glyphname = IJ;
kernLeft = K;
kernRight = J1;
lastChange = "2023-05-04 08:11:29 +0000";
layers = (
{
anchors = (
{
name = caret_;
pos = (378,0);
}
);
background = {
anchors = (
{
name = caret_;
pos = (378,0);
}
);
shapes = (
{
closed = 1;
nodes = (
(50,0,l),
(220,0,l),
(220,636,l),
(50,636,l)
);
},
{
closed = 1;
nodes = (
(310,43,l),
(348,9,o),
(411,-11,o),
(477,-11,cs),
(610,-11,o),
(677,71,o),
(677,192,cs),
(677,636,l),
(507,636,l),
(507,222,ls),
(507,171,o),
(491,135,o),
(439,135,cs),
(409,135,o),
(378,147,o),
(357,166,c)
);
}
);
};
hints = (
{
place = (50,170);
type = Stem;
},
{
place = (507,170);
type = Stem;
},
{
horizontal = 1;
place = (-11,146);
type = Stem;
},
{
horizontal = 1;
place = (0,21);
target = up;
type = BottomGhost;
},
{
horizontal = 1;
place = (636,-20);
target = down;
type = TopGhost;
}
);
layerId = "49A649E9-A574-4B20-B218-33A3EC71A7EA";
shapes = (
{
ref = I;
},
{
pos = (270,0);
ref = J;
}
);
width = 727;
}
);
unicode = 306;
},
{
glyphname = Iacute_J.loclNLD;
kernRight = J_1st;
lastChange = "2023-05-04 08:25:32 +0000";
layers = (
{
background = {
shapes = (
{
closed = 1;
nodes = (
(553,670,l),
(767,809,l),
(670,932,l),
(477,764,l)
);
},
{
closed = 1;
nodes = (
(126,670,l),
(340,809,l),
(243,932,l),
(50,764,l)
);
},
{
closed = 1;
nodes = (
(56,0,l),
(226,0,l),
(226,636,l),
(56,636,l)
);
},
{
closed = 1;
nodes = (
(286,43,l),
(324,9,o),
(387,-11,o),
(453,-11,cs),
(586,-11,o),
(653,71,o),
(653,192,cs),
(653,636,l),
(483,636,l),
(483,222,ls),
(483,171,o),
(467,135,o),
(415,135,cs),
(385,135,o),
(354,147,o),
(333,166,c)
);
}
);
};
hints = (
{
place = (56,170);
type = Stem;
},
{
place = (483,170);
type = Stem;
},
{
horizontal = 1;
place = (-11,146);
type = Stem;
},
{
horizontal = 1;
place = (0,21);
target = up;
type = BottomGhost;
},
{
horizontal = 1;
place = (636,-20);
target = down;
type = TopGhost;
}
);
layerId = "49A649E9-A574-4B20-B218-33A3EC71A7EA";
shapes = (
{
ref = I;
},
{
pos = (-36,140);
ref = acutecomb;
},
{
pos = (270,0);
ref = J;
},
{
pos = (420,140);
ref = acutecomb;
}
);
width = 727;
}
);
},
{
glyphname = Iacute;
kernLeft = B_2nd;
kernRight = H_1st;
lastChange = "2023-05-04 08:12:54 +0000";
layers = (
{
background = {
shapes = (
{
closed = 1;
nodes = (
(361,797,l),
(290,920,l),
(50,770,l),
(110,670,l)
);
},
{
closed = 1;
nodes = (
(50,0,l),
(220,0,l),
(220,636,l),
(50,636,l)
);
}
);
};
hints = (
{
place = (50,170);
type = Stem;
},
{
horizontal = 1;
place = (0,21);
target = up;
type = BottomGhost;
},
{
horizontal = 1;
place = (636,-20);
target = down;
type = TopGhost;
}
);
layerId = "49A649E9-A574-4B20-B218-33A3EC71A7EA";
shapes = (
{
ref = I;
},
{
pos = (-36,140);
ref = acutecomb;
}
);
width = 270;
}
);
unicode = 205;
},
{
glyphname = Ibreve;
kernLeft = B1;
kernRight = H;
lastChange = "2023-05-04 08:46:16 +0000";
layers = (
{
background = {
shapes = (
{
closed = 1;
nodes = (
(-52,803,l),
(-26,736,o),
(44,695,o),
(131,695,cs),
(218,695,o),
(290,736,o),
(322,803,c),
(241,871,l),
(221,831,o),
(182,810,o),
(135,810,cs),
(88,810,o),
(49,831,o),
(29,871,c)
);
},
{
closed = 1;
nodes = (
(50,0,l),
(220,0,l),
(220,636,l),
(50,636,l)
);
}
);
};
hints = (
{
place = (50,170);
type = Stem;
},
{
horizontal = 1;
place = (695,115);
type = Stem;
},
{
horizontal = 1;
place = (0,21);
target = up;
type = BottomGhost;
},
{
horizontal = 1;
place = (636,-20);
target = down;
type = TopGhost;
}
);
layerId = "49A649E9-A574-4B20-B218-33A3EC71A7EA";
shapes = (
{
ref = I;
},
{
pos = (-76,17);
ref = brevecomb;
}
);
width = 270;
}
);
unicode = 300;
},
{
glyphname = Icircumflex;
kernLeft = B_2nd;
kernRight = H_1st;
lastChange = "2023-05-04 08:47:02 +0000";
layers = (
{
background = {
shapes = (
{
closed = 1;
nodes = (
(6,669,l),
(-90,765,l),
(71,905,l),
(201,905,l),
(362,765,l),
(267,670,l),
(137,800,l)
);
},
{
closed = 1;
nodes = (
(51,0,l),
(51,636,l),
(221,636,l),
(221,0,l)
);
}
);
};
hints = (
{
place = (51,170);
type = Stem;
},
{
horizontal = 1;
place = (636,-20);
target = down;
type = TopGhost;
},
{
horizontal = 1;
place = (0,21);
target = up;
type = BottomGhost;
},
{
horizontal = 1;
place = (905,-20);
target = down;
type = TopGhost;
}
);
layerId = "49A649E9-A574-4B20-B218-33A3EC71A7EA";
shapes = (
{
ref = I;
},
{
pos = (-111,35);
ref = circumflexcomb;
}
);
width = 270;
}
);
unicode = 206;
},
{
glyphname = Idieresis;
kernLeft = B_2nd;
kernRight = H_1st;
lastChange = "2023-05-04 08:22:07 +0000";
layers = (
{
background = {
shapes = (
{
closed = 1;
nodes = (
(93,697,o),
(129,735,o),
(129,784,cs),
(129,833,o),
(93,871,o),
(39,871,cs),
(-15,871,o),
(-51,833,o),
(-51,784,cs),
(-51,735,o),
(-15,697,o),
(39,697,cs)
);
},
{
closed = 1;
nodes = (
(314,697,o),
(350,735,o),
(350,784,cs),
(350,833,o),
(314,871,o),
(260,871,cs),
(206,871,o),
(170,833,o),
(170,784,cs),
(170,735,o),
(206,697,o),
(260,697,cs)
);
},
{
closed = 1;
nodes = (
(50,0,l),
(220,0,l),
(220,636,l),
(50,636,l)
);
}
);
};
hints = (
{
place = (-51,180);
type = Stem;
},
{
place = (50,170);
type = Stem;
},
{
place = (170,180);
type = Stem;
},
{
horizontal = 1;
place = (697,174);
type = Stem;
},
{
horizontal = 1;
place = (0,21);
target = up;
type = BottomGhost;
},
{
horizontal = 1;
place = (636,-20);
target = down;
type = TopGhost;
}
);
layerId = "49A649E9-A574-4B20-B218-33A3EC71A7EA";
shapes = (
{
ref = I;
},
{
pos = (-86,140);
ref = dieresiscomb;
}
);
width = 270;
}
);
unicode = 207;
},
{
glyphname = Idotaccent;
kernLeft = B1;
kernRight = H;
lastChange = "2023-05-04 08:22:25 +0000";
layers = (
{
background = {
shapes = (
{
closed = 1;
nodes = (
(189,698,o),
(225,736,o),
(225,785,cs),
(225,834,o),
(189,872,o),
(135,872,cs),
(81,872,o),
(45,834,o),
(45,785,cs),
(45,736,o),
(81,698,o),
(135,698,cs)
);
},
{
closed = 1;
nodes = (
(50,0,l),
(220,0,l),
(220,636,l),
(50,636,l)
);
}
);
};
hints = (
{
place = (45,180);
type = Stem;
},
{
place = (50,170);
type = Stem;
},
{
horizontal = 1;
place = (698,174);
type = Stem;
},
{
horizontal = 1;
place = (0,21);
target = up;
type = BottomGhost;
},
{
horizontal = 1;
place = (636,-20);
target = down;
type = TopGhost;
}
);
layerId = "49A649E9-A574-4B20-B218-33A3EC71A7EA";
shapes = (
{
ref = I;
},
{
pos = (25,20);
ref = dotaccentcomb;
}
);
width = 270;
}
);
unicode = 304;
},
{
glyphname = Idotbelow;
lastChange = "2023-05-04 08:21:50 +0000";
layers = (
{
anchors = (
{
name = top;
pos = (148,637);
}
);
background = {
anchors = (
{
name = top;
pos = (148,637);
}
);
shapes = (
{
closed = 1;
nodes = (
(56,0,l),
(226,0,l),
(226,636,l),
(56,636,l)
);
},
{
closed = 1;
nodes = (
(195,-237,o),
(232,-197,o),
(232,-148,cs),
(232,-99,o),
(195,-60,o),
(141,-60,cs),
(87,-60,o),
(50,-99,o),
(50,-148,cs),
(50,-197,o),
(87,-237,o),
(141,-237,cs)
);
}
);
};
hints = (
{
place = (50,182);
type = Stem;
},
{
place = (56,170);
type = Stem;
},
{
horizontal = 1;
place = (-237,177);
type = Stem;
},
{
horizontal = 1;
place = (0,21);
target = up;
type = BottomGhost;
},
{
horizontal = 1;
place = (636,-20);
target = down;
type = TopGhost;
}
);
layerId = "49A649E9-A574-4B20-B218-33A3EC71A7EA";
shapes = (
{
ref = I;
},
{
pos = (26,0);
ref = dotbelowcomb;
}
);
width = 270;
}
);
unicode = 7882;
},
{
glyphname = Igrave;
kernLeft = B_2nd;
kernRight = H_1st;
lastChange = "2023-05-04 08:28:41 +0000";
layers = (
{
background = {
shapes = (
{
closed = 1;
nodes = (
(50,797,l),
(301,670,l),
(361,770,l),
(121,920,l)
);
},
{
closed = 1;
nodes = (
(191,0,l),
(361,0,l),
(361,636,l),
(191,636,l)
);
}
);
};
hints = (
{
place = (191,170);
type = Stem;
},
{
horizontal = 1;
place = (0,21);
target = up;
type = BottomGhost;
},
{
horizontal = 1;
place = (636,-20);
target = down;
type = TopGhost;
}
);
layerId = "49A649E9-A574-4B20-B218-33A3EC71A7EA";
shapes = (
{
ref = I;
},
{
pos = (-37,135);
ref = gravecomb;
}
);
width = 270;
}
);
unicode = 204;
},
{
glyphname = Ihookabove;
kernLeft = B_2nd;
kernRight = H_1st;
lastChange = "2023-05-04 08:41:32 +0000";
layers = (
{
background = {
shapes = (
{
closed = 1;
nodes = (
(92,676,l),
(176,676,l),
(176,691,ls),
(176,704,o),
(185,715,o),
(203,729,cs),
(226,747,ls),
(252,767,o),
(275,789,o),
(275,822,cs),
(275,869,o),
(229,907,o),
(161,907,cs),
(113,907,o),
(73,888,o),
(50,868,c),
(80,806,l),
(100,820,o),
(121,828,o),
(144,828,cs),
(167,828,o),
(176,820,o),
(176,810,cs),
(176,802,o),
(171,795,o),
(158,785,cs),
(135,767,ls),
(103,742,o),
(92,724,o),
(92,694,cs)
);
},
{
closed = 1;
nodes = (
(50,0,l),
(220,0,l),
(220,636,l),
(50,636,l)
);
}
);
};
hints = (
{
place = (50,170);
type = Stem;
},
{
horizontal = 1;
place = (676,231);
type = Stem;
},
{
horizontal = 1;
place = (828,79);
type = Stem;
},
{
horizontal = 1;
place = (0,21);
target = up;
type = BottomGhost;
},
{
horizontal = 1;
place = (636,-20);
target = down;
type = TopGhost;
}
);
layerId = "49A649E9-A574-4B20-B218-33A3EC71A7EA";
shapes = (
{
ref = I;
},
{
pos = (30,155);
ref = hookabovecomb;
}
);
width = 270;
}
);
unicode = 7880;
},
{
glyphname = Imacron;
kernLeft = B1;
kernRight = H;
lastChange = "2023-05-04 08:22:47 +0000";
layers = (
{
background = {
shapes = (
{
closed = 1;
nodes = (
(-40,682,l),
(310,682,l),
(310,822,l),
(-40,822,l)
);
},
{
closed = 1;
nodes = (
(50,0,l),
(220,0,l),
(220,636,l),
(50,636,l)
);
}
);
};
hints = (
{
place = (50,170);
type = Stem;
},
{
horizontal = 1;
place = (682,140);
type = Stem;
},
{
horizontal = 1;
place = (0,21);
target = up;
type = BottomGhost;
},
{
horizontal = 1;
place = (636,-20);
target = down;
type = TopGhost;
}
);
layerId = "49A649E9-A574-4B20-B218-33A3EC71A7EA";
shapes = (
{
ref = I;
},
{
pos = (-60,20);
ref = macroncomb;
}
);
width = 270;
}
);
unicode = 298;
},
{
glyphname = Iogonek;
lastChange = "2023-05-04 08:23:12 +0000";
layers = (
{
anchors = (
{
name = top;
pos = (145,636);
}
);
background = {
anchors = (
{
name = top;
pos = (145,636);
}
);
shapes = (
{
closed = 1;
nodes = (
(207,-100,l),
(195,-105,o),
(184,-107,o),
(173,-107,cs),
(138,-107,o),
(117,-84,o),
(117,-53,cs),
(117,-34,o),
(125,-12,o),
(137,0,c),
(220,0,l),
(220,636,l),
(50,636,l),
(50,44,l),
(12,20,o),
(-13,-21,o),
(-13,-73,cs),
(-13,-149,o),
(42,-209,o),
(140,-209,cs),
(171,-209,o),
(202,-203,o),
(230,-186,c)
);
}
);
};
hints = (
{
place = (-13,130);
type = Stem;
},
{
place = (50,170);
type = Stem;
},
{
horizontal = 1;
place = (-209,102);
type = Stem;
},
{
horizontal = 1;
place = (636,-20);
target = down;
type = TopGhost;
},
{
horizontal = 1;
place = (0,21);
target = up;
type = BottomGhost;
}
);
layerId = "49A649E9-A574-4B20-B218-33A3EC71A7EA";
shapes = (
{
ref = I;
},
{
pos = (-32,-4);
ref = ogonekcomb;
}
);
width = 270;
}
);
unicode = 302;
},
{
glyphname = Itilde;
kernLeft = B1;
kernRight = H;
lastChange = "2023-05-19 07:56:56 +0000";
layers = (
{
background = {
shapes = (
{
closed = 1;
nodes = (
(296,844,l),
(281,819,o),
(250,800,o),
(211,800,cs),
(187,800,o),
(158,807,o),
(134,813,cs),
(105,821,o),
(74,829,o),
(44,829,cs),
(-28,829,o),
(-81,783,o),
(-99,724,c),
(-16,668,l),
(-1,693,o),
(31,712,o),
(71,712,cs),
(90,712,o),
(112,708,o),
(159,696,cs),
(180,690,o),
(208,683,o),
(236,683,cs),
(308,683,o),
(361,729,o),
(379,788,c)
);
},
{
closed = 1;
nodes = (
(50,0,l),
(220,0,l),
(220,636,l),
(50,636,l)
);
}
);
};
hints = (
{
place = (50,170);
type = Stem;
},
{
horizontal = 1;
place = (683,117);
type = Stem;
},
{
horizontal = 1;
place = (712,117);
type = Stem;
},
{
horizontal = 1;
place = (0,21);
target = up;
type = BottomGhost;
},
{
horizontal = 1;
place = (636,-20);
target = down;
type = TopGhost;
}
);
layerId = "49A649E9-A574-4B20-B218-33A3EC71A7EA";
shapes = (
{
ref = I;
},
{
pos = (-124,124);
ref = tildecomb;
}
);
width = 270;
}
);
unicode = 296;
},
{
glyphname = J;
kernLeft = J;
kernRight = J_1st;
lastChange = "2023-05-04 08:30:25 +0000";
layers = (
{
anchors = (
{
name = bottom;
pos = (229,0);
},
{
name = top;
pos = (321,636);
}
);
background = {
shapes = (
{
closed = 1;
nodes = (
(40,43,l),
(78,9,o),
(141,-11,o),
(207,-11,cs),
(340,-11,o),
(407,71,o),
(407,192,cs),
(407,636,l),
(237,636,l),
(237,222,ls),
(237,171,o),
(221,135,o),
(169,135,cs),
(139,135,o),
(108,147,o),
(87,166,c)
);
}
);
};
hints = (
{
place = (237,170);
type = Stem;
},
{
horizontal = 1;
place = (-11,146);
type = Stem;
},
{
horizontal = 1;
place = (636,-20);
target = down;
type = TopGhost;
}
);
layerId = "49A649E9-A574-4B20-B218-33A3EC71A7EA";
shapes = (
{
closed = 1;
nodes = (
(340,-11,o),
(407,71,o),
(407,192,cs),
(407,636,l),
(237,636,l),
(237,222,ls),
(237,171,o),
(221,135,o),
(169,135,cs),
(139,135,o),
(108,147,o),
(87,166,c),
(40,43,l),
(78,9,o),
(141,-11,o),
(207,-11,cs)
);
}
);
width = 457;
}
);
unicode = 74;
},
{
glyphname = Jcircumflex;
kernLeft = J;
kernRight = J1;
lastChange = "2023-05-04 08:47:02 +0000";
layers = (
{
background = {
shapes = (
{
closed = 1;
nodes = (
(189,673,l),
(320,791,l),
(450,674,l),
(545,770,l),
(384,896,l),
(254,896,l),
(93,770,l)
);
},
{
closed = 1;
nodes = (
(40,43,l),
(78,9,o),
(141,-11,o),
(207,-11,cs),
(340,-11,o),
(407,71,o),
(407,192,cs),
(407,636,l),
(237,636,l),
(237,222,ls),
(237,171,o),
(221,135,o),
(169,135,cs),
(139,135,o),
(108,147,o),
(87,166,c)
);
}
);
};
hints = (
{
place = (237,170);
type = Stem;
},
{
horizontal = 1;
place = (-11,146);
type = Stem;
},
{
horizontal = 1;
place = (636,-20);
target = down;
type = TopGhost;
},
{
horizontal = 1;
place = (896,-20);
target = down;
type = TopGhost;
}
);
layerId = "49A649E9-A574-4B20-B218-33A3EC71A7EA";
shapes = (
{
ref = J;
},
{
pos = (75,35);
ref = circumflexcomb;
}
);
width = 457;
}
);
unicode = 308;
},
{
glyphname = K;
kernLeft = K_2nd;
lastChange = "2023-05-04 08:30:25 +0000";
layers = (
{
anchors = (
{
name = bottom;
pos = (319,0);
},
{
name = top;
pos = (297,636);
}
);
background = {
shapes = (
{
closed = 1;
nodes = (
(50,0,l),
(220,0,l),
(220,238,l),
(446,-13,l),
(564,101,l),
(357,309,l),
(558,539,l),
(435,642,l),
(220,383,l),
(220,636,l),
(50,636,l)
);
}
);
};
hints = (
{
place = (50,170);
type = Stem;
},
{
horizontal = 1;
place = (0,21);
target = up;
type = BottomGhost;
},
{
horizontal = 1;
place = (636,-20);
target = down;
type = TopGhost;
}
);
layerId = "49A649E9-A574-4B20-B218-33A3EC71A7EA";
shapes = (
{
closed = 1;
nodes = (
(564,101,l),
(357,309,l),
(558,539,l),
(435,642,l),
(220,383,l),
(220,636,l),
(50,636,l),
(50,0,l),
(220,0,l),
(220,238,l),
(446,-13,l)
);
}
);
width = 594;
}
);
unicode = 75;
},
{
glyphname = Kcommaaccent;
kernLeft = K;
lastChange = "2023-05-04 08:25:44 +0000";
layers = (
{
background = {
shapes = (
{
closed = 1;
nodes = (
(50,0,l),
(220,0,l),
(220,238,l),
(446,-13,l),
(564,101,l),
(357,309,l),
(558,539,l),
(435,642,l),
(220,383,l),
(220,636,l),
(50,636,l)
);
},
{
closed = 1;
nodes = (
(297,-330,l),
(379,-282,o),
(413,-218,o),
(413,-146,cs),
(413,-83,o),
(387,-40,o),
(323,-40,cs),
(271,-40,o),
(236,-69,o),
(236,-123,cs),
(236,-166,o),
(257,-190,o),
(286,-201,c),
(274,-219,o),
(255,-235,o),
(233,-253,c),
(228,-258,l)
);
}
);
};
hints = (
{
place = (50,170);
type = Stem;
},
{
place = (236,177);
type = Stem;
},
{
horizontal = 1;
place = (0,21);
target = up;
type = BottomGhost;
},
{
horizontal = 1;
place = (636,-20);
target = down;
type = TopGhost;
}
);
layerId = "49A649E9-A574-4B20-B218-33A3EC71A7EA";
shapes = (
{
ref = K;
},
{
pos = (196,0);
ref = commaaccentcomb;
}
);
width = 594;
}
);
unicode = 310;
},
{
glyphname = L;
kernLeft = B_2nd;
kernRight = L;
lastChange = "2023-05-19 08:06:40 +0000";
layers = (
{
anchors = (
{
name = bottom;
pos = (257,0);
},
{
name = center;
pos = (247,318);
},
{
name = top;
pos = (137,636);
},
{
name = topright;
pos = (315,718);
}
);
background = {
shapes = (
{
pos = (268,33);
ref = periodcentered.loclCAT.case;
scale = (0.946,0.946);
}
);
};
hints = (
{
place = (50,170);
type = Stem;
},
{
horizontal = 1;
place = (0,140);
type = Stem;
},
{
horizontal = 1;
place = (636,-20);
target = down;
type = TopGhost;
}
);
layerId = "49A649E9-A574-4B20-B218-33A3EC71A7EA";
shapes = (
{
closed = 1;
nodes = (
(463,0,l),
(463,140,l),
(220,140,l),
(220,636,l),
(50,636,l),
(50,0,l)
);
}
);
width = 493;
}
);
unicode = 76;
},
{
glyphname = Lacute;
kernLeft = B1;
kernRight = L;
lastChange = "2023-05-04 08:27:08 +0000";
layers = (
{
background = {
shapes = (
{
closed = 1;
nodes = (
(301,817,l),
(230,940,l),
(-10,790,l),
(50,690,l)
);
},
{
closed = 1;
nodes = (
(50,0,l),
(463,0,l),
(463,140,l),
(220,140,l),
(220,636,l),
(50,636,l)
);
}
);
};
hints = (
{
place = (50,170);
type = Stem;
},
{
horizontal = 1;
place = (0,140);
type = Stem;
},
{
horizontal = 1;
place = (636,-20);
target = down;
type = TopGhost;
}
);
layerId = "49A649E9-A574-4B20-B218-33A3EC71A7EA";
shapes = (
{
ref = L;
},
{
pos = (-34,140);
ref = acutecomb;
}
);
width = 493;
}
);
unicode = 313;
},
{
glyphname = Lcaron;
kernLeft = B1;
lastChange = "2023-05-04 08:26:32 +0000";
layers = (
{
background = {
shapes = (
{
closed = 1;
nodes = (
(315,488,l),
(420,488,l),
(458,718,l),
(315,718,l)
);
},
{
closed = 1;
nodes = (
(50,0,l),
(463,0,l),
(463,140,l),
(220,140,l),
(220,636,l),
(50,636,l)
);
}
);
};
hints = (
{
place = (50,170);
type = Stem;
},
{
horizontal = 1;
place = (0,140);
type = Stem;
},
{
horizontal = 1;
place = (488,230);
type = Stem;
},
{
horizontal = 1;
place = (636,-20);
target = down;
type = TopGhost;
}
);
layerId = "49A649E9-A574-4B20-B218-33A3EC71A7EA";
shapes = (
{
ref = L;
},
{
pos = (200,0);
ref = caroncomb.alt;
}
);
width = 493;
}
);
unicode = 317;
},
{
glyphname = Lcommaaccent;
kernLeft = K;
lastChange = "2023-05-04 08:27:16 +0000";
layers = (
{
background = {
shapes = (
{
closed = 1;
nodes = (
(50,0,l),
(463,0,l),
(463,140,l),
(220,140,l),
(220,636,l),
(50,636,l)
);
},
{
closed = 1;
nodes = (
(233,-340,l),
(315,-292,o),
(349,-228,o),
(349,-156,cs),
(349,-93,o),
(323,-50,o),
(259,-50,cs),
(207,-50,o),
(172,-79,o),
(172,-133,cs),
(172,-176,o),
(193,-200,o),
(222,-211,c),
(210,-229,o),
(191,-245,o),
(169,-263,c),
(164,-268,l)
);
}
);
};
hints = (
{
place = (50,170);
type = Stem;
},
{
place = (172,177);
type = Stem;
},
{
horizontal = 1;
place = (-50,50);
type = Stem;
},
{
horizontal = 1;
place = (0,140);
type = Stem;
},
{
horizontal = 1;
place = (636,-20);
target = down;
type = TopGhost;
}
);
layerId = "49A649E9-A574-4B20-B218-33A3EC71A7EA";
shapes = (
{
ref = L;
},
{
pos = (134,0);
ref = commaaccentcomb;
}
);
width = 493;
}
);
unicode = 315;
},
{
glyphname = Ldot;
kernLeft = B1;
lastChange = "2023-05-19 08:07:53 +0000";
layers = (
{
background = {
shapes = (
{
closed = 1;
nodes = (
(50,0,l),
(463,0,l),
(463,140,l),
(220,140,l),
(220,636,l),
(50,636,l)
);
},
{
closed = 1;
nodes = (
(408,187,o),
(443,223,o),
(443,270,cs),
(443,318,o),
(408,355,o),
(357,355,cs),
(306,355,o),
(271,318,o),
(271,270,cs),
(271,223,o),
(306,187,o),
(357,187,cs)
);
}
);
};
hints = (
{
place = (50,170);
type = Stem;
},
{
place = (271,172);
type = Stem;
},
{
horizontal = 1;
place = (0,140);
type = Stem;
},
{
horizontal = 1;
place = (187,167);
type = Stem;
},
{
horizontal = 1;
place = (636,-20);
target = down;
type = TopGhost;
}
);
layerId = "49A649E9-A574-4B20-B218-33A3EC71A7EA";
shapes = (
{
ref = L;
},
{
pos = (268,23);
ref = periodcentered.loclCAT.case;
scale = (0.946,0.946);
}
);
width = 493;
}
);
unicode = 319;
},
{
glyphname = Ldotbelow;
kernLeft = K_2nd;
kernRight = uni1E36_1st;
lastChange = "2023-05-04 08:27:16 +0000";
layers = (
{
background = {
shapes = (
{
closed = 1;
nodes = (
(50,0,l),
(463,0,l),
(463,140,l),
(220,140,l),
(220,636,l),
(50,636,l)
);
},
{
closed = 1;
nodes = (
(297,-237,o),
(334,-197,o),
(334,-148,cs),
(334,-99,o),
(297,-60,o),
(243,-60,cs),
(189,-60,o),
(152,-99,o),
(152,-148,cs),
(152,-197,o),
(189,-237,o),
(243,-237,cs)
);
}
);
};
hints = (
{
place = (50,170);
type = Stem;
},
{
place = (152,182);
type = Stem;
},
{
horizontal = 1;
place = (-237,177);
type = Stem;
},
{
horizontal = 1;
place = (0,140);
type = Stem;
},
{
horizontal = 1;
place = (636,-20);
target = down;
type = TopGhost;
}
);
layerId = "49A649E9-A574-4B20-B218-33A3EC71A7EA";
shapes = (
{
ref = L;
},
{
pos = (148,0);
ref = dotbelowcomb;
}
);
width = 493;
}
);
unicode = 7734;
},
{
glyphname = Ldotbelowmacron;
kernLeft = K_2nd;
lastChange = "2023-05-04 08:27:16 +0000";
layers = (
{
background = {
shapes = (
{
closed = 1;
nodes = (
(-35,716,l),
(315,716,l),
(315,846,l),
(-35,846,l)
);
},
{
closed = 1;
nodes = (
(58,0,l),
(471,0,l),
(471,140,l),
(228,140,l),
(228,636,l),
(58,636,l)
);
},
{
closed = 1;
nodes = (
(309,-237,o),
(346,-197,o),
(346,-148,cs),
(346,-99,o),
(309,-60,o),
(255,-60,cs),
(201,-60,o),
(164,-99,o),
(164,-148,cs),
(164,-197,o),
(201,-237,o),
(255,-237,cs)
);
}
);
};
hints = (
{
place = (58,170);
type = Stem;
},
{
place = (164,182);
type = Stem;
},
{
horizontal = 1;
place = (-237,177);
type = Stem;
},
{
horizontal = 1;
place = (0,140);
type = Stem;
},
{
horizontal = 1;
place = (716,130);
type = Stem;
},
{
horizontal = 1;
place = (636,-20);
target = down;
type = TopGhost;
}
);
layerId = "49A649E9-A574-4B20-B218-33A3EC71A7EA";
shapes = (
{
ref = L;
},
{
pos = (148,0);
ref = dotbelowcomb;
},
{
pos = (-58,20);
ref = macroncomb;
}
);
width = 493;
}
);
unicode = 7736;
},
{
glyphname = Lmacronbelow;
kernLeft = K_2nd;
kernRight = uni1E36_1st;
lastChange = "2023-05-04 08:27:21 +0000";
layers = (
{
background = {
shapes = (
{
closed = 1;
nodes = (
(50,0,l),
(463,0,l),
(463,140,l),
(220,140,l),
(220,636,l),
(50,636,l)
);
},
{
closed = 1;
nodes = (
(82,-210,l),
(432,-210,l),
(432,-80,l),
(82,-80,l)
);
}
);
};
hints = (
{
place = (50,170);
type = Stem;
},
{
horizontal = 1;
place = (-210,130);
type = Stem;
},
{
horizontal = 1;
place = (0,140);
type = Stem;
},
{
horizontal = 1;
place = (636,-20);
target = down;
type = TopGhost;
}
);
layerId = "49A649E9-A574-4B20-B218-33A3EC71A7EA";
shapes = (
{
ref = L;
},
{
pos = (42,0);
ref = macronbelowcomb;
}
);
width = 493;
}
);
unicode = 7738;
},
{
glyphname = Lslash;
lastChange = "2023-05-04 08:30:25 +0000";
layers = (
{
background = {
shapes = (
{
closed = 1;
nodes = (
(62,189,l),
(133,230,l),
(133,0,l),
(546,0,l),
(546,140,l),
(303,140,l),
(303,328,l),
(462,420,l),
(410,510,l),
(303,448,l),
(303,636,l),
(133,636,l),
(133,350,l),
(10,279,l)
);
}
);
};
hints = (
{
place = (133,170);
type = Stem;
},
{
horizontal = 1;
place = (0,140);
type = Stem;
},
{
horizontal = 1;
place = (636,-20);
target = down;
type = TopGhost;
}
);
layerId = "49A649E9-A574-4B20-B218-33A3EC71A7EA";
shapes = (
{
closed = 1;
nodes = (
(546,0,l),
(546,140,l),
(303,140,l),
(303,328,l),
(462,420,l),
(410,510,l),
(303,448,l),
(303,636,l),
(133,636,l),
(133,350,l),
(10,279,l),
(62,189,l),
(133,230,l),
(133,0,l)
);
}
);
width = 566;
}
);
unicode = 321;
},
{
glyphname = M;
lastChange = "2023-05-04 08:30:25 +0000";
layers = (
{
anchors = (
{
name = bottom;
pos = (432,0);
},
{
name = top;
pos = (432,636);
}
);
background = {
shapes = (
{
closed = 1;
nodes = (
(40,0,l),
(220,0,l),
(243,385,l),
(246,402,l),
(249,402,l),
(253,385,l),
(374,60,l),
(494,60,l),
(614,385,l),
(619,402,l),
(621,402,l),
(624,385,l),
(644,0,l),
(824,0,l),
(774,636,l),
(574,636,l),
(436,281,l),
(434,269,l),
(431,281,l),
(300,636,l),
(100,636,l)
);
}
);
};
hints = (
{
place = (634,165);
type = Stem;
},
{
horizontal = 1;
place = (636,-20);
target = down;
type = TopGhost;
},
{
horizontal = 1;
place = (0,21);
target = up;
type = BottomGhost;
}
);
layerId = "49A649E9-A574-4B20-B218-33A3EC71A7EA";
shapes = (
{
closed = 1;
nodes = (
(220,0,l),
(243,385,l),
(246,402,l),
(249,402,l),
(253,385,l),
(374,60,l),
(494,60,l),
(614,385,l),
(619,402,l),
(621,402,l),
(624,385,l),
(644,0,l),
(824,0,l),
(774,636,l),
(574,636,l),
(436,281,l),
(434,269,l),
(431,281,l),
(300,636,l),
(100,636,l),
(40,0,l)
);
}
);
width = 864;
}
);
unicode = 77;
},
{
glyphname = Mdotbelow;
lastChange = "2023-05-04 08:21:50 +0000";
layers = (
{
background = {
shapes = (
{
closed = 1;
nodes = (
(40,0,l),
(220,0,l),
(243,385,l),
(246,402,l),
(249,402,l),
(253,385,l),
(374,60,l),
(494,60,l),
(614,385,l),
(619,402,l),
(621,402,l),
(624,385,l),
(644,0,l),
(824,0,l),
(774,636,l),
(574,636,l),
(436,281,l),
(434,269,l),
(431,281,l),
(300,636,l),
(100,636,l)
);
},
{
closed = 1;
nodes = (
(486,-237,o),
(523,-197,o),
(523,-148,cs),
(523,-99,o),
(486,-60,o),
(432,-60,cs),
(378,-60,o),
(341,-99,o),
(341,-148,cs),
(341,-197,o),
(378,-237,o),
(432,-237,cs)
);
}
);
};
hints = (
{
place = (634,165);
type = Stem;
},
{
place = (341,182);
type = Stem;
},
{
horizontal = 1;
place = (-237,177);
type = Stem;
},
{
horizontal = 1;
place = (636,-20);
target = down;
type = TopGhost;
},
{
horizontal = 1;
place = (0,21);
target = up;
type = BottomGhost;
}
);
layerId = "49A649E9-A574-4B20-B218-33A3EC71A7EA";
shapes = (
{
ref = M;
},
{
pos = (323,0);
ref = dotbelowcomb;
}
);
width = 864;
}
);
unicode = 7746;
},
{
glyphname = N;
kernLeft = B_2nd;
kernRight = H_1st;
lastChange = "2023-05-04 08:30:25 +0000";
layers = (
{
anchors = (
{
name = bottom;
pos = (335,0);
},
{
name = top;
pos = (335,636);
}
);
background = {
shapes = (
{
closed = 1;
nodes = (
(50,0,l),
(220,0,l),
(220,377,l),
(426,0,l),
(620,0,l),
(620,636,l),
(450,636,l),
(450,244,l),
(239,636,l),
(50,636,l)
);
}
);
};
hints = (
{
place = (50,170);
type = Stem;
},
{
place = (450,170);
type = Stem;
},
{
horizontal = 1;
place = (0,21);
target = up;
type = BottomGhost;
},
{
horizontal = 1;
place = (636,-20);
target = down;
type = TopGhost;
}
);
layerId = "49A649E9-A574-4B20-B218-33A3EC71A7EA";
shapes = (
{
closed = 1;
nodes = (
(220,0,l),
(220,377,l),
(426,0,l),
(620,0,l),
(620,636,l),
(450,636,l),
(450,244,l),
(239,636,l),
(50,636,l),
(50,0,l)
);
}
);
width = 670;
}
);
unicode = 78;
},
{
glyphname = Nacute;
kernLeft = B1;
kernRight = H;
lastChange = "2023-05-04 08:27:41 +0000";
layers = (
{
background = {
shapes = (
{
closed = 1;
nodes = (
(301,807,l),
(230,930,l),
(-11,780,l),
(50,680,l)
);
},
{
closed = 1;
nodes = (
(50,0,l),
(220,0,l),
(220,377,l),
(426,0,l),
(620,0,l),
(620,636,l),
(450,636,l),
(450,244,l),
(239,636,l),
(50,636,l)
);
}
);
};
hints = (
{
place = (50,170);
type = Stem;
},
{
place = (450,170);
type = Stem;
},
{
horizontal = 1;
place = (0,21);
target = up;
type = BottomGhost;
},
{
horizontal = 1;
place = (636,-20);
target = down;
type = TopGhost;
}
);
layerId = "49A649E9-A574-4B20-B218-33A3EC71A7EA";
shapes = (
{
ref = N;
},
{
pos = (164,140);
ref = acutecomb;
}
);
width = 670;
}
);
unicode = 323;
},
{
glyphname = Ncaron;
kernLeft = B;
kernRight = H;
lastChange = "2023-05-04 08:28:11 +0000";
layers = (
{
background = {
shapes = (
{
closed = 1;
nodes = (
(205,916,l),
(109,819,l),
(270,693,l),
(400,693,l),
(561,819,l),
(466,915,l),
(336,798,l)
);
},
{
closed = 1;
nodes = (
(50,0,l),
(220,0,l),
(220,377,l),
(426,0,l),
(620,0,l),
(620,636,l),
(450,636,l),
(450,244,l),
(239,636,l),
(50,636,l)
);
}
);
};
hints = (
{
place = (50,170);
type = Stem;
},
{
place = (450,170);
type = Stem;
},
{
horizontal = 1;
place = (0,21);
target = up;
type = BottomGhost;
},
{
horizontal = 1;
place = (636,-20);
target = down;
type = TopGhost;
}
);
layerId = "49A649E9-A574-4B20-B218-33A3EC71A7EA";
shapes = (
{
ref = N;
},
{
pos = (99,112);
ref = caroncomb;
}
);
width = 670;
}
);
unicode = 327;
},
{
glyphname = Ncommaaccent;
lastChange = "2023-05-04 08:25:40 +0000";
layers = (
{
background = {
shapes = (
{
closed = 1;
nodes = (
(50,0,l),
(220,0,l),
(220,377,l),
(426,0,l),
(620,0,l),
(620,636,l),
(450,636,l),
(450,244,l),
(239,636,l),
(50,636,l)
);
},
{
closed = 1;
nodes = (
(296,-330,l),
(378,-282,o),
(412,-218,o),
(412,-146,cs),
(412,-83,o),
(386,-40,o),
(322,-40,cs),
(270,-40,o),
(235,-69,o),
(235,-123,cs),
(235,-166,o),
(256,-190,o),
(285,-201,c),
(273,-219,o),
(254,-235,o),
(232,-253,c),
(227,-258,l)
);
}
);
};
hints = (
{
place = (50,170);
type = Stem;
},
{
place = (235,177);
type = Stem;
},
{
place = (450,170);
type = Stem;
},
{
horizontal = 1;
place = (0,21);
target = up;
type = BottomGhost;
},
{
horizontal = 1;
place = (636,-20);
target = down;
type = TopGhost;
}
);
layerId = "49A649E9-A574-4B20-B218-33A3EC71A7EA";
shapes = (
{
ref = N;
},
{
pos = (212,0);
ref = commaaccentcomb;
}
);
width = 670;
}
);
unicode = 325;
},
{
glyphname = Ndotaccent;
kernLeft = B_2nd;
kernRight = H_1st;
lastChange = "2023-05-04 08:27:41 +0000";
layers = (
{
background = {
shapes = (
{
closed = 1;
nodes = (
(389,696,o),
(426,736,o),
(426,785,cs),
(426,834,o),
(389,873,o),
(335,873,cs),
(281,873,o),
(244,834,o),
(244,785,cs),
(244,736,o),
(281,696,o),
(335,696,cs)
);
},
{
closed = 1;
nodes = (
(50,0,l),
(220,0,l),
(220,377,l),
(426,0,l),
(620,0,l),
(620,636,l),
(450,636,l),
(450,244,l),
(239,636,l),
(50,636,l)
);
}
);
};
hints = (
{
place = (50,170);
type = Stem;
},
{
place = (244,182);
type = Stem;
},
{
place = (450,170);
type = Stem;
},
{
horizontal = 1;
place = (696,177);
type = Stem;
},
{
horizontal = 1;
place = (0,21);
target = up;
type = BottomGhost;
},
{
horizontal = 1;
place = (636,-20);
target = down;
type = TopGhost;
}
);
layerId = "49A649E9-A574-4B20-B218-33A3EC71A7EA";
shapes = (
{
ref = N;
},
{
pos = (225,20);
ref = dotaccentcomb;
}
);
width = 670;
}
);
unicode = 7748;
},
{
glyphname = Ndotbelow;
kernLeft = uni1E24_2nd;
kernRight = uni1E241_1st;
lastChange = "2023-05-04 08:21:50 +0000";
layers = (
{
background = {
shapes = (
{
closed = 1;
nodes = (
(50,0,l),
(220,0,l),
(220,377,l),
(426,0,l),
(620,0,l),
(620,636,l),
(450,636,l),
(450,244,l),
(239,636,l),
(50,636,l)
);
},
{
closed = 1;
nodes = (
(379,-237,o),
(416,-197,o),
(416,-148,cs),
(416,-99,o),
(379,-60,o),
(325,-60,cs),
(271,-60,o),
(234,-99,o),
(234,-148,cs),
(234,-197,o),
(271,-237,o),
(325,-237,cs)
);
}
);
};
hints = (
{
place = (50,170);
type = Stem;
},
{
place = (234,182);
type = Stem;
},
{
place = (450,170);
type = Stem;
},
{
horizontal = 1;
place = (-237,177);
type = Stem;
},
{
horizontal = 1;
place = (0,21);
target = up;
type = BottomGhost;
},
{
horizontal = 1;
place = (636,-20);
target = down;
type = TopGhost;
}
);
layerId = "49A649E9-A574-4B20-B218-33A3EC71A7EA";
shapes = (
{
ref = N;
},
{
pos = (226,0);
ref = dotbelowcomb;
}
);
width = 670;
}
);
unicode = 7750;
},
{
glyphname = Nmacronbelow;
kernLeft = uni1E24_2nd;
kernRight = uni1E241_1st;
lastChange = "2023-05-04 08:27:21 +0000";
layers = (
{
background = {
shapes = (
{
closed = 1;
nodes = (
(50,0,l),
(220,0,l),
(220,377,l),
(426,0,l),
(620,0,l),
(620,636,l),
(450,636,l),
(450,244,l),
(239,636,l),
(50,636,l)
);
},
{
closed = 1;
nodes = (
(160,-210,l),
(510,-210,l),
(510,-80,l),
(160,-80,l)
);
}
);
};
hints = (
{
place = (50,170);
type = Stem;
},
{
place = (450,170);
type = Stem;
},
{
horizontal = 1;
place = (-210,130);
type = Stem;
},
{
horizontal = 1;
place = (0,21);
target = up;
type = BottomGhost;
},
{
horizontal = 1;
place = (636,-20);
target = down;
type = TopGhost;
}
);
layerId = "49A649E9-A574-4B20-B218-33A3EC71A7EA";
shapes = (
{
ref = N;
},
{
pos = (120,0);
ref = macronbelowcomb;
}
);
width = 670;
}
);
unicode = 7752;
},
{
glyphname = Ntilde;
kernLeft = B_2nd;
kernRight = H_1st;
lastChange = "2023-05-19 07:56:56 +0000";
layers = (
{
background = {
shapes = (
{
closed = 1;
nodes = (
(496,857,l),
(481,832,o),
(450,813,o),
(411,813,cs),
(387,813,o),
(358,820,o),
(334,826,cs),
(305,834,o),
(274,842,o),
(244,842,cs),
(172,842,o),
(120,796,o),
(102,737,c),
(185,681,l),
(200,706,o),
(231,725,o),
(271,725,cs),
(290,725,o),
(312,721,o),
(359,709,cs),
(380,703,o),
(408,696,o),
(436,696,cs),
(508,696,o),
(561,742,o),
(579,801,c)
);
},
{
closed = 1;
nodes = (
(50,0,l),
(220,0,l),
(220,377,l),
(426,0,l),
(620,0,l),
(620,636,l),
(450,636,l),
(450,244,l),
(239,636,l),
(50,636,l)
);
}
);
};
hints = (
{
place = (50,170);
type = Stem;
},
{
place = (450,170);
type = Stem;
},
{
horizontal = 1;
place = (696,117);
type = Stem;
},
{
horizontal = 1;
place = (725,117);
type = Stem;
},
{
horizontal = 1;
place = (0,21);
target = up;
type = BottomGhost;
},
{
horizontal = 1;
place = (636,-20);
target = down;
type = TopGhost;
}
);
layerId = "49A649E9-A574-4B20-B218-33A3EC71A7EA";
shapes = (
{
ref = N;
},
{
pos = (76,124);
ref = tildecomb;
}
);
width = 670;
}
);
unicode = 209;
},
{
glyphname = Eng;
kernLeft = K;
kernRight = H;
lastChange = "2023-05-04 08:30:25 +0000";
layers = (
{
anchors = (
{
name = bottom;
pos = (335,0);
},
{
name = top;
pos = (335,636);
}
);
background = {
shapes = (
{
closed = 1;
nodes = (
(450,-74,o),
(425,-96,o),
(391,-96,cs),
(365,-96,o),
(341,-84,o),
(320,-65,c),
(273,-188,l),
(311,-222,o),
(364,-242,o),
(423,-242,cs),
(563,-242,o),
(620,-130,o),
(620,-9,cs),
(620,636,l),
(460,636,l),
(460,242,l),
(224,636,l),
(50,636,l),
(50,0,l),
(220,0,l),
(220,377,l),
(388,97,ls),
(412,57,o),
(450,3,o),
(450,-40,cs)
);
}
);
};
hints = (
{
place = (50,170);
type = Stem;
},
{
place = (450,170);
type = Stem;
},
{
place = (460,160);
type = Stem;
},
{
horizontal = 1;
place = (-242,146);
type = Stem;
},
{
horizontal = 1;
place = (636,-20);
target = down;
type = TopGhost;
},
{
horizontal = 1;
place = (0,21);
target = up;
type = BottomGhost;
}
);
layerId = "49A649E9-A574-4B20-B218-33A3EC71A7EA";
shapes = (
{
closed = 1;
nodes = (
(563,-242,o),
(620,-130,o),
(620,-9,cs),
(620,636,l),
(460,636,l),
(460,242,l),
(224,636,l),
(50,636,l),
(50,0,l),
(220,0,l),
(220,377,l),
(388,97,ls),
(412,57,o),
(450,3,o),
(450,-40,cs),
(450,-74,o),
(425,-96,o),
(391,-96,cs),
(365,-96,o),
(341,-84,o),
(320,-65,c),
(273,-188,l),
(311,-222,o),
(364,-242,o),
(423,-242,cs)
);
}
);
width = 670;
}
);
unicode = 330;
},
{
glyphname = O;
kernLeft = O_2nd;
kernRight = O1_1st;
lastChange = "2023-05-04 08:30:25 +0000";
layers = (
{
anchors = (
{
name = bottom;
pos = (359,0);
},
{
name = center;
pos = (359,318);
},
{
name = ogonek;
pos = (646,10);
},
{
name = top;
pos = (359,636);
},
{
name = topleft;
pos = (20,636);
},
{
name = topright;
pos = (698,636);
}
);
background = {
shapes = (
{
closed = 1;
nodes = (
(40,117,o),
(163,-4,o),
(363,-4,cs),
(563,-4,o),
(678,117,o),
(678,317,cs),
(678,517,o),
(563,640,o),
(363,640,cs),
(163,640,o),
(40,517,o),
(40,317,cs)
);
},
{
closed = 1;
nodes = (
(272,140,o),
(216,200,o),
(216,316,cs),
(216,432,o),
(272,496,o),
(363,496,cs),
(453,496,o),
(502,432,o),
(502,316,cs),
(502,200,o),
(453,140,o),
(363,140,cs)
);
}
);
};
hints = (
{
place = (40,176);
type = Stem;
},
{
place = (502,176);
type = Stem;
},
{
horizontal = 1;
place = (-4,144);
type = Stem;
},
{
horizontal = 1;
place = (496,144);
type = Stem;
}
);
layerId = "49A649E9-A574-4B20-B218-33A3EC71A7EA";
shapes = (
{
closed = 1;
nodes = (
(563,-4,o),
(678,117,o),
(678,317,cs),
(678,517,o),
(563,640,o),
(363,640,cs),
(163,640,o),
(40,517,o),
(40,317,cs),
(40,117,o),
(163,-4,o),
(363,-4,cs)
);
},
{
closed = 1;
nodes = (
(272,140,o),
(216,200,o),
(216,316,cs),
(216,432,o),
(272,496,o),
(363,496,cs),
(453,496,o),
(502,432,o),
(502,316,cs),
(502,200,o),
(453,140,o),
(363,140,cs)
);
}
);
width = 718;
}
);
unicode = 79;
},
{
glyphname = Oacute;
kernLeft = O_2nd;
kernRight = O1_1st;
lastChange = "2023-05-04 08:12:54 +0000";
layers = (
{
background = {
shapes = (
{
closed = 1;
nodes = (
(535,797,l),
(464,920,l),
(224,770,l),
(284,670,l)
);
},
{
closed = 1;
nodes = (
(40,117,o),
(163,-4,o),
(363,-4,cs),
(563,-4,o),
(678,117,o),
(678,317,cs),
(678,517,o),
(563,640,o),
(363,640,cs),
(163,640,o),
(40,517,o),
(40,317,cs)
);
},
{
closed = 1;
nodes = (
(272,140,o),
(216,200,o),
(216,316,cs),
(216,432,o),
(272,496,o),
(363,496,cs),
(453,496,o),
(502,432,o),
(502,316,cs),
(502,200,o),
(453,140,o),
(363,140,cs)
);
}
);
};
hints = (
{
place = (40,176);
type = Stem;
},
{
place = (502,176);
type = Stem;
},
{
horizontal = 1;
place = (-4,144);
type = Stem;
},
{
horizontal = 1;
place = (496,144);
type = Stem;
}
);
layerId = "49A649E9-A574-4B20-B218-33A3EC71A7EA";
shapes = (
{
ref = O;
},
{
pos = (188,140);
ref = acutecomb;
}
);
width = 718;
}
);
unicode = 211;
},
{
glyphname = Obreve;
kernLeft = O;
kernRight = O1;
lastChange = "2023-05-04 08:46:16 +0000";
layers = (
{
background = {
shapes = (
{
closed = 1;
nodes = (
(158,808,l),
(186,731,o),
(261,684,o),
(359,684,cs),
(457,684,o),
(532,731,o),
(560,808,c),
(465,865,l),
(448,825,o),
(406,804,o),
(359,804,cs),
(312,804,o),
(270,825,o),
(253,865,c)
);
},
{
closed = 1;
nodes = (
(40,117,o),
(163,-4,o),
(363,-4,cs),
(563,-4,o),
(678,117,o),
(678,317,cs),
(678,517,o),
(563,640,o),
(363,640,cs),
(163,640,o),
(40,517,o),
(40,317,cs)
);
},
{
closed = 1;
nodes = (
(272,140,o),
(216,200,o),
(216,316,cs),
(216,432,o),
(272,496,o),
(363,496,cs),
(453,496,o),
(502,432,o),
(502,316,cs),
(502,200,o),
(453,140,o),
(363,140,cs)
);
}
);
};
hints = (
{
place = (40,176);
type = Stem;
},
{
place = (502,176);
type = Stem;
},
{
horizontal = 1;
place = (-4,144);
type = Stem;
},
{
horizontal = 1;
place = (496,144);
type = Stem;
},
{
horizontal = 1;
place = (684,120);
type = Stem;
}
);
layerId = "49A649E9-A574-4B20-B218-33A3EC71A7EA";
shapes = (
{
ref = O;
},
{
pos = (148,17);
ref = brevecomb;
}
);
width = 718;
}
);
unicode = 334;
},
{
glyphname = Ocircumflex;
kernLeft = O_2nd;
kernRight = O1_1st;
lastChange = "2023-05-04 08:47:02 +0000";
layers = (
{
background = {
shapes = (
{
closed = 1;
nodes = (
(224,668,l),
(355,786,l),
(485,669,l),
(580,765,l),
(419,891,l),
(289,891,l),
(128,765,l)
);
},
{
closed = 1;
nodes = (
(40,117,o),
(163,-4,o),
(363,-4,cs),
(563,-4,o),
(678,117,o),
(678,317,cs),
(678,517,o),
(563,640,o),
(363,640,cs),
(163,640,o),
(40,517,o),
(40,317,cs)
);
},
{
closed = 1;
nodes = (
(272,140,o),
(216,200,o),
(216,316,cs),
(216,432,o),
(272,496,o),
(363,496,cs),
(453,496,o),
(502,432,o),
(502,316,cs),
(502,200,o),
(453,140,o),
(363,140,cs)
);
}
);
};
hints = (
{
place = (40,176);
type = Stem;
},
{
place = (502,176);
type = Stem;
},
{
horizontal = 1;
place = (-4,144);
type = Stem;
},
{
horizontal = 1;
place = (496,144);
type = Stem;
},
{
horizontal = 1;
place = (891,-20);
target = down;
type = TopGhost;
}
);
layerId = "49A649E9-A574-4B20-B218-33A3EC71A7EA";
shapes = (
{
ref = O;
},
{
pos = (113,35);
ref = circumflexcomb;
}
);
width = 718;
}
);
unicode = 212;
},
{
glyphname = Ocircumflexacute;
kernLeft = O_2nd;
kernRight = O1_1st;
lastChange = "2023-05-04 08:49:37 +0000";
layers = (
{
background = {
shapes = (
{
closed = 1;
nodes = (
(483,877,l),
(574,806,l),
(718,957,l),
(603,1047,l)
);
},
{
closed = 1;
nodes = (
(224,658,l),
(355,776,l),
(485,659,l),
(580,755,l),
(419,881,l),
(289,881,l),
(128,755,l)
);
},
{
closed = 1;
nodes = (
(40,117,o),
(163,-4,o),
(363,-4,cs),
(563,-4,o),
(678,117,o),
(678,317,cs),
(678,517,o),
(563,640,o),
(363,640,cs),
(163,640,o),
(40,517,o),
(40,317,cs)
);
},
{
closed = 1;
nodes = (
(272,140,o),
(216,200,o),
(216,316,cs),
(216,432,o),
(272,496,o),
(363,496,cs),
(453,496,o),
(502,432,o),
(502,316,cs),
(502,200,o),
(453,140,o),
(363,140,cs)
);
}
);
};
hints = (
{
place = (40,176);
type = Stem;
},
{
place = (502,176);
type = Stem;
},
{
horizontal = 1;
place = (-4,144);
type = Stem;
},
{
horizontal = 1;
place = (496,144);
type = Stem;
}
);
layerId = "49A649E9-A574-4B20-B218-33A3EC71A7EA";
shapes = (
{
ref = O;
},
{
pos = (72,0);
ref = circumflexcomb_acutecomb;
}
);
width = 718;
}
);
unicode = 7888;
},
{
glyphname = Ocircumflexdotbelow;
kernLeft = uni1ECC_2nd;
kernRight = uni1ECC1_1st;
lastChange = "2023-05-04 08:47:02 +0000";
layers = (
{
background = {
shapes = (
{
closed = 1;
nodes = (
(224,668,l),
(355,786,l),
(485,669,l),
(580,765,l),
(419,891,l),
(289,891,l),
(128,765,l)
);
},
{
closed = 1;
nodes = (
(40,117,o),
(163,-4,o),
(363,-4,cs),
(563,-4,o),
(678,117,o),
(678,317,cs),
(678,517,o),
(563,640,o),
(363,640,cs),
(163,640,o),
(40,517,o),
(40,317,cs)
);
},
{
closed = 1;
nodes = (
(272,140,o),
(216,200,o),
(216,316,cs),
(216,432,o),
(272,496,o),
(363,496,cs),
(453,496,o),
(502,432,o),
(502,316,cs),
(502,200,o),
(453,140,o),
(363,140,cs)
);
},
{
closed = 1;
nodes = (
(406,-227,o),
(443,-188,o),
(443,-141,cs),
(443,-94,o),
(406,-55,o),
(354,-55,cs),
(302,-55,o),
(265,-94,o),
(265,-141,cs),
(265,-188,o),
(302,-227,o),
(354,-227,cs)
);
}
);
};
hints = (
{
place = (40,176);
type = Stem;
},
{
place = (265,178);
type = Stem;
},
{
place = (502,176);
type = Stem;
},
{
horizontal = 1;
place = (-227,172);
type = Stem;
},
{
horizontal = 1;
place = (-4,144);
type = Stem;
},
{
horizontal = 1;
place = (496,144);
type = Stem;
},
{
horizontal = 1;
place = (891,-20);
target = down;
type = TopGhost;
}
);
layerId = "49A649E9-A574-4B20-B218-33A3EC71A7EA";
shapes = (
{
ref = O;
},
{
pos = (250,0);
ref = dotbelowcomb;
},
{
pos = (113,35);
ref = circumflexcomb;
}
);
width = 718;
}
);
unicode = 7896;
},
{
glyphname = Ocircumflexgrave;
kernLeft = O_2nd;
kernRight = O1_1st;
lastChange = "2023-05-04 08:49:37 +0000";
layers = (
{
background = {
shapes = (
{
closed = 1;
nodes = (
(438,903,l),
(603,774,l),
(684,858,l),
(546,1015,l)
);
},
{
closed = 1;
nodes = (
(224,648,l),
(355,766,l),
(485,649,l),
(580,745,l),
(419,871,l),
(289,871,l),
(128,745,l)
);
},
{
closed = 1;
nodes = (
(40,117,o),
(163,-4,o),
(363,-4,cs),
(563,-4,o),
(678,117,o),
(678,317,cs),
(678,517,o),
(563,640,o),
(363,640,cs),
(163,640,o),
(40,517,o),
(40,317,cs)
);
},
{
closed = 1;
nodes = (
(272,140,o),
(216,200,o),
(216,316,cs),
(216,432,o),
(272,496,o),
(363,496,cs),
(453,496,o),
(502,432,o),
(502,316,cs),
(502,200,o),
(453,140,o),
(363,140,cs)
);
}
);
};
hints = (
{
place = (40,176);
type = Stem;
},
{
place = (502,176);
type = Stem;
},
{
horizontal = 1;
place = (-4,144);
type = Stem;
},
{
horizontal = 1;
place = (496,144);
type = Stem;
}
);
layerId = "49A649E9-A574-4B20-B218-33A3EC71A7EA";
shapes = (
{
ref = O;
},
{
pos = (128,1);
ref = circumflexcomb_gravecomb;
}
);
width = 718;
}
);
unicode = 7890;
},
{
glyphname = Ocircumflexhookabove;
kernLeft = O_2nd;
kernRight = O1_1st;
lastChange = "2023-05-04 08:49:37 +0000";
layers = (
{
background = {
shapes = (
{
closed = 1;
nodes = (
(511,841,l),
(595,841,l),
(595,856,ls),
(595,869,o),
(604,880,o),
(622,894,cs),
(645,912,ls),
(671,932,o),
(694,954,o),
(694,987,cs),
(694,1034,o),
(648,1072,o),
(580,1072,cs),
(532,1072,o),
(492,1053,o),
(469,1033,c),
(499,971,l),
(519,985,o),
(540,993,o),
(563,993,cs),
(586,993,o),
(595,985,o),
(595,975,cs),
(595,967,o),
(590,960,o),
(577,950,cs),
(554,932,ls),
(522,907,o),
(511,889,o),
(511,859,cs)
);
},
{
closed = 1;
nodes = (
(224,658,l),
(355,776,l),
(485,659,l),
(580,755,l),
(419,881,l),
(289,881,l),
(128,755,l)
);
},
{
closed = 1;
nodes = (
(40,117,o),
(163,-4,o),
(363,-4,cs),
(563,-4,o),
(678,117,o),
(678,317,cs),
(678,517,o),
(563,640,o),
(363,640,cs),
(163,640,o),
(40,517,o),
(40,317,cs)
);
},
{
closed = 1;
nodes = (
(272,140,o),
(216,200,o),
(216,316,cs),
(216,432,o),
(272,496,o),
(363,496,cs),
(453,496,o),
(502,432,o),
(502,316,cs),
(502,200,o),
(453,140,o),
(363,140,cs)
);
}
);
};
hints = (
{
place = (40,176);
type = Stem;
},
{
place = (502,176);
type = Stem;
},
{
horizontal = 1;
place = (-4,144);
type = Stem;
},
{
horizontal = 1;
place = (496,144);
type = Stem;
},
{
horizontal = 1;
place = (841,231);
type = Stem;
},
{
horizontal = 1;
place = (993,79);
type = Stem;
}
);
layerId = "49A649E9-A574-4B20-B218-33A3EC71A7EA";
shapes = (
{
ref = O;
},
{
pos = (113,35);
ref = circumflexcomb_hookabovecomb;
}
);
width = 718;
}
);
unicode = 7892;
},
{
glyphname = Ocircumflextilde;
kernLeft = O_2nd;
kernRight = O1_1st;
lastChange = "2023-05-04 08:49:37 +0000";
layers = (
{
background = {
shapes = (
{
closed = 1;
nodes = (
(495,1082,l),
(480,1057,o),
(454,1038,o),
(415,1038,cs),
(390,1038,o),
(365,1045,o),
(348,1050,cs),
(318,1059,o),
(296,1067,o),
(267,1067,cs),
(196,1067,o),
(149,1021,o),
(131,962,c),
(214,906,l),
(229,931,o),
(255,950,o),
(294,950,cs),
(317,950,o),
(338,944,o),
(358,937,cs),
(401,923,o),
(420,921,o),
(435,921,cs),
(512,921,o),
(560,967,o),
(578,1026,c)
);
},
{
closed = 1;
nodes = (
(224,658,l),
(355,776,l),
(485,659,l),
(580,755,l),
(419,881,l),
(289,881,l),
(128,755,l)
);
},
{
closed = 1;
nodes = (
(40,117,o),
(163,-4,o),
(363,-4,cs),
(563,-4,o),
(678,117,o),
(678,317,cs),
(678,517,o),
(563,640,o),
(363,640,cs),
(163,640,o),
(40,517,o),
(40,317,cs)
);
},
{
closed = 1;
nodes = (
(272,140,o),
(216,200,o),
(216,316,cs),
(216,432,o),
(272,496,o),
(363,496,cs),
(453,496,o),
(502,432,o),
(502,316,cs),
(502,200,o),
(453,140,o),
(363,140,cs)
);
}
);
};
hints = (
{
place = (40,176);
type = Stem;
},
{
place = (502,176);
type = Stem;
},
{
horizontal = 1;
place = (-4,144);
type = Stem;
},
{
horizontal = 1;
place = (496,144);
type = Stem;
},
{
horizontal = 1;
place = (921,117);
type = Stem;
},
{
horizontal = 1;
place = (950,117);
type = Stem;
}
);
layerId = "49A649E9-A574-4B20-B218-33A3EC71A7EA";
shapes = (
{
ref = O;
},
{
pos = (98,0);
ref = circumflexcomb_tildecomb;
}
);
width = 718;
}
);
unicode = 7894;
},
{
glyphname = Odieresis;
kernLeft = O_2nd;
kernRight = O1_1st;
lastChange = "2023-05-04 08:22:07 +0000";
layers = (
{
background = {
shapes = (
{
closed = 1;
nodes = (
(309,697,o),
(345,735,o),
(345,784,cs),
(345,833,o),
(309,871,o),
(255,871,cs),
(201,871,o),
(165,833,o),
(165,784,cs),
(165,735,o),
(201,697,o),
(255,697,cs)
);
},
{
closed = 1;
nodes = (
(530,697,o),
(566,735,o),
(566,784,cs),
(566,833,o),
(530,871,o),
(476,871,cs),
(422,871,o),
(386,833,o),
(386,784,cs),
(386,735,o),
(422,697,o),
(476,697,cs)
);
},
{
closed = 1;
nodes = (
(40,117,o),
(163,-4,o),
(363,-4,cs),
(563,-4,o),
(678,117,o),
(678,317,cs),
(678,517,o),
(563,640,o),
(363,640,cs),
(163,640,o),
(40,517,o),
(40,317,cs)
);
},
{
closed = 1;
nodes = (
(272,140,o),
(216,200,o),
(216,316,cs),
(216,432,o),
(272,496,o),
(363,496,cs),
(453,496,o),
(502,432,o),
(502,316,cs),
(502,200,o),
(453,140,o),
(363,140,cs)
);
}
);
};
hints = (
{
place = (40,176);
type = Stem;
},
{
place = (165,180);
type = Stem;
},
{
place = (386,180);
type = Stem;
},
{
place = (502,176);
type = Stem;
},
{
horizontal = 1;
place = (-4,144);
type = Stem;
},
{
horizontal = 1;
place = (496,144);
type = Stem;
},
{
horizontal = 1;
place = (697,174);
type = Stem;
}
);
layerId = "49A649E9-A574-4B20-B218-33A3EC71A7EA";
shapes = (
{
ref = O;
},
{
pos = (138,140);
ref = dieresiscomb;
}
);
width = 718;
}
);
unicode = 214;
},
{
glyphname = Odotbelow;
kernLeft = uni1ECC_2nd;
kernRight = uni1ECC1_1st;
lastChange = "2023-05-04 08:21:50 +0000";
layers = (
{
background = {
shapes = (
{
closed = 1;
nodes = (
(40,117,o),
(163,-4,o),
(363,-4,cs),
(563,-4,o),
(678,117,o),
(678,317,cs),
(678,517,o),
(563,640,o),
(363,640,cs),
(163,640,o),
(40,517,o),
(40,317,cs)
);
},
{
closed = 1;
nodes = (
(272,140,o),
(216,200,o),
(216,316,cs),
(216,432,o),
(272,496,o),
(363,496,cs),
(453,496,o),
(502,432,o),
(502,316,cs),
(502,200,o),
(453,140,o),
(363,140,cs)
);
},
{
closed = 1;
nodes = (
(405,-227,o),
(442,-188,o),
(442,-141,cs),
(442,-94,o),
(405,-55,o),
(353,-55,cs),
(301,-55,o),
(264,-94,o),
(264,-141,cs),
(264,-188,o),
(301,-227,o),
(353,-227,cs)
);
}
);
};
hints = (
{
place = (40,176);
type = Stem;
},
{
place = (264,178);
type = Stem;
},
{
place = (502,176);
type = Stem;
},
{
horizontal = 1;
place = (-227,172);
type = Stem;
},
{
horizontal = 1;
place = (-4,144);
type = Stem;
},
{
horizontal = 1;
place = (496,144);
type = Stem;
}
);
layerId = "49A649E9-A574-4B20-B218-33A3EC71A7EA";
shapes = (
{
ref = O;
},
{
pos = (250,0);
ref = dotbelowcomb;
}
);
width = 718;
}
);
unicode = 7884;
},
{
glyphname = Ograve;
kernLeft = O_2nd;
kernRight = O1_1st;
lastChange = "2023-05-04 08:28:41 +0000";
layers = (
{
background = {
shapes = (
{
closed = 1;
nodes = (
(200,797,l),
(451,670,l),
(511,770,l),
(271,920,l)
);
},
{
closed = 1;
nodes = (
(40,117,o),
(163,-4,o),
(363,-4,cs),
(563,-4,o),
(678,117,o),
(678,317,cs),
(678,517,o),
(563,640,o),
(363,640,cs),
(163,640,o),
(40,517,o),
(40,317,cs)
);
},
{
closed = 1;
nodes = (
(272,140,o),
(216,200,o),
(216,316,cs),
(216,432,o),
(272,496,o),
(363,496,cs),
(453,496,o),
(502,432,o),
(502,316,cs),
(502,200,o),
(453,140,o),
(363,140,cs)
);
}
);
};
hints = (
{
place = (40,176);
type = Stem;
},
{
place = (502,176);
type = Stem;
},
{
horizontal = 1;
place = (-4,144);
type = Stem;
},
{
horizontal = 1;
place = (496,144);
type = Stem;
}
);
layerId = "49A649E9-A574-4B20-B218-33A3EC71A7EA";
shapes = (
{
ref = O;
},
{
pos = (187,135);
ref = gravecomb;
}
);
width = 718;
}
);
unicode = 210;
},
{
glyphname = Ohookabove;
kernLeft = O_2nd;
kernRight = O1_1st;
lastChange = "2023-05-04 08:41:32 +0000";
layers = (
{
background = {
shapes = (
{
closed = 1;
nodes = (
(314,676,l),
(398,676,l),
(398,691,ls),
(398,704,o),
(407,715,o),
(425,729,cs),
(448,747,ls),
(474,767,o),
(497,789,o),
(497,822,cs),
(497,869,o),
(451,907,o),
(383,907,cs),
(335,907,o),
(295,888,o),
(272,868,c),
(302,806,l),
(322,820,o),
(343,828,o),
(366,828,cs),
(389,828,o),
(398,820,o),
(398,810,cs),
(398,802,o),
(393,795,o),
(380,785,cs),
(357,767,ls),
(325,742,o),
(314,724,o),
(314,694,cs)
);
},
{
closed = 1;
nodes = (
(40,117,o),
(163,-4,o),
(363,-4,cs),
(563,-4,o),
(678,117,o),
(678,317,cs),
(678,517,o),
(563,640,o),
(363,640,cs),
(163,640,o),
(40,517,o),
(40,317,cs)
);
},
{
closed = 1;
nodes = (
(272,140,o),
(216,200,o),
(216,316,cs),
(216,432,o),
(272,496,o),
(363,496,cs),
(453,496,o),
(502,432,o),
(502,316,cs),
(502,200,o),
(453,140,o),
(363,140,cs)
);
}
);
};
hints = (
{
place = (40,176);
type = Stem;
},
{
place = (502,176);
type = Stem;
},
{
horizontal = 1;
place = (-4,144);
type = Stem;
},
{
horizontal = 1;
place = (496,144);
type = Stem;
},
{
horizontal = 1;
place = (676,231);
type = Stem;
},
{
horizontal = 1;
place = (828,79);
type = Stem;
}
);
layerId = "49A649E9-A574-4B20-B218-33A3EC71A7EA";
shapes = (
{
ref = O;
},
{
pos = (254,155);
ref = hookabovecomb;
}
);
width = 718;
}
);
unicode = 7886;
},
{
glyphname = Ohorn;
kernLeft = uni1EDA_2nd;
kernRight = uni1EDA1_1st;
lastChange = "2023-05-04 08:30:25 +0000";
layers = (
{
anchors = (
{
name = bottom;
pos = (363,6);
},
{
name = top;
pos = (363,640);
}
);
background = {
shapes = (
{
closed = 1;
nodes = (
(535,797,l),
(464,920,l),
(224,770,l),
(284,670,l)
);
},
{
closed = 1;
nodes = (
(40,117,o),
(163,-4,o),
(363,-4,cs),
(563,-4,o),
(678,117,o),
(678,317,cs),
(678,359,o),
(673,399,o),
(663,434,c),
(760,481,o),
(806,576,o),
(806,690,c),
(655,706,l),
(652,652,o),
(643,583,o),
(606,542,c),
(552,605,o),
(470,640,o),
(363,640,cs),
(163,640,o),
(40,517,o),
(40,317,cs)
);
},
{
closed = 1;
nodes = (
(272,140,o),
(216,200,o),
(216,316,cs),
(216,432,o),
(272,496,o),
(363,496,cs),
(453,496,o),
(502,432,o),
(502,316,cs),
(502,200,o),
(453,140,o),
(363,140,cs)
);
}
);
};
hints = (
{
place = (40,176);
type = Stem;
},
{
place = (502,176);
type = Stem;
},
{
place = (655,151);
type = Stem;
},
{
horizontal = 1;
place = (-4,144);
type = Stem;
},
{
horizontal = 1;
place = (496,144);
type = Stem;
}
);
layerId = "49A649E9-A574-4B20-B218-33A3EC71A7EA";
shapes = (
{
closed = 1;
nodes = (
(563,-4,o),
(678,117,o),
(678,317,cs),
(678,359,o),
(673,399,o),
(663,434,c),
(760,481,o),
(806,576,o),
(806,690,c),
(655,706,l),
(652,652,o),
(643,583,o),
(606,542,c),
(552,605,o),
(470,640,o),
(363,640,cs),
(163,640,o),
(40,517,o),
(40,317,cs),
(40,117,o),
(163,-4,o),
(363,-4,cs)
);
},
{
closed = 1;
nodes = (
(272,140,o),
(216,200,o),
(216,316,cs),
(216,432,o),
(272,496,o),
(363,496,cs),
(453,496,o),
(502,432,o),
(502,316,cs),
(502,200,o),
(453,140,o),
(363,140,cs)
);
}
);
width = 770;
}
);
unicode = 416;
},
{
glyphname = Ohornacute;
kernLeft = uni1EDA_2nd;
kernRight = uni1EDA1_1st;
lastChange = "2023-05-04 08:29:27 +0000";
layers = (
{
background = {
shapes = (
{
closed = 1;
nodes = (
(535,797,l),
(464,920,l),
(224,770,l),
(284,670,l)
);
},
{
closed = 1;
nodes = (
(40,117,o),
(163,-4,o),
(363,-4,cs),
(563,-4,o),
(678,117,o),
(678,317,cs),
(678,359,o),
(673,399,o),
(663,434,c),
(760,481,o),
(806,576,o),
(806,690,c),
(655,706,l),
(652,652,o),
(643,583,o),
(606,542,c),
(552,605,o),
(470,640,o),
(363,640,cs),
(163,640,o),
(40,517,o),
(40,317,cs)
);
},
{
closed = 1;
nodes = (
(272,140,o),
(216,200,o),
(216,316,cs),
(216,432,o),
(272,496,o),
(363,496,cs),
(453,496,o),
(502,432,o),
(502,316,cs),
(502,200,o),
(453,140,o),
(363,140,cs)
);
}
);
};
hints = (
{
place = (40,176);
type = Stem;
},
{
place = (502,176);
type = Stem;
},
{
place = (655,151);
type = Stem;
},
{
horizontal = 1;
place = (-4,144);
type = Stem;
},
{
horizontal = 1;
place = (496,144);
type = Stem;
}
);
layerId = "49A649E9-A574-4B20-B218-33A3EC71A7EA";
shapes = (
{
ref = Ohorn;
},
{
pos = (192,144);
ref = acutecomb;
}
);
width = 770;
}
);
unicode = 7898;
},
{
glyphname = Ohorndotbelow;
lastChange = "2023-05-04 08:29:44 +0000";
layers = (
{
background = {
shapes = (
{
closed = 1;
nodes = (
(40,117,o),
(163,-4,o),
(363,-4,cs),
(563,-4,o),
(678,117,o),
(678,317,cs),
(678,359,o),
(673,398,o),
(663,433,c),
(761,479,o),
(807,576,o),
(807,690,c),
(656,706,l),
(653,652,o),
(645,582,o),
(607,541,c),
(553,605,o),
(470,640,o),
(363,640,cs),
(163,640,o),
(40,517,o),
(40,317,cs)
);
},
{
closed = 1;
nodes = (
(272,140,o),
(216,200,o),
(216,316,cs),
(216,432,o),
(272,496,o),
(363,496,cs),
(453,496,o),
(502,432,o),
(502,316,cs),
(502,200,o),
(453,140,o),
(363,140,cs)
);
},
{
closed = 1;
nodes = (
(406,-227,o),
(443,-188,o),
(443,-141,cs),
(443,-94,o),
(406,-55,o),
(354,-55,cs),
(302,-55,o),
(265,-94,o),
(265,-141,cs),
(265,-188,o),
(302,-227,o),
(354,-227,cs)
);
}
);
};
hints = (
{
place = (40,176);
type = Stem;
},
{
place = (265,178);
type = Stem;
},
{
place = (502,176);
type = Stem;
},
{
place = (656,151);
type = Stem;
},
{
horizontal = 1;
place = (-227,172);
type = Stem;
},
{
horizontal = 1;
place = (-4,144);
type = Stem;
},
{
horizontal = 1;
place = (496,144);
type = Stem;
}
);
layerId = "49A649E9-A574-4B20-B218-33A3EC71A7EA";
shapes = (
{
ref = Ohorn;
},
{
pos = (254,6);
ref = dotbelowcomb;
}
);
width = 770;
}
);
unicode = 7906;
},
{
glyphname = Ohorngrave;
kernLeft = uni1EDA_2nd;
kernRight = uni1EDA1_1st;
lastChange = "2023-05-04 08:29:49 +0000";
layers = (
{
background = {
shapes = (
{
closed = 1;
nodes = (
(190,797,l),
(441,670,l),
(501,770,l),
(261,920,l)
);
},
{
closed = 1;
nodes = (
(40,117,o),
(163,-4,o),
(363,-4,cs),
(563,-4,o),
(678,117,o),
(678,317,cs),
(678,359,o),
(673,398,o),
(663,433,c),
(761,479,o),
(807,576,o),
(807,690,c),
(656,706,l),
(653,652,o),
(645,582,o),
(607,541,c),
(553,605,o),
(470,640,o),
(363,640,cs),
(163,640,o),
(40,517,o),
(40,317,cs)
);
},
{
closed = 1;
nodes = (
(272,140,o),
(216,200,o),
(216,316,cs),
(216,432,o),
(272,496,o),
(363,496,cs),
(453,496,o),
(502,432,o),
(502,316,cs),
(502,200,o),
(453,140,o),
(363,140,cs)
);
}
);
};
hints = (
{
place = (40,176);
type = Stem;
},
{
place = (502,176);
type = Stem;
},
{
place = (656,151);
type = Stem;
},
{
horizontal = 1;
place = (-4,144);
type = Stem;
},
{
horizontal = 1;
place = (496,144);
type = Stem;
}
);
layerId = "49A649E9-A574-4B20-B218-33A3EC71A7EA";
shapes = (
{
ref = Ohorn;
},
{
pos = (191,139);
ref = gravecomb;
}
);
width = 770;
}
);
unicode = 7900;
},
{
glyphname = Ohornhookabove;
kernLeft = uni1EDA_2nd;
kernRight = uni1EDA1_1st;
lastChange = "2023-05-04 08:41:32 +0000";
layers = (
{
background = {
shapes = (
{
closed = 1;
nodes = (
(315,676,l),
(399,676,l),
(399,691,ls),
(399,704,o),
(408,715,o),
(426,729,cs),
(449,747,ls),
(475,767,o),
(498,789,o),
(498,822,cs),
(498,869,o),
(452,907,o),
(384,907,cs),
(336,907,o),
(296,888,o),
(273,868,c),
(303,806,l),
(323,820,o),
(344,828,o),
(367,828,cs),
(390,828,o),
(399,820,o),
(399,810,cs),
(399,802,o),
(394,795,o),
(381,785,cs),
(358,767,ls),
(326,742,o),
(315,724,o),
(315,694,cs)
);
},
{
closed = 1;
nodes = (
(40,117,o),
(163,-4,o),
(363,-4,cs),
(563,-4,o),
(678,117,o),
(678,317,cs),
(678,359,o),
(673,398,o),
(663,433,c),
(761,479,o),
(807,576,o),
(807,690,c),
(656,706,l),
(653,652,o),
(645,582,o),
(607,541,c),
(553,605,o),
(470,640,o),
(363,640,cs),
(163,640,o),
(40,517,o),
(40,317,cs)
);
},
{
closed = 1;
nodes = (
(272,140,o),
(216,200,o),
(216,316,cs),
(216,432,o),
(272,496,o),
(363,496,cs),
(453,496,o),
(502,432,o),
(502,316,cs),
(502,200,o),
(453,140,o),
(363,140,cs)
);
}
);
};
hints = (
{
place = (40,176);
type = Stem;
},
{
place = (502,176);
type = Stem;
},
{
place = (656,151);
type = Stem;
},
{
horizontal = 1;
place = (-4,144);
type = Stem;
},
{
horizontal = 1;
place = (496,144);
type = Stem;
},
{
horizontal = 1;
place = (676,231);
type = Stem;
},
{
horizontal = 1;
place = (828,79);
type = Stem;
}
);
layerId = "49A649E9-A574-4B20-B218-33A3EC71A7EA";
shapes = (
{
ref = Ohorn;
},
{
pos = (258,159);
ref = hookabovecomb;
}
);
width = 770;
}
);
unicode = 7902;
},
{
glyphname = Ohorntilde;
kernLeft = uni1EDA_2nd;
kernRight = uni1EDA1_1st;
lastChange = "2023-05-19 07:56:56 +0000";
layers = (
{
background = {
shapes = (
{
closed = 1;
nodes = (
(510,857,l),
(495,832,o),
(464,813,o),
(425,813,cs),
(401,813,o),
(372,820,o),
(348,826,cs),
(319,834,o),
(288,842,o),
(258,842,cs),
(186,842,o),
(134,796,o),
(116,737,c),
(199,681,l),
(214,706,o),
(245,725,o),
(285,725,cs),
(304,725,o),
(326,721,o),
(373,709,cs),
(394,703,o),
(422,696,o),
(450,696,cs),
(522,696,o),
(575,742,o),
(593,801,c)
);
},
{
closed = 1;
nodes = (
(40,117,o),
(163,-4,o),
(363,-4,cs),
(563,-4,o),
(678,117,o),
(678,317,cs),
(678,359,o),
(673,398,o),
(663,433,c),
(761,479,o),
(807,576,o),
(807,690,c),
(656,706,l),
(653,652,o),
(645,582,o),
(607,541,c),
(553,605,o),
(470,640,o),
(363,640,cs),
(163,640,o),
(40,517,o),
(40,317,cs)
);
},
{
closed = 1;
nodes = (
(272,140,o),
(216,200,o),
(216,316,cs),
(216,432,o),
(272,496,o),
(363,496,cs),
(453,496,o),
(502,432,o),
(502,316,cs),
(502,200,o),
(453,140,o),
(363,140,cs)
);
}
);
};
hints = (
{
place = (40,176);
type = Stem;
},
{
place = (502,176);
type = Stem;
},
{
place = (656,151);
type = Stem;
},
{
horizontal = 1;
place = (-4,144);
type = Stem;
},
{
horizontal = 1;
place = (496,144);
type = Stem;
},
{
horizontal = 1;
place = (696,117);
type = Stem;
},
{
horizontal = 1;
place = (725,117);
type = Stem;
}
);
layerId = "49A649E9-A574-4B20-B218-33A3EC71A7EA";
shapes = (
{
ref = Ohorn;
},
{
pos = (104,128);
ref = tildecomb;
}
);
width = 770;
}
);
unicode = 7904;
},
{
glyphname = Ohungarumlaut;
kernLeft = O;
kernRight = O1;
lastChange = "2023-05-04 08:30:16 +0000";
layers = (
{
background = {
shapes = (
{
closed = 1;
nodes = (
(146,748,l),
(235,676,l),
(422,868,l),
(298,965,l)
);
},
{
closed = 1;
nodes = (
(396,748,l),
(485,676,l),
(672,868,l),
(548,965,l)
);
},
{
closed = 1;
nodes = (
(40,117,o),
(163,-4,o),
(363,-4,cs),
(563,-4,o),
(678,117,o),
(678,317,cs),
(678,517,o),
(563,640,o),
(363,640,cs),
(163,640,o),
(40,517,o),
(40,317,cs)
);
},
{
closed = 1;
nodes = (
(272,140,o),
(216,200,o),
(216,316,cs),
(216,432,o),
(272,496,o),
(363,496,cs),
(453,496,o),
(502,432,o),
(502,316,cs),
(502,200,o),
(453,140,o),
(363,140,cs)
);
}
);
};
hints = (
{
place = (40,176);
type = Stem;
},
{
place = (502,176);
type = Stem;
},
{
horizontal = 1;
place = (-4,144);
type = Stem;
},
{
horizontal = 1;
place = (496,144);
type = Stem;
}
);
layerId = "49A649E9-A574-4B20-B218-33A3EC71A7EA";
shapes = (
{
ref = O;
},
{
pos = (136,134);
ref = hungarumlautcomb;
}
);
width = 718;
}
);
unicode = 336;
},
{
glyphname = Omacron;
kernLeft = O;
kernRight = O1;
lastChange = "2023-05-04 08:22:47 +0000";
layers = (
{
background = {
shapes = (
{
closed = 1;
nodes = (
(188,682,l),
(538,682,l),
(538,822,l),
(188,822,l)
);
},
{
closed = 1;
nodes = (
(40,117,o),
(163,-4,o),
(363,-4,cs),
(563,-4,o),
(678,117,o),
(678,317,cs),
(678,517,o),
(563,640,o),
(363,640,cs),
(163,640,o),
(40,517,o),
(40,317,cs)
);
},
{
closed = 1;
nodes = (
(272,140,o),
(216,200,o),
(216,316,cs),
(216,432,o),
(272,496,o),
(363,496,cs),
(453,496,o),
(502,432,o),
(502,316,cs),
(502,200,o),
(453,140,o),
(363,140,cs)
);
}
);
};
hints = (
{
place = (40,176);
type = Stem;
},
{
place = (502,176);
type = Stem;
},
{
horizontal = 1;
place = (-4,144);
type = Stem;
},
{
horizontal = 1;
place = (496,144);
type = Stem;
},
{
horizontal = 1;
place = (682,140);
type = Stem;
}
);
layerId = "49A649E9-A574-4B20-B218-33A3EC71A7EA";
shapes = (
{
ref = O;
},
{
pos = (164,20);
ref = macroncomb;
}
);
width = 718;
}
);
unicode = 332;
},
{
glyphname = Oslash;
lastChange = "2023-05-04 08:30:25 +0000";
layers = (
{
anchors = (
{
name = bottom;
pos = (359,0);
},
{
name = top;
pos = (359,636);
}
);
background = {
shapes = (
{
closed = 1;
nodes = (
(141,-49,l),
(262,-98,l),
(301,0,l),
(321,-3,o),
(341,-4,o),
(360,-4,cs),
(563,-4,o),
(678,117,o),
(678,317,cs),
(678,448,o),
(628,546,o),
(538,598,c),
(572,685,l),
(451,734,l),
(413,637,l),
(397,639,o),
(380,640,o),
(363,640,cs),
(163,640,o),
(40,517,o),
(40,317,cs),
(40,190,o),
(90,95,o),
(177,42,c)
);
},
{
closed = 1;
nodes = (
(241,204,l),
(225,233,o),
(216,270,o),
(216,316,cs),
(216,429,o),
(269,493,o),
(357,496,c)
);
},
{
closed = 1;
nodes = (
(474,438,l),
(493,408,o),
(502,367,o),
(502,316,cs),
(502,215,o),
(467,140,o),
(356,140,c)
);
}
);
};
hints = (
{
place = (40,176);
type = Stem;
},
{
place = (502,176);
type = Stem;
},
{
horizontal = 1;
place = (-4,144);
type = Stem;
},
{
horizontal = 1;
place = (496,144);
type = Stem;
}
);
layerId = "49A649E9-A574-4B20-B218-33A3EC71A7EA";
shapes = (
{
closed = 1;
nodes = (
(301,0,l),
(321,-3,o),
(341,-4,o),
(360,-4,cs),
(563,-4,o),
(678,117,o),
(678,317,cs),
(678,448,o),
(628,546,o),
(538,598,c),
(572,685,l),
(451,734,l),
(413,637,l),
(397,639,o),
(380,640,o),
(363,640,cs),
(163,640,o),
(40,517,o),
(40,317,cs),
(40,190,o),
(90,95,o),
(177,42,c),
(141,-49,l),
(262,-98,l)
);
},
{
closed = 1;
nodes = (
(225,233,o),
(216,270,o),
(216,316,cs),
(216,429,o),
(269,493,o),
(357,496,c),
(241,204,l)
);
},
{
closed = 1;
nodes = (
(474,438,l),
(493,408,o),
(502,367,o),
(502,316,cs),
(502,215,o),
(467,140,o),
(356,140,c)
);
}
);
width = 718;
}
);
unicode = 216;
},
{
glyphname = Otilde;
kernLeft = O_2nd;
kernRight = O1_1st;
lastChange = "2023-05-19 07:56:56 +0000";
layers = (
{
background = {
shapes = (
{
closed = 1;
nodes = (
(509,857,l),
(494,832,o),
(463,813,o),
(424,813,cs),
(400,813,o),
(371,820,o),
(347,826,cs),
(318,834,o),
(287,842,o),
(257,842,cs),
(185,842,o),
(133,796,o),
(115,737,c),
(198,681,l),
(213,706,o),
(244,725,o),
(284,725,cs),
(303,725,o),
(325,721,o),
(372,709,cs),
(393,703,o),
(421,696,o),
(449,696,cs),
(521,696,o),
(574,742,o),
(592,801,c)
);
},
{
closed = 1;
nodes = (
(40,117,o),
(163,-4,o),
(363,-4,cs),
(563,-4,o),
(678,117,o),
(678,317,cs),
(678,517,o),
(563,640,o),
(363,640,cs),
(163,640,o),
(40,517,o),
(40,317,cs)
);
},
{
closed = 1;
nodes = (
(272,140,o),
(216,200,o),
(216,316,cs),
(216,432,o),
(272,496,o),
(363,496,cs),
(453,496,o),
(502,432,o),
(502,316,cs),
(502,200,o),
(453,140,o),
(363,140,cs)
);
}
);
};
hints = (
{
place = (40,176);
type = Stem;
},
{
place = (502,176);
type = Stem;
},
{
horizontal = 1;
place = (-4,144);
type = Stem;
},
{
horizontal = 1;
place = (496,144);
type = Stem;
},
{
horizontal = 1;
place = (696,117);
type = Stem;
},
{
horizontal = 1;
place = (725,117);
type = Stem;
}
);
layerId = "49A649E9-A574-4B20-B218-33A3EC71A7EA";
shapes = (
{
ref = O;
},
{
pos = (100,124);
ref = tildecomb;
}
);
width = 718;
}
);
unicode = 213;
},
{
glyphname = OE;
lastChange = "2023-05-04 08:30:25 +0000";
layers = (
{
anchors = (
{
name = bottom;
pos = (483,0);
},
{
name = top;
pos = (483,636);
}
);
background = {
anchors = (
{
name = caret_;
pos = (516,0);
}
);
shapes = (
{
closed = 1;
nodes = (
(422,-24,o),
(473,-15,o),
(515,0,c),
(926,0,l),
(926,130,l),
(642,130,l),
(642,260,l),
(881,260,l),
(881,388,l),
(642,388,l),
(642,507,l),
(920,507,l),
(920,636,l),
(513,636,l),
(471,651,o),
(420,660,o),
(365,660,cs),
(163,660,o),
(40,537,o),
(40,317,cs),
(40,97,o),
(163,-24,o),
(367,-24,cs)
);
},
{
closed = 1;
nodes = (
(216,442,o),
(282,516,o),
(371,516,cs),
(421,516,o),
(472,492,o),
(472,457,cs),
(472,195,ls),
(472,149,o),
(430,120,o),
(372,120,cs),
(282,120,o),
(216,190,o),
(216,316,cs)
);
}
);
};
hints = (
{
place = (40,176);
type = Stem;
},
{
place = (472,170);
type = Stem;
},
{
horizontal = 1;
place = (-24,144);
type = Stem;
},
{
horizontal = 1;
place = (0,130);
type = Stem;
},
{
horizontal = 1;
place = (260,128);
type = Stem;
},
{
horizontal = 1;
place = (507,129);
type = Stem;
},
{
horizontal = 1;
place = (516,144);
type = Stem;
}
);
layerId = "49A649E9-A574-4B20-B218-33A3EC71A7EA";
shapes = (
{
closed = 1;
nodes = (
(422,-24,o),
(473,-15,o),
(515,0,c),
(926,0,l),
(926,130,l),
(642,130,l),
(642,260,l),
(881,260,l),
(881,388,l),
(642,388,l),
(642,507,l),
(920,507,l),
(920,636,l),
(513,636,l),
(471,651,o),
(420,660,o),
(365,660,cs),
(163,660,o),
(40,537,o),
(40,317,cs),
(40,97,o),
(163,-24,o),
(367,-24,cs)
);
},
{
closed = 1;
nodes = (
(282,120,o),
(216,190,o),
(216,316,cs),
(216,442,o),
(282,516,o),
(371,516,cs),
(421,516,o),
(472,492,o),
(472,457,cs),
(472,195,ls),
(472,149,o),
(430,120,o),
(372,120,cs)
);
}
);
width = 966;
}
);
unicode = 338;
},
{
glyphname = P;
lastChange = "2023-05-04 08:30:25 +0000";
layers = (
{
anchors = (
{
name = bottom;
pos = (309,0);
},
{
name = top;
pos = (309,636);
}
);
background = {
shapes = (
{
closed = 1;
nodes = (
(50,0,l),
(220,0,l),
(220,188,l),
(246,173,o),
(281,163,o),
(329,163,cs),
(465,163,o),
(577,241,o),
(577,402,cs),
(577,555,o),
(474,640,o),
(309,640,cs),
(200,640,o),
(98,603,o),
(50,565,c)
);
},
{
closed = 1;
nodes = (
(220,490,l),
(242,502,o),
(269,508,o),
(299,508,cs),
(374,508,o),
(407,469,o),
(407,404,cs),
(407,334,o),
(369,300,o),
(315,300,cs),
(266,300,o),
(220,327,o),
(220,390,cs)
);
}
);
};
hints = (
{
place = (50,170);
type = Stem;
},
{
place = (407,170);
type = Stem;
},
{
horizontal = 1;
place = (163,137);
type = Stem;
},
{
horizontal = 1;
place = (508,132);
type = Stem;
},
{
horizontal = 1;
place = (0,21);
target = up;
type = BottomGhost;
}
);
layerId = "49A649E9-A574-4B20-B218-33A3EC71A7EA";
shapes = (
{
closed = 1;
nodes = (
(220,0,l),
(220,188,l),
(246,173,o),
(281,163,o),
(329,163,cs),
(465,163,o),
(577,241,o),
(577,402,cs),
(577,555,o),
(474,640,o),
(309,640,cs),
(200,640,o),
(98,603,o),
(50,565,c),
(50,0,l)
);
},
{
closed = 1;
nodes = (
(266,300,o),
(220,327,o),
(220,390,cs),
(220,490,l),
(242,502,o),
(269,508,o),
(299,508,cs),
(374,508,o),
(407,469,o),
(407,404,cs),
(407,334,o),
(369,300,o),
(315,300,cs)
);
}
);
width = 617;
}
);
unicode = 80;
},
{
glyphname = Thorn;
kernLeft = B_2nd;
lastChange = "2023-05-04 08:30:25 +0000";
layers = (
{
anchors = (
{
name = bottom;
pos = (309,0);
},
{
name = top;
pos = (309,636);
}
);
background = {
shapes = (
{
closed = 1;
nodes = (
(50,0,l),
(219,0,l),
(219,97,l),
(254,88,o),
(291,82,o),
(330,82,cs),
(474,82,o),
(577,165,o),
(577,318,cs),
(577,471,o),
(474,554,o),
(330,554,cs),
(291,554,o),
(254,548,o),
(219,539,c),
(219,636,l),
(50,636,l)
);
},
{
closed = 1;
nodes = (
(219,404,l),
(241,416,o),
(269,422,o),
(299,422,cs),
(374,422,o),
(407,384,o),
(407,319,cs),
(407,254,o),
(374,215,o),
(299,215,cs),
(269,215,o),
(241,221,o),
(219,233,c)
);
}
);
};
hints = (
{
place = (50,169);
type = Stem;
},
{
place = (407,170);
type = Stem;
},
{
horizontal = 1;
place = (82,133);
type = Stem;
},
{
horizontal = 1;
place = (422,132);
type = Stem;
},
{
horizontal = 1;
place = (636,-20);
target = down;
type = TopGhost;
},
{
horizontal = 1;
place = (0,21);
target = up;
type = BottomGhost;
}
);
layerId = "49A649E9-A574-4B20-B218-33A3EC71A7EA";
shapes = (
{
closed = 1;
nodes = (
(219,0,l),
(219,97,l),
(254,88,o),
(291,82,o),
(330,82,cs),
(474,82,o),
(577,165,o),
(577,318,cs),
(577,471,o),
(474,554,o),
(330,554,cs),
(291,554,o),
(254,548,o),
(219,539,c),
(219,636,l),
(50,636,l),
(50,0,l)
);
},
{
closed = 1;
nodes = (
(269,215,o),
(241,221,o),
(219,233,c),
(219,404,l),
(241,416,o),
(269,422,o),
(299,422,cs),
(374,422,o),
(407,384,o),
(407,319,cs),
(407,254,o),
(374,215,o),
(299,215,cs)
);
}
);
width = 617;
}
);
unicode = 222;
},
{
glyphname = Q;
lastChange = "2023-05-04 08:30:25 +0000";
layers = (
{
anchors = (
{
name = bottom;
pos = (385,0);
},
{
name = top;
pos = (385,636);
}
);
background = {
shapes = (
{
closed = 1;
nodes = (
(578,67,l),
(639,117,o),
(678,199,o),
(678,316,cs),
(678,517,o),
(563,640,o),
(363,640,cs),
(163,640,o),
(40,517,o),
(40,316,cs),
(40,104,o),
(177,-4,o),
(359,-4,cs),
(371,-4,o),
(381,-4,o),
(392,-3,c),
(645,-164,l),
(739,-10,l)
);
},
{
closed = 1;
nodes = (
(272,140,o),
(216,200,o),
(216,316,cs),
(216,432,o),
(272,496,o),
(363,496,cs),
(453,496,o),
(502,432,o),
(502,316,cs),
(502,200,o),
(453,140,o),
(363,140,cs)
);
}
);
};
hints = (
{
place = (40,176);
type = Stem;
},
{
place = (502,176);
type = Stem;
},
{
horizontal = 1;
place = (-4,144);
type = Stem;
},
{
horizontal = 1;
place = (496,144);
type = Stem;
}
);
layerId = "49A649E9-A574-4B20-B218-33A3EC71A7EA";
shapes = (
{
closed = 1;
nodes = (
(739,-10,l),
(578,67,l),
(639,117,o),
(678,199,o),
(678,316,cs),
(678,517,o),
(563,640,o),
(363,640,cs),
(163,640,o),
(40,517,o),
(40,316,cs),
(40,104,o),
(177,-4,o),
(359,-4,cs),
(371,-4,o),
(381,-4,o),
(392,-3,c),
(645,-164,l)
);
},
{
closed = 1;
nodes = (
(272,140,o),
(216,200,o),
(216,316,cs),
(216,432,o),
(272,496,o),
(363,496,cs),
(453,496,o),
(502,432,o),
(502,316,cs),
(502,200,o),
(453,140,o),
(363,140,cs)
);
}
);
width = 769;
}
);
unicode = 81;
},
{
glyphname = R;
kernLeft = "2nd";
kernRight = R1_1st;
lastChange = "2023-05-04 08:30:25 +0000";
layers = (
{
anchors = (
{
name = bottom;
pos = (313,0);
},
{
name = top;
pos = (313,636);
}
);
background = {
shapes = (
{
closed = 1;
nodes = (
(50,0,l),
(220,0,l),
(220,211,l),
(481,-49,l),
(596,75,l),
(431,208,l),
(520,241,o),
(577,313,o),
(577,418,cs),
(577,557,o),
(476,640,o),
(307,640,cs),
(202,640,o),
(98,608,o),
(50,576,c)
);
},
{
closed = 1;
nodes = (
(220,488,l),
(240,500,o),
(271,508,o),
(303,508,cs),
(373,508,o),
(407,469,o),
(407,411,cs),
(407,353,o),
(373,312,o),
(315,312,cs),
(262,312,o),
(220,347,o),
(220,410,cs)
);
}
);
};
hints = (
{
place = (50,170);
type = Stem;
},
{
place = (407,170);
type = Stem;
},
{
horizontal = 1;
place = (508,132);
type = Stem;
},
{
horizontal = 1;
place = (0,21);
target = up;
type = BottomGhost;
}
);
layerId = "49A649E9-A574-4B20-B218-33A3EC71A7EA";
shapes = (
{
closed = 1;
nodes = (
(596,75,l),
(431,208,l),
(520,241,o),
(577,313,o),
(577,418,cs),
(577,557,o),
(476,640,o),
(307,640,cs),
(202,640,o),
(98,608,o),
(50,576,c),
(50,0,l),
(220,0,l),
(220,211,l),
(481,-49,l)
);
},
{
closed = 1;
nodes = (
(262,312,o),
(220,347,o),
(220,410,cs),
(220,488,l),
(240,500,o),
(271,508,o),
(303,508,cs),
(373,508,o),
(407,469,o),
(407,411,cs),
(407,353,o),
(373,312,o),
(315,312,cs)
);
}
);
width = 626;
}
);
unicode = 82;
},
{
glyphname = Racute;
kernLeft = R;
kernRight = R11;
lastChange = "2023-05-04 08:12:54 +0000";
layers = (
{
background = {
shapes = (
{
closed = 1;
nodes = (
(369,787,l),
(298,910,l),
(58,760,l),
(118,660,l)
);
},
{
closed = 1;
nodes = (
(50,0,l),
(220,0,l),
(220,211,l),
(481,-49,l),
(596,75,l),
(431,208,l),
(520,241,o),
(577,313,o),
(577,418,cs),
(577,557,o),
(476,640,o),
(307,640,cs),
(202,640,o),
(98,608,o),
(50,576,c)
);
},
{
closed = 1;
nodes = (
(220,488,l),
(240,500,o),
(271,508,o),
(303,508,cs),
(373,508,o),
(407,469,o),
(407,411,cs),
(407,353,o),
(373,312,o),
(315,312,cs),
(262,312,o),
(220,347,o),
(220,410,cs)
);
}
);
};
hints = (
{
place = (50,170);
type = Stem;
},
{
place = (407,170);
type = Stem;
},
{
horizontal = 1;
place = (508,132);
type = Stem;
},
{
horizontal = 1;
place = (0,21);
target = up;
type = BottomGhost;
}
);
layerId = "49A649E9-A574-4B20-B218-33A3EC71A7EA";
shapes = (
{
ref = R;
},
{
pos = (142,140);
ref = acutecomb;
}
);
width = 626;
}
);
unicode = 340;
},
{
glyphname = Rcaron;
kernLeft = R;
kernRight = R1;
lastChange = "2023-05-04 08:28:11 +0000";
layers = (
{
background = {
shapes = (
{
closed = 1;
nodes = (
(183,936,l),
(87,839,l),
(248,713,l),
(378,713,l),
(539,839,l),
(444,935,l),
(314,818,l)
);
},
{
closed = 1;
nodes = (
(50,0,l),
(220,0,l),
(220,211,l),
(481,-49,l),
(596,75,l),
(431,208,l),
(520,241,o),
(577,313,o),
(577,418,cs),
(577,557,o),
(476,640,o),
(307,640,cs),
(202,640,o),
(98,608,o),
(50,576,c)
);
},
{
closed = 1;
nodes = (
(220,488,l),
(240,500,o),
(271,508,o),
(303,508,cs),
(373,508,o),
(407,469,o),
(407,411,cs),
(407,353,o),
(373,312,o),
(315,312,cs),
(262,312,o),
(220,347,o),
(220,410,cs)
);
}
);
};
hints = (
{
place = (50,170);
type = Stem;
},
{
place = (407,170);
type = Stem;
},
{
horizontal = 1;
place = (508,132);
type = Stem;
},
{
horizontal = 1;
place = (640,73);
type = Stem;
},
{
horizontal = 1;
place = (312,196);
type = Stem;
},
{
horizontal = 1;
place = (0,21);
target = up;
type = BottomGhost;
}
);
layerId = "49A649E9-A574-4B20-B218-33A3EC71A7EA";
shapes = (
{
ref = R;
},
{
pos = (77,112);
ref = caroncomb;
}
);
width = 626;
}
);
unicode = 344;
},
{
glyphname = Rcommaaccent;
kernLeft = R;
kernRight = R11;
lastChange = "2023-05-04 08:25:40 +0000";
layers = (
{
background = {
shapes = (
{
closed = 1;
nodes = (
(50,0,l),
(220,0,l),
(220,211,l),
(481,-49,l),
(596,75,l),
(431,208,l),
(520,241,o),
(577,313,o),
(577,418,cs),
(577,557,o),
(476,640,o),
(307,640,cs),
(202,640,o),
(98,608,o),
(50,576,c)
);
},
{
closed = 1;
nodes = (
(220,488,l),
(240,500,o),
(271,508,o),
(303,508,cs),
(373,508,o),
(407,469,o),
(407,411,cs),
(407,353,o),
(373,312,o),
(315,312,cs),
(262,312,o),
(220,347,o),
(220,410,cs)
);
},
{
closed = 1;
nodes = (
(296,-330,l),
(378,-282,o),
(412,-218,o),
(412,-146,cs),
(412,-83,o),
(386,-40,o),
(322,-40,cs),
(270,-40,o),
(235,-69,o),
(235,-123,cs),
(235,-166,o),
(256,-190,o),
(285,-201,c),
(273,-219,o),
(254,-235,o),
(232,-253,c),
(227,-258,l)
);
}
);
};
hints = (
{
place = (50,170);
type = Stem;
},
{
place = (235,177);
type = Stem;
},
{
place = (407,170);
type = Stem;
},
{
horizontal = 1;
place = (312,196);
type = Stem;
},
{
horizontal = 1;
place = (508,132);
type = Stem;
},
{
horizontal = 1;
place = (0,21);
target = up;
type = BottomGhost;
}
);
layerId = "49A649E9-A574-4B20-B218-33A3EC71A7EA";
shapes = (
{
ref = R;
},
{
pos = (190,0);
ref = commaaccentcomb;
}
);
width = 626;
}
);
unicode = 342;
},
{
glyphname = Rdotbelow;
kernLeft = "2nd";
kernRight = R1_1st;
lastChange = "2023-05-04 08:21:50 +0000";
layers = (
{
background = {
shapes = (
{
closed = 1;
nodes = (
(50,0,l),
(220,0,l),
(220,211,l),
(481,-49,l),
(596,75,l),
(431,208,l),
(520,241,o),
(577,313,o),
(577,418,cs),
(577,557,o),
(476,640,o),
(307,640,cs),
(202,640,o),
(98,608,o),
(50,576,c)
);
},
{
closed = 1;
nodes = (
(220,488,l),
(240,500,o),
(271,508,o),
(303,508,cs),
(373,508,o),
(407,469,o),
(407,411,cs),
(407,353,o),
(373,312,o),
(315,312,cs),
(262,312,o),
(220,347,o),
(220,410,cs)
);
},
{
closed = 1;
nodes = (
(375,-237,o),
(412,-197,o),
(412,-148,cs),
(412,-99,o),
(375,-60,o),
(321,-60,cs),
(267,-60,o),
(230,-99,o),
(230,-148,cs),
(230,-197,o),
(267,-237,o),
(321,-237,cs)
);
}
);
};
hints = (
{
place = (50,170);
type = Stem;
},
{
place = (230,182);
type = Stem;
},
{
place = (407,170);
type = Stem;
},
{
horizontal = 1;
place = (-237,177);
type = Stem;
},
{
horizontal = 1;
place = (508,132);
type = Stem;
},
{
horizontal = 1;
place = (0,21);
target = up;
type = BottomGhost;
}
);
layerId = "49A649E9-A574-4B20-B218-33A3EC71A7EA";
shapes = (
{
ref = R;
},
{
pos = (204,0);
ref = dotbelowcomb;
}
);
width = 626;
}
);
unicode = 7770;
},
{
glyphname = Rdotbelowmacron;
kernLeft = "2nd";
kernRight = R1_1st;
lastChange = "2023-05-04 08:22:47 +0000";
layers = (
{
background = {
shapes = (
{
closed = 1;
nodes = (
(135,716,l),
(485,716,l),
(485,846,l),
(135,846,l)
);
},
{
closed = 1;
nodes = (
(50,0,l),
(220,0,l),
(220,211,l),
(481,-49,l),
(596,75,l),
(431,208,l),
(520,241,o),
(577,313,o),
(577,418,cs),
(577,557,o),
(476,640,o),
(307,640,cs),
(202,640,o),
(98,608,o),
(50,576,c)
);
},
{
closed = 1;
nodes = (
(220,488,l),
(240,500,o),
(271,508,o),
(303,508,cs),
(373,508,o),
(407,469,o),
(407,411,cs),
(407,353,o),
(373,312,o),
(315,312,cs),
(262,312,o),
(220,347,o),
(220,410,cs)
);
},
{
closed = 1;
nodes = (
(375,-237,o),
(412,-197,o),
(412,-148,cs),
(412,-99,o),
(375,-60,o),
(321,-60,cs),
(267,-60,o),
(230,-99,o),
(230,-148,cs),
(230,-197,o),
(267,-237,o),
(321,-237,cs)
);
}
);
};
hints = (
{
place = (50,170);
type = Stem;
},
{
place = (230,182);
type = Stem;
},
{
place = (407,170);
type = Stem;
},
{
horizontal = 1;
place = (-237,177);
type = Stem;
},
{
horizontal = 1;
place = (508,132);
type = Stem;
},
{
horizontal = 1;
place = (716,130);
type = Stem;
},
{
horizontal = 1;
place = (0,21);
target = up;
type = BottomGhost;
}
);
layerId = "49A649E9-A574-4B20-B218-33A3EC71A7EA";
shapes = (
{
ref = R;
},
{
pos = (204,0);
ref = dotbelowcomb;
},
{
pos = (118,20);
ref = macroncomb;
}
);
width = 626;
}
);
unicode = 7772;
},
{
glyphname = Rmacronbelow;
kernLeft = "2nd";
kernRight = R1;
lastChange = "2023-05-04 08:27:21 +0000";
layers = (
{
background = {
shapes = (
{
closed = 1;
nodes = (
(50,0,l),
(220,0,l),
(220,211,l),
(481,-49,l),
(596,75,l),
(431,208,l),
(520,241,o),
(577,313,o),
(577,418,cs),
(577,557,o),
(476,640,o),
(307,640,cs),
(202,640,o),
(98,608,o),
(50,576,c)
);
},
{
closed = 1;
nodes = (
(220,488,l),
(240,500,o),
(271,508,o),
(303,508,cs),
(373,508,o),
(407,469,o),
(407,411,cs),
(407,353,o),
(373,312,o),
(315,312,cs),
(262,312,o),
(220,347,o),
(220,410,cs)
);
},
{
closed = 1;
nodes = (
(130,-230,l),
(480,-230,l),
(480,-100,l),
(130,-100,l)
);
}
);
};
hints = (
{
place = (50,170);
type = Stem;
},
{
place = (407,170);
type = Stem;
},
{
horizontal = 1;
place = (-230,130);
type = Stem;
},
{
horizontal = 1;
place = (508,132);
type = Stem;
},
{
horizontal = 1;
place = (0,21);
target = up;
type = BottomGhost;
}
);
layerId = "49A649E9-A574-4B20-B218-33A3EC71A7EA";
shapes = (
{
ref = R;
},
{
pos = (98,0);
ref = macronbelowcomb;
}
);
width = 626;
}
);
unicode = 7774;
},
{
glyphname = S;
kernLeft = S_2nd;
kernRight = S1_1st;
lastChange = "2023-05-04 08:30:25 +0000";
layers = (
{
anchors = (
{
name = bottom;
pos = (294,0);
},
{
name = top;
pos = (294,636);
}
);
background = {
shapes = (
{
closed = 1;
nodes = (
(40,71,l),
(95,24,o),
(194,-9,o),
(296,-9,cs),
(460,-9,o),
(548,75,o),
(548,191,cs),
(548,278,o),
(498,327,o),
(364,376,cs),
(291,403,ls),
(247,419,o),
(230,435,o),
(230,455,cs),
(230,479,o),
(253,495,o),
(308,495,cs),
(367,495,o),
(445,476,o),
(488,452,c),
(539,569,l),
(490,611,o),
(411,640,o),
(305,640,cs),
(141,640,o),
(49,571,o),
(49,458,cs),
(49,361,o),
(118,311,o),
(222,273,cs),
(306,242,ls),
(348,226,o),
(367,212,o),
(367,186,cs),
(367,159,o),
(347,136,o),
(283,136,cs),
(216,136,o),
(136,162,o),
(95,194,c)
);
}
);
};
hints = (
{
place = (49,181);
type = Stem;
},
{
place = (367,181);
type = Stem;
},
{
horizontal = 1;
place = (-9,145);
type = Stem;
},
{
horizontal = 1;
place = (495,145);
type = Stem;
}
);
layerId = "49A649E9-A574-4B20-B218-33A3EC71A7EA";
shapes = (
{
closed = 1;
nodes = (
(460,-9,o),
(548,75,o),
(548,191,cs),
(548,278,o),
(498,327,o),
(364,376,cs),
(291,403,ls),
(247,419,o),
(230,435,o),
(230,455,cs),
(230,479,o),
(253,495,o),
(308,495,cs),
(367,495,o),
(445,476,o),
(488,452,c),
(539,569,l),
(490,611,o),
(411,640,o),
(305,640,cs),
(141,640,o),
(49,571,o),
(49,458,cs),
(49,361,o),
(118,311,o),
(222,273,cs),
(306,242,ls),
(348,226,o),
(367,212,o),
(367,186,cs),
(367,159,o),
(347,136,o),
(283,136,cs),
(216,136,o),
(136,162,o),
(95,194,c),
(40,71,l),
(95,24,o),
(194,-9,o),
(296,-9,cs)
);
}
);
width = 588;
}
);
unicode = 83;
},
{
glyphname = Sacute;
kernLeft = S2;
kernRight = S11;
lastChange = "2023-05-04 08:12:54 +0000";
layers = (
{
background = {
shapes = (
{
closed = 1;
nodes = (
(480,807,l),
(409,930,l),
(169,780,l),
(229,680,l)
);
},
{
closed = 1;
nodes = (
(40,71,l),
(95,24,o),
(194,-9,o),
(296,-9,cs),
(460,-9,o),
(548,75,o),
(548,191,cs),
(548,278,o),
(498,327,o),
(364,376,cs),
(291,403,ls),
(247,419,o),
(230,435,o),
(230,455,cs),
(230,479,o),
(253,495,o),
(308,495,cs),
(367,495,o),
(445,476,o),
(488,452,c),
(539,569,l),
(490,611,o),
(411,640,o),
(305,640,cs),
(141,640,o),
(49,571,o),
(49,458,cs),
(49,361,o),
(118,311,o),
(222,273,cs),
(306,242,ls),
(348,226,o),
(367,212,o),
(367,186,cs),
(367,159,o),
(347,136,o),
(283,136,cs),
(216,136,o),
(136,162,o),
(95,194,c)
);
}
);
};
hints = (
{
place = (49,181);
type = Stem;
},
{
place = (367,181);
type = Stem;
},
{
horizontal = 1;
place = (-9,145);
type = Stem;
},
{
horizontal = 1;
place = (495,145);
type = Stem;
}
);
layerId = "49A649E9-A574-4B20-B218-33A3EC71A7EA";
shapes = (
{
ref = S;
},
{
pos = (123,140);
ref = acutecomb;
}
);
width = 588;
}
);
unicode = 346;
},
{
glyphname = Scaron;
kernLeft = S;
kernRight = S1;
lastChange = "2023-05-04 08:28:11 +0000";
layers = (
{
background = {
shapes = (
{
closed = 1;
nodes = (
(165,904,l),
(69,807,l),
(230,681,l),
(360,681,l),
(521,807,l),
(426,903,l),
(296,786,l)
);
},
{
closed = 1;
nodes = (
(40,71,l),
(95,24,o),
(194,-9,o),
(296,-9,cs),
(460,-9,o),
(548,75,o),
(548,191,cs),
(548,278,o),
(498,327,o),
(364,376,cs),
(291,403,ls),
(247,419,o),
(230,435,o),
(230,455,cs),
(230,479,o),
(253,495,o),
(308,495,cs),
(367,495,o),
(445,476,o),
(488,452,c),
(539,569,l),
(490,611,o),
(411,640,o),
(305,640,cs),
(141,640,o),
(49,571,o),
(49,458,cs),
(49,361,o),
(118,311,o),
(222,273,cs),
(306,242,ls),
(348,226,o),
(367,212,o),
(367,186,cs),
(367,159,o),
(347,136,o),
(283,136,cs),
(216,136,o),
(136,162,o),
(95,194,c)
);
}
);
};
hints = (
{
place = (49,181);
type = Stem;
},
{
place = (367,181);
type = Stem;
},
{
horizontal = 1;
place = (-9,145);
type = Stem;
},
{
horizontal = 1;
place = (495,145);
type = Stem;
},
{
horizontal = 1;
place = (640,41);
type = Stem;
}
);
layerId = "49A649E9-A574-4B20-B218-33A3EC71A7EA";
shapes = (
{
ref = S;
},
{
pos = (58,112);
ref = caroncomb;
}
);
width = 588;
}
);
unicode = 352;
},
{
glyphname = Scedilla;
kernLeft = S;
kernRight = S1;
lastChange = "2023-05-04 08:30:54 +0000";
layers = (
{
background = {
shapes = (
{
closed = 1;
nodes = (
(40,71,l),
(87,30,o),
(167,1,o),
(254,-7,c),
(261,-19,o),
(265,-35,o),
(265,-49,cs),
(265,-80,o),
(246,-103,o),
(210,-103,cs),
(200,-103,o),
(187,-101,o),
(175,-96,c),
(152,-182,l),
(180,-199,o),
(211,-205,o),
(242,-205,cs),
(340,-205,o),
(395,-145,o),
(395,-69,cs),
(395,-44,o),
(389,-21,o),
(378,-1,c),
(489,23,o),
(548,96,o),
(548,191,cs),
(548,278,o),
(498,327,o),
(364,376,cs),
(291,403,ls),
(247,419,o),
(230,435,o),
(230,455,cs),
(230,479,o),
(253,495,o),
(308,495,cs),
(367,495,o),
(445,476,o),
(488,452,c),
(539,569,l),
(490,611,o),
(411,640,o),
(305,640,cs),
(141,640,o),
(49,571,o),
(49,458,cs),
(49,361,o),
(118,311,o),
(222,273,cs),
(306,242,ls),
(348,226,o),
(367,212,o),
(367,186,cs),
(367,159,o),
(347,136,o),
(283,136,cs),
(216,136,o),
(136,162,o),
(95,194,c)
);
}
);
};
hints = (
{
place = (49,181);
type = Stem;
},
{
place = (265,130);
type = Stem;
},
{
place = (367,181);
type = Stem;
},
{
horizontal = 1;
place = (-205,102);
type = Stem;
},
{
horizontal = 1;
place = (495,145);
type = Stem;
}
);
layerId = "49A649E9-A574-4B20-B218-33A3EC71A7EA";
shapes = (
{
ref = S;
},
{
pos = (132,0);
ref = cedillacomb;
}
);
width = 588;
}
);
unicode = 350;
},
{
glyphname = Scircumflex;
kernLeft = S2;
kernRight = S11;
lastChange = "2023-05-04 08:47:02 +0000";
layers = (
{
background = {
shapes = (
{
closed = 1;
nodes = (
(184,683,l),
(315,801,l),
(445,684,l),
(540,780,l),
(379,906,l),
(249,906,l),
(88,780,l)
);
},
{
closed = 1;
nodes = (
(40,71,l),
(95,24,o),
(194,-9,o),
(296,-9,cs),
(460,-9,o),
(548,75,o),
(548,191,cs),
(548,278,o),
(498,327,o),
(364,376,cs),
(291,403,ls),
(247,419,o),
(230,435,o),
(230,455,cs),
(230,479,o),
(253,495,o),
(308,495,cs),
(367,495,o),
(445,476,o),
(488,452,c),
(539,569,l),
(490,611,o),
(411,640,o),
(305,640,cs),
(141,640,o),
(49,571,o),
(49,458,cs),
(49,361,o),
(118,311,o),
(222,273,cs),
(306,242,ls),
(348,226,o),
(367,212,o),
(367,186,cs),
(367,159,o),
(347,136,o),
(283,136,cs),
(216,136,o),
(136,162,o),
(95,194,c)
);
}
);
};
hints = (
{
place = (49,181);
type = Stem;
},
{
place = (367,181);
type = Stem;
},
{
horizontal = 1;
place = (-9,145);
type = Stem;
},
{
horizontal = 1;
place = (495,145);
type = Stem;
},
{
horizontal = 1;
place = (906,-20);
target = down;
type = TopGhost;
}
);
layerId = "49A649E9-A574-4B20-B218-33A3EC71A7EA";
shapes = (
{
ref = S;
},
{
pos = (48,35);
ref = circumflexcomb;
}
);
width = 588;
}
);
unicode = 348;
},
{
glyphname = Scommaaccent;
kernLeft = S2;
kernRight = S1;
lastChange = "2023-05-04 08:25:40 +0000";
layers = (
{
background = {
shapes = (
{
closed = 1;
nodes = (
(40,71,l),
(95,24,o),
(194,-9,o),
(296,-9,cs),
(460,-9,o),
(548,75,o),
(548,191,cs),
(548,278,o),
(498,327,o),
(364,376,cs),
(291,403,ls),
(247,419,o),
(230,435,o),
(230,455,cs),
(230,479,o),
(253,495,o),
(308,495,cs),
(367,495,o),
(445,476,o),
(488,452,c),
(539,569,l),
(490,611,o),
(411,640,o),
(305,640,cs),
(141,640,o),
(49,571,o),
(49,458,cs),
(49,361,o),
(118,311,o),
(222,273,cs),
(306,242,ls),
(348,226,o),
(367,212,o),
(367,186,cs),
(367,159,o),
(347,136,o),
(283,136,cs),
(216,136,o),
(136,162,o),
(95,194,c)
);
},
{
closed = 1;
nodes = (
(270,-338,l),
(352,-290,o),
(386,-226,o),
(386,-154,cs),
(386,-91,o),
(360,-48,o),
(296,-48,cs),
(244,-48,o),
(209,-77,o),
(209,-131,cs),
(209,-174,o),
(230,-198,o),
(259,-209,c),
(247,-227,o),
(228,-243,o),
(206,-261,c),
(201,-266,l)
);
}
);
};
hints = (
{
place = (49,181);
type = Stem;
},
{
place = (209,177);
type = Stem;
},
{
place = (367,181);
type = Stem;
},
{
horizontal = 1;
place = (-48,39);
type = Stem;
},
{
horizontal = 1;
place = (495,145);
type = Stem;
},
{
horizontal = 1;
place = (-9,145);
type = Stem;
}
);
layerId = "49A649E9-A574-4B20-B218-33A3EC71A7EA";
shapes = (
{
ref = S;
},
{
pos = (171,0);
ref = commaaccentcomb;
}
);
width = 588;
}
);
unicode = 536;
},
{
glyphname = Sdotaccent;
kernLeft = S_2nd;
kernRight = S1_1st;
lastChange = "2023-05-04 08:22:25 +0000";
layers = (
{
background = {
shapes = (
{
closed = 1;
nodes = (
(350,696,o),
(387,736,o),
(387,785,cs),
(387,834,o),
(350,873,o),
(296,873,cs),
(242,873,o),
(205,834,o),
(205,785,cs),
(205,736,o),
(242,696,o),
(296,696,cs)
);
},
{
closed = 1;
nodes = (
(40,71,l),
(95,24,o),
(194,-9,o),
(296,-9,cs),
(460,-9,o),
(548,75,o),
(548,191,cs),
(548,278,o),
(498,327,o),
(364,376,cs),
(291,403,ls),
(247,419,o),
(230,435,o),
(230,455,cs),
(230,479,o),
(253,495,o),
(308,495,cs),
(367,495,o),
(445,476,o),
(488,452,c),
(539,569,l),
(490,611,o),
(411,640,o),
(305,640,cs),
(141,640,o),
(49,571,o),
(49,458,cs),
(49,361,o),
(118,311,o),
(222,273,cs),
(306,242,ls),
(348,226,o),
(367,212,o),
(367,186,cs),
(367,159,o),
(347,136,o),
(283,136,cs),
(216,136,o),
(136,162,o),
(95,194,c)
);
}
);
};
hints = (
{
place = (49,181);
type = Stem;
},
{
place = (205,182);
type = Stem;
},
{
place = (367,181);
type = Stem;
},
{
horizontal = 1;
place = (-9,145);
type = Stem;
},
{
horizontal = 1;
place = (495,145);
type = Stem;
},
{
horizontal = 1;
place = (696,177);
type = Stem;
}
);
layerId = "49A649E9-A574-4B20-B218-33A3EC71A7EA";
shapes = (
{
ref = S;
},
{
pos = (184,20);
ref = dotaccentcomb;
}
);
width = 588;
}
);
unicode = 7776;
},
{
glyphname = Sdotbelow;
kernLeft = S_2nd;
kernRight = S1_1st;
lastChange = "2023-05-04 08:21:50 +0000";
layers = (
{
background = {
shapes = (
{
closed = 1;
nodes = (
(40,71,l),
(95,24,o),
(194,-9,o),
(296,-9,cs),
(460,-9,o),
(548,75,o),
(548,191,cs),
(548,278,o),
(498,327,o),
(364,376,cs),
(291,403,ls),
(247,419,o),
(230,435,o),
(230,455,cs),
(230,479,o),
(253,495,o),
(308,495,cs),
(367,495,o),
(445,476,o),
(488,452,c),
(539,569,l),
(490,611,o),
(411,640,o),
(305,640,cs),
(141,640,o),
(49,571,o),
(49,458,cs),
(49,361,o),
(118,311,o),
(222,273,cs),
(306,242,ls),
(348,226,o),
(367,212,o),
(367,186,cs),
(367,159,o),
(347,136,o),
(283,136,cs),
(216,136,o),
(136,162,o),
(95,194,c)
);
},
{
closed = 1;
nodes = (
(345,-237,o),
(382,-197,o),
(382,-148,cs),
(382,-99,o),
(345,-60,o),
(291,-60,cs),
(237,-60,o),
(200,-99,o),
(200,-148,cs),
(200,-197,o),
(237,-237,o),
(291,-237,cs)
);
}
);
};
hints = (
{
place = (49,181);
type = Stem;
},
{
place = (200,182);
type = Stem;
},
{
place = (367,181);
type = Stem;
},
{
horizontal = 1;
place = (-237,177);
type = Stem;
},
{
horizontal = 1;
place = (-9,145);
type = Stem;
},
{
horizontal = 1;
place = (495,145);
type = Stem;
}
);
layerId = "49A649E9-A574-4B20-B218-33A3EC71A7EA";
shapes = (
{
ref = S;
},
{
pos = (185,0);
ref = dotbelowcomb;
}
);
width = 588;
}
);
unicode = 7778;
},
{
glyphname = Germandbls;
lastChange = "2023-05-04 08:30:25 +0000";
layers = (
{
anchors = (
{
name = bottom;
pos = (312,0);
},
{
name = top;
pos = (312,636);
}
);
background = {
shapes = (
{
closed = 1;
nodes = (
(50,0,l),
(210,0,l),
(210,415,ls),
(210,496,o),
(246,531,o),
(308,531,cs),
(370,531,o),
(400,497,o),
(408,465,c),
(352,434,ls),
(303,407,o),
(278,368,o),
(278,320,cs),
(278,258,o),
(321,221,o),
(374,186,cs),
(386,178,ls),
(403,167,o),
(426,152,o),
(426,131,cs),
(426,113,o),
(412,102,o),
(376,102,cs),
(346,102,o),
(322,110,o),
(302,124,c),
(263,17,l),
(293,-4,o),
(354,-21,o),
(410,-21,cs),
(500,-21,o),
(594,22,o),
(594,125,cs),
(594,188,o),
(558,229,o),
(496,273,cs),
(468,293,ls),
(457,301,o),
(445,310,o),
(445,324,cs),
(445,338,o),
(457,347,o),
(473,355,cs),
(569,404,l),
(571,417,o),
(572,430,o),
(572,442,cs),
(572,563,o),
(478,663,o),
(304,663,cs),
(154,663,o),
(50,588,o),
(50,430,cs)
);
}
);
};
hints = (
{
place = (50,160);
type = Stem;
},
{
place = (278,167);
type = Stem;
},
{
place = (426,168);
type = Stem;
},
{
horizontal = 1;
place = (-21,123);
type = Stem;
},
{
horizontal = 1;
place = (531,132);
type = Stem;
},
{
horizontal = 1;
place = (0,21);
target = up;
type = BottomGhost;
}
);
layerId = "49A649E9-A574-4B20-B218-33A3EC71A7EA";
shapes = (
{
closed = 1;
nodes = (
(500,-21,o),
(594,22,o),
(594,125,cs),
(594,188,o),
(558,229,o),
(496,273,cs),
(468,293,ls),
(457,301,o),
(445,310,o),
(445,324,cs),
(445,338,o),
(457,347,o),
(473,355,cs),
(569,404,l),
(571,417,o),
(572,430,o),
(572,442,cs),
(572,563,o),
(478,663,o),
(304,663,cs),
(154,663,o),
(50,588,o),
(50,430,cs),
(50,0,l),
(210,0,l),
(210,415,ls),
(210,496,o),
(246,531,o),
(308,531,cs),
(370,531,o),
(400,497,o),
(408,465,c),
(352,434,ls),
(303,407,o),
(278,368,o),
(278,320,cs),
(278,258,o),
(321,221,o),
(374,186,cs),
(386,178,ls),
(403,167,o),
(426,152,o),
(426,131,cs),
(426,113,o),
(412,102,o),
(376,102,cs),
(346,102,o),
(322,110,o),
(302,124,c),
(263,17,l),
(293,-4,o),
(354,-21,o),
(410,-21,cs)
);
}
);
width = 624;
}
);
unicode = 7838;
},
{
glyphname = T;
kernLeft = T;
kernRight = T1;
lastChange = "2023-05-04 08:30:25 +0000";
layers = (
{
anchors = (
{
name = bottom;
pos = (280,0);
},
{
name = center;
pos = (280,318);
},
{
name = top;
pos = (280,636);
}
);
background = {
shapes = (
{
closed = 1;
nodes = (
(195,0,l),
(365,0,l),
(365,503,l),
(530,503,l),
(530,636,l),
(30,636,l),
(30,503,l),
(195,503,l)
);
}
);
};
hints = (
{
place = (195,170);
type = Stem;
},
{
horizontal = 1;
place = (503,133);
type = Stem;
},
{
horizontal = 1;
place = (0,21);
target = up;
type = BottomGhost;
}
);
layerId = "49A649E9-A574-4B20-B218-33A3EC71A7EA";
shapes = (
{
closed = 1;
nodes = (
(365,0,l),
(365,503,l),
(530,503,l),
(530,636,l),
(30,636,l),
(30,503,l),
(195,503,l),
(195,0,l)
);
}
);
width = 560;
}
);
unicode = 84;
},
{
glyphname = Tbar;
lastChange = "2023-05-04 08:30:25 +0000";
layers = (
{
background = {
shapes = (
{
closed = 1;
nodes = (
(195,0,l),
(365,0,l),
(365,217,l),
(473,217,l),
(473,343,l),
(365,343,l),
(365,503,l),
(530,503,l),
(530,636,l),
(30,636,l),
(30,503,l),
(195,503,l),
(195,343,l),
(88,343,l),
(88,217,l),
(195,217,l)
);
}
);
};
hints = (
{
place = (195,170);
type = Stem;
},
{
horizontal = 1;
place = (217,126);
type = Stem;
},
{
horizontal = 1;
place = (503,133);
type = Stem;
},
{
horizontal = 1;
place = (0,21);
target = up;
type = BottomGhost;
}
);
layerId = "49A649E9-A574-4B20-B218-33A3EC71A7EA";
shapes = (
{
closed = 1;
nodes = (
(365,0,l),
(365,217,l),
(473,217,l),
(473,343,l),
(365,343,l),
(365,503,l),
(530,503,l),
(530,636,l),
(30,636,l),
(30,503,l),
(195,503,l),
(195,343,l),
(88,343,l),
(88,217,l),
(195,217,l),
(195,0,l)
);
}
);
width = 560;
}
);
unicode = 358;
},
{
glyphname = Tcaron;
kernLeft = T;
kernRight = T1;
lastChange = "2023-05-04 08:28:11 +0000";
layers = (
{
background = {
shapes = (
{
closed = 1;
nodes = (
(140,916,l),
(44,819,l),
(205,693,l),
(335,693,l),
(496,819,l),
(401,915,l),
(271,798,l)
);
},
{
closed = 1;
nodes = (
(195,0,l),
(365,0,l),
(365,503,l),
(530,503,l),
(530,636,l),
(30,636,l),
(30,503,l),
(195,503,l)
);
}
);
};
hints = (
{
place = (195,170);
type = Stem;
},
{
horizontal = 1;
place = (503,133);
type = Stem;
},
{
horizontal = 1;
place = (636,57);
type = Stem;
},
{
horizontal = 1;
place = (0,21);
target = up;
type = BottomGhost;
}
);
layerId = "49A649E9-A574-4B20-B218-33A3EC71A7EA";
shapes = (
{
ref = T;
},
{
pos = (44,112);
ref = caroncomb;
}
);
width = 560;
}
);
unicode = 356;
},
{
glyphname = Tcedilla;
lastChange = "2023-05-04 08:30:54 +0000";
layers = (
{
background = {
shapes = (
{
closed = 1;
nodes = (
(30,503,l),
(195,503,l),
(195,0,l),
(238,0,l),
(248,-13,o),
(254,-32,o),
(254,-49,cs),
(254,-80,o),
(234,-103,o),
(198,-103,cs),
(188,-103,o),
(176,-101,o),
(164,-96,c),
(151,-182,l),
(179,-199,o),
(210,-205,o),
(239,-205,cs),
(339,-205,o),
(384,-135,o),
(384,-62,cs),
(384,-33,o),
(377,-11,o),
(365,7,c),
(365,503,l),
(530,503,l),
(530,636,l),
(30,636,l)
);
}
);
};
hints = (
{
place = (195,170);
type = Stem;
},
{
place = (254,130);
type = Stem;
},
{
horizontal = 1;
place = (-205,102);
type = Stem;
},
{
horizontal = 1;
place = (503,133);
type = Stem;
},
{
horizontal = 1;
place = (0,21);
target = up;
type = BottomGhost;
}
);
layerId = "49A649E9-A574-4B20-B218-33A3EC71A7EA";
shapes = (
{
ref = T;
},
{
pos = (118,0);
ref = cedillacomb;
}
);
width = 560;
}
);
unicode = 354;
},
{
glyphname = Tcommaaccent;
lastChange = "2023-05-04 08:25:40 +0000";
layers = (
{
background = {
shapes = (
{
closed = 1;
nodes = (
(195,0,l),
(365,0,l),
(365,503,l),
(530,503,l),
(530,636,l),
(30,636,l),
(30,503,l),
(195,503,l)
);
},
{
closed = 1;
nodes = (
(251,-330,l),
(333,-282,o),
(367,-218,o),
(367,-146,cs),
(367,-83,o),
(341,-40,o),
(277,-40,cs),
(225,-40,o),
(190,-69,o),
(190,-123,cs),
(190,-166,o),
(211,-190,o),
(240,-201,c),
(228,-219,o),
(209,-235,o),
(187,-253,c),
(182,-258,l)
);
}
);
};
hints = (
{
place = (190,177);
type = Stem;
},
{
place = (195,170);
type = Stem;
},
{
horizontal = 1;
place = (-40,40);
type = Stem;
},
{
horizontal = 1;
place = (503,133);
type = Stem;
}
);
layerId = "49A649E9-A574-4B20-B218-33A3EC71A7EA";
shapes = (
{
ref = T;
},
{
pos = (157,0);
ref = commaaccentcomb;
}
);
width = 560;
}
);
unicode = 538;
},
{
glyphname = Tdotbelow;
kernLeft = uni1E6C_2nd;
kernRight = uni1E6C1_1st;
lastChange = "2023-05-04 08:21:50 +0000";
layers = (
{
background = {
shapes = (
{
closed = 1;
nodes = (
(195,0,l),
(365,0,l),
(365,503,l),
(530,503,l),
(530,636,l),
(30,636,l),
(30,503,l),
(195,503,l)
);
},
{
closed = 1;
nodes = (
(335,-237,o),
(372,-197,o),
(372,-148,cs),
(372,-99,o),
(335,-60,o),
(281,-60,cs),
(227,-60,o),
(190,-99,o),
(190,-148,cs),
(190,-197,o),
(227,-237,o),
(281,-237,cs)
);
}
);
};
hints = (
{
place = (190,182);
type = Stem;
},
{
place = (195,170);
type = Stem;
},
{
horizontal = 1;
place = (-237,177);
type = Stem;
},
{
horizontal = 1;
place = (503,133);
type = Stem;
},
{
horizontal = 1;
place = (0,21);
target = up;
type = BottomGhost;
}
);
layerId = "49A649E9-A574-4B20-B218-33A3EC71A7EA";
shapes = (
{
ref = T;
},
{
pos = (171,0);
ref = dotbelowcomb;
}
);
width = 560;
}
);
unicode = 7788;
},
{
glyphname = Tmacronbelow;
kernLeft = uni1E6C_2nd;
kernRight = uni1E6C1_1st;
lastChange = "2023-05-04 08:27:21 +0000";
layers = (
{
background = {
shapes = (
{
closed = 1;
nodes = (
(195,0,l),
(365,0,l),
(365,503,l),
(530,503,l),
(530,636,l),
(30,636,l),
(30,503,l),
(195,503,l)
);
},
{
closed = 1;
nodes = (
(105,-210,l),
(455,-210,l),
(455,-80,l),
(105,-80,l)
);
}
);
};
hints = (
{
place = (195,170);
type = Stem;
},
{
horizontal = 1;
place = (-210,130);
type = Stem;
},
{
horizontal = 1;
place = (503,133);
type = Stem;
},
{
horizontal = 1;
place = (0,21);
target = up;
type = BottomGhost;
}
);
layerId = "49A649E9-A574-4B20-B218-33A3EC71A7EA";
shapes = (
{
ref = T;
},
{
pos = (65,0);
ref = macronbelowcomb;
}
);
width = 560;
}
);
unicode = 7790;
},
{
glyphname = U;
kernLeft = U_2nd;
kernRight = U1_1st;
lastChange = "2023-05-04 08:32:03 +0000";
layers = (
{
anchors = (
{
name = bottom;
pos = (315,0);
},
{
name = ogonek;
pos = (589,44);
},
{
name = top;
pos = (315,636);
},
{
name = topright;
pos = (610,636);
}
);
background = {
shapes = (
{
closed = 1;
nodes = (
(50,234,ls),
(50,79,o),
(137,-6,o),
(315,-6,cs),
(493,-6,o),
(580,79,o),
(580,234,cs),
(580,636,l),
(410,636,l),
(410,237,ls),
(410,169,o),
(379,135,o),
(317,135,cs),
(256,135,o),
(220,169,o),
(220,237,cs),
(220,636,l),
(50,636,l)
);
}
);
};
hints = (
{
place = (50,170);
type = Stem;
},
{
place = (410,170);
type = Stem;
},
{
horizontal = 1;
place = (-6,141);
type = Stem;
},
{
horizontal = 1;
place = (636,-20);
target = down;
type = TopGhost;
}
);
layerId = "49A649E9-A574-4B20-B218-33A3EC71A7EA";
shapes = (
{
closed = 1;
nodes = (
(493,-6,o),
(580,79,o),
(580,234,cs),
(580,636,l),
(410,636,l),
(410,237,ls),
(410,169,o),
(379,135,o),
(317,135,cs),
(256,135,o),
(220,169,o),
(220,237,cs),
(220,636,l),
(50,636,l),
(50,234,ls),
(50,79,o),
(137,-6,o),
(315,-6,cs)
);
}
);
width = 630;
}
);
unicode = 85;
},
{
glyphname = Uacute;
kernLeft = U_2nd;
kernRight = U1_1st;
lastChange = "2023-05-04 08:12:54 +0000";
layers = (
{
background = {
shapes = (
{
closed = 1;
nodes = (
(572,797,l),
(501,920,l),
(261,770,l),
(321,670,l)
);
},
{
closed = 1;
nodes = (
(50,234,ls),
(50,79,o),
(137,-6,o),
(315,-6,cs),
(493,-6,o),
(580,79,o),
(580,234,cs),
(580,636,l),
(410,636,l),
(410,237,ls),
(410,169,o),
(379,135,o),
(317,135,cs),
(256,135,o),
(220,169,o),
(220,237,cs),
(220,636,l),
(50,636,l)
);
}
);
};
hints = (
{
place = (50,170);
type = Stem;
},
{
place = (410,170);
type = Stem;
},
{
horizontal = 1;
place = (-6,141);
type = Stem;
},
{
horizontal = 1;
place = (636,-20);
target = down;
type = TopGhost;
}
);
layerId = "49A649E9-A574-4B20-B218-33A3EC71A7EA";
shapes = (
{
ref = U;
},
{
pos = (144,140);
ref = acutecomb;
}
);
width = 630;
}
);
unicode = 218;
},
{
glyphname = Ubreve;
kernLeft = U;
kernRight = U11;
lastChange = "2023-05-04 08:46:16 +0000";
layers = (
{
background = {
shapes = (
{
closed = 1;
nodes = (
(114,801,l),
(142,724,o),
(217,677,o),
(315,677,cs),
(413,677,o),
(488,724,o),
(516,801,c),
(421,858,l),
(404,818,o),
(362,797,o),
(315,797,cs),
(268,797,o),
(226,818,o),
(209,858,c)
);
},
{
closed = 1;
nodes = (
(50,234,ls),
(50,79,o),
(137,-6,o),
(315,-6,cs),
(493,-6,o),
(580,79,o),
(580,234,cs),
(580,636,l),
(410,636,l),
(410,237,ls),
(410,169,o),
(379,135,o),
(317,135,cs),
(256,135,o),
(220,169,o),
(220,237,cs),
(220,636,l),
(50,636,l)
);
}
);
};
hints = (
{
place = (50,170);
type = Stem;
},
{
place = (410,170);
type = Stem;
},
{
horizontal = 1;
place = (-6,141);
type = Stem;
},
{
horizontal = 1;
place = (677,120);
type = Stem;
},
{
horizontal = 1;
place = (636,-20);
target = down;
type = TopGhost;
}
);
layerId = "49A649E9-A574-4B20-B218-33A3EC71A7EA";
shapes = (
{
ref = U;
},
{
pos = (104,17);
ref = brevecomb;
}
);
width = 630;
}
);
unicode = 364;
},
{
glyphname = Ucircumflex;
kernLeft = U_2nd;
kernRight = U1_1st;
lastChange = "2023-05-04 08:47:02 +0000";
layers = (
{
background = {
shapes = (
{
closed = 1;
nodes = (
(187,668,l),
(318,786,l),
(448,669,l),
(543,765,l),
(382,891,l),
(252,891,l),
(91,765,l)
);
},
{
closed = 1;
nodes = (
(50,234,ls),
(50,79,o),
(137,-6,o),
(315,-6,cs),
(493,-6,o),
(580,79,o),
(580,234,cs),
(580,636,l),
(410,636,l),
(410,237,ls),
(410,169,o),
(379,135,o),
(317,135,cs),
(256,135,o),
(220,169,o),
(220,237,cs),
(220,636,l),
(50,636,l)
);
}
);
};
hints = (
{
place = (50,170);
type = Stem;
},
{
place = (410,170);
type = Stem;
},
{
horizontal = 1;
place = (-6,141);
type = Stem;
},
{
horizontal = 1;
place = (636,-20);
target = down;
type = TopGhost;
},
{
horizontal = 1;
place = (891,-20);
target = down;
type = TopGhost;
}
);
layerId = "49A649E9-A574-4B20-B218-33A3EC71A7EA";
shapes = (
{
ref = U;
},
{
pos = (69,35);
ref = circumflexcomb;
}
);
width = 630;
}
);
unicode = 219;
},
{
glyphname = Udieresis;
kernLeft = U_2nd;
kernRight = U1_1st;
lastChange = "2023-05-04 08:22:07 +0000";
layers = (
{
background = {
shapes = (
{
closed = 1;
nodes = (
(272,697,o),
(308,735,o),
(308,784,cs),
(308,833,o),
(272,871,o),
(218,871,cs),
(164,871,o),
(128,833,o),
(128,784,cs),
(128,735,o),
(164,697,o),
(218,697,cs)
);
},
{
closed = 1;
nodes = (
(493,697,o),
(529,735,o),
(529,784,cs),
(529,833,o),
(493,871,o),
(439,871,cs),
(385,871,o),
(349,833,o),
(349,784,cs),
(349,735,o),
(385,697,o),
(439,697,cs)
);
},
{
closed = 1;
nodes = (
(50,234,ls),
(50,79,o),
(137,-6,o),
(315,-6,cs),
(493,-6,o),
(580,79,o),
(580,234,cs),
(580,636,l),
(410,636,l),
(410,237,ls),
(410,169,o),
(379,135,o),
(317,135,cs),
(256,135,o),
(220,169,o),
(220,237,cs),
(220,636,l),
(50,636,l)
);
}
);
};
hints = (
{
place = (50,170);
type = Stem;
},
{
place = (128,180);
type = Stem;
},
{
place = (349,180);
type = Stem;
},
{
place = (410,170);
type = Stem;
},
{
horizontal = 1;
place = (-6,141);
type = Stem;
},
{
horizontal = 1;
place = (697,174);
type = Stem;
},
{
horizontal = 1;
place = (636,-20);
target = down;
type = TopGhost;
}
);
layerId = "49A649E9-A574-4B20-B218-33A3EC71A7EA";
shapes = (
{
ref = U;
},
{
pos = (94,140);
ref = dieresiscomb;
}
);
width = 630;
}
);
unicode = 220;
},
{
glyphname = Udotbelow;
kernLeft = uni1EE4_2nd;
kernRight = U1;
lastChange = "2023-05-04 08:21:50 +0000";
layers = (
{
background = {
shapes = (
{
closed = 1;
nodes = (
(50,234,ls),
(50,79,o),
(137,-6,o),
(315,-6,cs),
(493,-6,o),
(580,79,o),
(580,234,cs),
(580,636,l),
(410,636,l),
(410,237,ls),
(410,169,o),
(379,135,o),
(317,135,cs),
(256,135,o),
(220,169,o),
(220,237,cs),
(220,636,l),
(50,636,l)
);
},
{
closed = 1;
nodes = (
(368,-227,o),
(405,-188,o),
(405,-141,cs),
(405,-94,o),
(368,-55,o),
(316,-55,cs),
(264,-55,o),
(227,-94,o),
(227,-141,cs),
(227,-188,o),
(264,-227,o),
(316,-227,cs)
);
}
);
};
hints = (
{
place = (50,170);
type = Stem;
},
{
place = (227,178);
type = Stem;
},
{
place = (410,170);
type = Stem;
},
{
horizontal = 1;
place = (-227,172);
type = Stem;
},
{
horizontal = 1;
place = (-6,141);
type = Stem;
},
{
horizontal = 1;
place = (636,-20);
target = down;
type = TopGhost;
}
);
layerId = "49A649E9-A574-4B20-B218-33A3EC71A7EA";
shapes = (
{
ref = U;
},
{
pos = (206,0);
ref = dotbelowcomb;
}
);
width = 630;
}
);
unicode = 7908;
},
{
glyphname = Ugrave;
kernLeft = U_2nd;
kernRight = U1_1st;
lastChange = "2023-05-04 08:28:41 +0000";
layers = (
{
background = {
shapes = (
{
closed = 1;
nodes = (
(70,797,l),
(321,670,l),
(381,770,l),
(141,920,l)
);
},
{
closed = 1;
nodes = (
(50,234,ls),
(50,79,o),
(137,-6,o),
(315,-6,cs),
(493,-6,o),
(580,79,o),
(580,234,cs),
(580,636,l),
(410,636,l),
(410,237,ls),
(410,169,o),
(379,135,o),
(317,135,cs),
(256,135,o),
(220,169,o),
(220,237,cs),
(220,636,l),
(50,636,l)
);
}
);
};
hints = (
{
place = (50,170);
type = Stem;
},
{
place = (410,170);
type = Stem;
},
{
horizontal = 1;
place = (-6,141);
type = Stem;
},
{
horizontal = 1;
place = (636,-20);
target = down;
type = TopGhost;
}
);
layerId = "49A649E9-A574-4B20-B218-33A3EC71A7EA";
shapes = (
{
ref = U;
},
{
pos = (143,135);
ref = gravecomb;
}
);
width = 630;
}
);
unicode = 217;
},
{
glyphname = Uhookabove;
kernLeft = U_2nd;
kernRight = U1_1st;
lastChange = "2023-05-04 08:41:32 +0000";
layers = (
{
background = {
shapes = (
{
closed = 1;
nodes = (
(272,676,l),
(356,676,l),
(356,691,ls),
(356,704,o),
(365,715,o),
(383,729,cs),
(406,747,ls),
(432,767,o),
(455,789,o),
(455,822,cs),
(455,869,o),
(409,907,o),
(341,907,cs),
(293,907,o),
(253,888,o),
(230,868,c),
(260,806,l),
(280,820,o),
(301,828,o),
(324,828,cs),
(347,828,o),
(356,820,o),
(356,810,cs),
(356,802,o),
(351,795,o),
(338,785,cs),
(315,767,ls),
(283,742,o),
(272,724,o),
(272,694,cs)
);
},
{
closed = 1;
nodes = (
(50,234,ls),
(50,79,o),
(137,-6,o),
(315,-6,cs),
(493,-6,o),
(580,79,o),
(580,234,cs),
(580,636,l),
(410,636,l),
(410,237,ls),
(410,169,o),
(379,135,o),
(317,135,cs),
(256,135,o),
(220,169,o),
(220,237,cs),
(220,636,l),
(50,636,l)
);
}
);
};
hints = (
{
place = (50,170);
type = Stem;
},
{
place = (410,170);
type = Stem;
},
{
horizontal = 1;
place = (-6,141);
type = Stem;
},
{
horizontal = 1;
place = (676,231);
type = Stem;
},
{
horizontal = 1;
place = (828,79);
type = Stem;
},
{
horizontal = 1;
place = (636,-20);
target = down;
type = TopGhost;
}
);
layerId = "49A649E9-A574-4B20-B218-33A3EC71A7EA";
shapes = (
{
ref = U;
},
{
pos = (210,155);
ref = hookabovecomb;
}
);
width = 630;
}
);
unicode = 7910;
},
{
glyphname = Uhorn;
kernLeft = uni1EE4_2nd;
kernRight = uni1EE8_1st;
lastChange = "2023-05-04 08:31:52 +0000";
layers = (
{
anchors = (
{
name = bottom;
pos = (315,-6);
},
{
name = top;
pos = (304,636);
}
);
background = {
shapes = (
{
closed = 1;
nodes = (
(484,797,l),
(413,920,l),
(173,770,l),
(233,670,l)
);
},
{
closed = 1;
nodes = (
(50,234,ls),
(50,79,o),
(137,-6,o),
(315,-6,cs),
(493,-6,o),
(580,79,o),
(580,234,cs),
(580,410,l),
(728,438,o),
(797,551,o),
(797,690,c),
(646,706,l),
(643,645,o),
(632,563,o),
(580,526,c),
(580,636,l),
(410,636,l),
(410,237,ls),
(410,169,o),
(379,135,o),
(317,135,cs),
(256,135,o),
(220,169,o),
(220,237,cs),
(220,636,l),
(50,636,l)
);
}
);
};
hints = (
{
place = (50,170);
type = Stem;
},
{
place = (410,170);
type = Stem;
},
{
place = (646,151);
type = Stem;
},
{
horizontal = 1;
place = (-6,141);
type = Stem;
},
{
horizontal = 1;
place = (636,-20);
target = down;
type = TopGhost;
}
);
layerId = "49A649E9-A574-4B20-B218-33A3EC71A7EA";
shapes = (
{
closed = 1;
nodes = (
(493,-6,o),
(580,79,o),
(580,234,cs),
(580,410,l),
(728,438,o),
(797,551,o),
(797,690,c),
(646,706,l),
(643,645,o),
(632,563,o),
(580,526,c),
(580,636,l),
(410,636,l),
(410,237,ls),
(410,169,o),
(379,135,o),
(317,135,cs),
(256,135,o),
(220,169,o),
(220,237,cs),
(220,636,l),
(50,636,l),
(50,234,ls),
(50,79,o),
(137,-6,o),
(315,-6,cs)
);
}
);
width = 767;
}
);
unicode = 431;
},
{
glyphname = Uhornacute;
kernLeft = uni1EE4_2nd;
kernRight = uni1EE8_1st;
lastChange = "2023-05-04 08:31:48 +0000";
layers = (
{
background = {
shapes = (
{
closed = 1;
nodes = (
(484,797,l),
(413,920,l),
(173,770,l),
(233,670,l)
);
},
{
closed = 1;
nodes = (
(50,234,ls),
(50,79,o),
(137,-6,o),
(315,-6,cs),
(493,-6,o),
(580,79,o),
(580,234,cs),
(580,410,l),
(728,438,o),
(797,551,o),
(797,690,c),
(646,706,l),
(643,645,o),
(632,563,o),
(580,526,c),
(580,636,l),
(410,636,l),
(410,237,ls),
(410,169,o),
(379,135,o),
(317,135,cs),
(256,135,o),
(220,169,o),
(220,237,cs),
(220,636,l),
(50,636,l)
);
}
);
};
hints = (
{
place = (50,170);
type = Stem;
},
{
place = (410,170);
type = Stem;
},
{
place = (646,151);
type = Stem;
},
{
horizontal = 1;
place = (-6,141);
type = Stem;
},
{
horizontal = 1;
place = (636,-20);
target = down;
type = TopGhost;
}
);
layerId = "49A649E9-A574-4B20-B218-33A3EC71A7EA";
shapes = (
{
ref = Uhorn;
},
{
pos = (133,140);
ref = acutecomb;
}
);
width = 767;
}
);
unicode = 7912;
},
{
glyphname = Uhorndotbelow;
lastChange = "2023-05-04 08:31:52 +0000";
layers = (
{
background = {
shapes = (
{
closed = 1;
nodes = (
(50,234,ls),
(50,79,o),
(137,-6,o),
(315,-6,cs),
(493,-6,o),
(580,79,o),
(580,234,cs),
(580,410,l),
(728,438,o),
(797,551,o),
(797,690,c),
(646,706,l),
(643,645,o),
(632,563,o),
(580,526,c),
(580,636,l),
(410,636,l),
(410,237,ls),
(410,169,o),
(379,135,o),
(317,135,cs),
(256,135,o),
(220,169,o),
(220,237,cs),
(220,636,l),
(50,636,l)
);
},
{
closed = 1;
nodes = (
(375,-227,o),
(412,-188,o),
(412,-141,cs),
(412,-94,o),
(375,-55,o),
(323,-55,cs),
(271,-55,o),
(234,-94,o),
(234,-141,cs),
(234,-188,o),
(271,-227,o),
(323,-227,cs)
);
}
);
};
hints = (
{
place = (50,170);
type = Stem;
},
{
place = (234,178);
type = Stem;
},
{
place = (410,170);
type = Stem;
},
{
place = (646,151);
type = Stem;
},
{
horizontal = 1;
place = (-227,172);
type = Stem;
},
{
horizontal = 1;
place = (-6,141);
type = Stem;
},
{
horizontal = 1;
place = (636,-20);
target = down;
type = TopGhost;
}
);
layerId = "49A649E9-A574-4B20-B218-33A3EC71A7EA";
shapes = (
{
ref = Uhorn;
},
{
pos = (206,-6);
ref = dotbelowcomb;
}
);
width = 767;
}
);
unicode = 7920;
},
{
glyphname = Uhorngrave;
kernLeft = uni1EE4_2nd;
kernRight = uni1EE8_1st;
lastChange = "2023-05-04 08:31:48 +0000";
layers = (
{
background = {
shapes = (
{
closed = 1;
nodes = (
(74,797,l),
(325,670,l),
(385,770,l),
(145,920,l)
);
},
{
closed = 1;
nodes = (
(50,234,ls),
(50,79,o),
(137,-6,o),
(315,-6,cs),
(493,-6,o),
(580,79,o),
(580,234,cs),
(580,410,l),
(728,438,o),
(797,551,o),
(797,690,c),
(646,706,l),
(643,645,o),
(632,563,o),
(580,526,c),
(580,636,l),
(410,636,l),
(410,237,ls),
(410,169,o),
(379,135,o),
(317,135,cs),
(256,135,o),
(220,169,o),
(220,237,cs),
(220,636,l),
(50,636,l)
);
}
);
};
hints = (
{
place = (50,170);
type = Stem;
},
{
place = (410,170);
type = Stem;
},
{
place = (646,151);
type = Stem;
},
{
horizontal = 1;
place = (-6,141);
type = Stem;
},
{
horizontal = 1;
place = (636,-20);
target = down;
type = TopGhost;
}
);
layerId = "49A649E9-A574-4B20-B218-33A3EC71A7EA";
shapes = (
{
ref = Uhorn;
},
{
pos = (132,135);
ref = gravecomb;
}
);
width = 767;
}
);
unicode = 7914;
},
{
glyphname = Uhornhookabove;
kernLeft = uni1EE4_2nd;
kernRight = uni1EE8_1st;
lastChange = "2023-05-04 08:41:32 +0000";
layers = (
{
background = {
shapes = (
{
closed = 1;
nodes = (
(272,676,l),
(356,676,l),
(356,691,ls),
(356,704,o),
(365,715,o),
(383,729,cs),
(406,747,ls),
(432,767,o),
(455,789,o),
(455,822,cs),
(455,869,o),
(409,907,o),
(341,907,cs),
(293,907,o),
(253,888,o),
(230,868,c),
(260,806,l),
(280,820,o),
(301,828,o),
(324,828,cs),
(347,828,o),
(356,820,o),
(356,810,cs),
(356,802,o),
(351,795,o),
(338,785,cs),
(315,767,ls),
(283,742,o),
(272,724,o),
(272,694,cs)
);
},
{
closed = 1;
nodes = (
(50,234,ls),
(50,79,o),
(137,-6,o),
(315,-6,cs),
(493,-6,o),
(580,79,o),
(580,234,cs),
(580,410,l),
(728,438,o),
(797,551,o),
(797,690,c),
(646,706,l),
(643,645,o),
(632,563,o),
(580,526,c),
(580,636,l),
(410,636,l),
(410,237,ls),
(410,169,o),
(379,135,o),
(317,135,cs),
(256,135,o),
(220,169,o),
(220,237,cs),
(220,636,l),
(50,636,l)
);
}
);
};
hints = (
{
place = (50,170);
type = Stem;
},
{
place = (410,170);
type = Stem;
},
{
place = (646,151);
type = Stem;
},
{
horizontal = 1;
place = (-6,141);
type = Stem;
},
{
horizontal = 1;
place = (676,231);
type = Stem;
},
{
horizontal = 1;
place = (828,79);
type = Stem;
},
{
horizontal = 1;
place = (636,-20);
target = down;
type = TopGhost;
}
);
layerId = "49A649E9-A574-4B20-B218-33A3EC71A7EA";
shapes = (
{
ref = Uhorn;
},
{
pos = (199,155);
ref = hookabovecomb;
}
);
width = 767;
}
);
unicode = 7916;
},
{
glyphname = Uhorntilde;
kernLeft = uni1EE4_2nd;
kernRight = uni1EE8_1st;
lastChange = "2023-05-19 07:56:56 +0000";
layers = (
{
background = {
shapes = (
{
closed = 1;
nodes = (
(471,857,l),
(456,832,o),
(425,813,o),
(386,813,cs),
(362,813,o),
(333,820,o),
(309,826,cs),
(280,834,o),
(249,842,o),
(219,842,cs),
(147,842,o),
(95,796,o),
(77,737,c),
(160,681,l),
(175,706,o),
(206,725,o),
(246,725,cs),
(265,725,o),
(287,721,o),
(334,709,cs),
(355,703,o),
(383,696,o),
(411,696,cs),
(483,696,o),
(536,742,o),
(554,801,c)
);
},
{
closed = 1;
nodes = (
(50,234,ls),
(50,79,o),
(137,-6,o),
(315,-6,cs),
(493,-6,o),
(580,79,o),
(580,234,cs),
(580,410,l),
(728,438,o),
(797,551,o),
(797,690,c),
(646,706,l),
(643,645,o),
(632,563,o),
(580,526,c),
(580,636,l),
(410,636,l),
(410,237,ls),
(410,169,o),
(379,135,o),
(317,135,cs),
(256,135,o),
(220,169,o),
(220,237,cs),
(220,636,l),
(50,636,l)
);
}
);
};
hints = (
{
place = (50,170);
type = Stem;
},
{
place = (410,170);
type = Stem;
},
{
place = (646,151);
type = Stem;
},
{
horizontal = 1;
place = (-6,141);
type = Stem;
},
{
horizontal = 1;
place = (696,117);
type = Stem;
},
{
horizontal = 1;
place = (725,117);
type = Stem;
},
{
horizontal = 1;
place = (636,-20);
target = down;
type = TopGhost;
}
);
layerId = "49A649E9-A574-4B20-B218-33A3EC71A7EA";
shapes = (
{
ref = Uhorn;
},
{
pos = (45,124);
ref = tildecomb;
}
);
width = 767;
}
);
unicode = 7918;
},
{
glyphname = Uhungarumlaut;
kernLeft = U;
lastChange = "2023-05-04 08:30:16 +0000";
layers = (
{
background = {
shapes = (
{
closed = 1;
nodes = (
(98,751,l),
(187,679,l),
(374,871,l),
(250,968,l)
);
},
{
closed = 1;
nodes = (
(348,751,l),
(437,679,l),
(624,871,l),
(500,968,l)
);
},
{
closed = 1;
nodes = (
(50,234,ls),
(50,79,o),
(137,-6,o),
(315,-6,cs),
(493,-6,o),
(580,79,o),
(580,234,cs),
(580,636,l),
(410,636,l),
(410,237,ls),
(410,169,o),
(379,135,o),
(317,135,cs),
(256,135,o),
(220,169,o),
(220,237,cs),
(220,636,l),
(50,636,l)
);
}
);
};
hints = (
{
place = (50,170);
type = Stem;
},
{
place = (410,170);
type = Stem;
},
{
horizontal = 1;
place = (-6,141);
type = Stem;
},
{
horizontal = 1;
place = (636,-20);
target = down;
type = TopGhost;
}
);
layerId = "49A649E9-A574-4B20-B218-33A3EC71A7EA";
shapes = (
{
ref = U;
},
{
pos = (92,134);
ref = hungarumlautcomb;
}
);
width = 630;
}
);
unicode = 368;
},
{
glyphname = Umacron;
kernLeft = U;
kernRight = U11;
lastChange = "2023-05-04 08:22:47 +0000";
layers = (
{
background = {
shapes = (
{
closed = 1;
nodes = (
(140,682,l),
(490,682,l),
(490,822,l),
(140,822,l)
);
},
{
closed = 1;
nodes = (
(50,234,ls),
(50,79,o),
(137,-6,o),
(315,-6,cs),
(493,-6,o),
(580,79,o),
(580,234,cs),
(580,636,l),
(410,636,l),
(410,237,ls),
(410,169,o),
(379,135,o),
(317,135,cs),
(256,135,o),
(220,169,o),
(220,237,cs),
(220,636,l),
(50,636,l)
);
}
);
};
hints = (
{
place = (50,170);
type = Stem;
},
{
place = (410,170);
type = Stem;
},
{
horizontal = 1;
place = (-6,141);
type = Stem;
},
{
horizontal = 1;
place = (682,140);
type = Stem;
},
{
horizontal = 1;
place = (636,-20);
target = down;
type = TopGhost;
}
);
layerId = "49A649E9-A574-4B20-B218-33A3EC71A7EA";
shapes = (
{
ref = U;
},
{
pos = (120,20);
ref = macroncomb;
}
);
width = 630;
}
);
unicode = 362;
},
{
glyphname = Uogonek;
kernLeft = U;
lastChange = "2023-05-04 08:32:03 +0000";
layers = (
{
background = {
shapes = (
{
closed = 1;
nodes = (
(50,234,ls),
(50,43,o),
(171,-5,o),
(339,-5,c),
(337,-15,o),
(335,-27,o),
(335,-41,cs),
(335,-115,o),
(390,-175,o),
(488,-175,cs),
(519,-175,o),
(550,-169,o),
(578,-152,c),
(555,-66,l),
(543,-71,o),
(532,-73,o),
(521,-73,cs),
(486,-73,o),
(465,-50,o),
(465,-19,cs),
(465,0,o),
(472,21,o),
(484,33,c),
(548,72,o),
(580,141,o),
(580,234,cs),
(580,636,l),
(410,636,l),
(410,237,ls),
(410,169,o),
(379,135,o),
(317,135,cs),
(256,135,o),
(220,169,o),
(220,237,cs),
(220,636,l),
(50,636,l)
);
}
);
};
hints = (
{
place = (50,170);
type = Stem;
},
{
place = (335,130);
type = Stem;
},
{
place = (410,170);
type = Stem;
},
{
horizontal = 1;
place = (-175,102);
type = Stem;
},
{
horizontal = 1;
place = (-6,141);
type = Stem;
},
{
horizontal = 1;
place = (636,-20);
target = down;
type = TopGhost;
}
);
layerId = "49A649E9-A574-4B20-B218-33A3EC71A7EA";
shapes = (
{
ref = U;
},
{
pos = (314,30);
ref = ogonekcomb;
}
);
width = 630;
}
);
unicode = 370;
},
{
glyphname = Uring;
kernLeft = U;
kernRight = U1;
lastChange = "2023-05-05 07:38:52 +0000";
layers = (
{
background = {
shapes = (
{
closed = 1;
nodes = (
(399,694,o),
(450,743,o),
(450,805,cs),
(450,867,o),
(399,917,o),
(315,917,cs),
(232,917,o),
(181,867,o),
(181,805,cs),
(181,743,o),
(232,694,o),
(315,694,cs)
);
},
{
closed = 1;
nodes = (
(297,771,o),
(282,784,o),
(282,805,cs),
(282,826,o),
(297,839,o),
(315,839,cs),
(334,839,o),
(348,826,o),
(348,805,cs),
(348,784,o),
(334,771,o),
(315,771,cs)
);
},
{
closed = 1;
nodes = (
(50,234,ls),
(50,79,o),
(137,-6,o),
(315,-6,cs),
(493,-6,o),
(580,79,o),
(580,234,cs),
(580,636,l),
(410,636,l),
(410,237,ls),
(410,169,o),
(379,135,o),
(317,135,cs),
(256,135,o),
(220,169,o),
(220,237,cs),
(220,636,l),
(50,636,l)
);
}
);
};
hints = (
{
place = (50,170);
type = Stem;
},
{
place = (181,101);
type = Stem;
},
{
place = (348,102);
type = Stem;
},
{
place = (410,170);
type = Stem;
},
{
horizontal = 1;
place = (-6,141);
type = Stem;
},
{
horizontal = 1;
place = (694,77);
type = Stem;
},
{
horizontal = 1;
place = (839,78);
type = Stem;
},
{
horizontal = 1;
place = (636,-20);
target = down;
type = TopGhost;
}
);
layerId = "49A649E9-A574-4B20-B218-33A3EC71A7EA";
shapes = (
{
ref = U;
},
{
pos = (160,140);
ref = ringcomb;
}
);
width = 630;
}
);
unicode = 366;
},
{
glyphname = Utilde;
kernLeft = U;
kernRight = U11;
lastChange = "2023-05-19 07:56:56 +0000";
layers = (
{
background = {
shapes = (
{
closed = 1;
nodes = (
(479,859,l),
(464,834,o),
(433,815,o),
(394,815,cs),
(370,815,o),
(341,822,o),
(317,828,cs),
(288,836,o),
(257,844,o),
(227,844,cs),
(155,844,o),
(103,798,o),
(85,739,c),
(168,683,l),
(183,708,o),
(214,727,o),
(254,727,cs),
(278,727,o),
(306,720,o),
(343,710,cs),
(367,704,o),
(393,698,o),
(418,698,cs),
(490,698,o),
(543,744,o),
(561,803,c)
);
},
{
closed = 1;
nodes = (
(50,234,ls),
(50,79,o),
(137,-6,o),
(315,-6,cs),
(493,-6,o),
(580,79,o),
(580,234,cs),
(580,636,l),
(410,636,l),
(410,237,ls),
(410,169,o),
(379,135,o),
(317,135,cs),
(256,135,o),
(220,169,o),
(220,237,cs),
(220,636,l),
(50,636,l)
);
}
);
};
hints = (
{
place = (50,170);
type = Stem;
},
{
place = (410,170);
type = Stem;
},
{
horizontal = 1;
place = (-6,141);
type = Stem;
},
{
horizontal = 1;
place = (698,117);
type = Stem;
},
{
horizontal = 1;
place = (727,117);
type = Stem;
},
{
horizontal = 1;
place = (636,-20);
target = down;
type = TopGhost;
}
);
layerId = "49A649E9-A574-4B20-B218-33A3EC71A7EA";
shapes = (
{
ref = U;
},
{
pos = (56,124);
ref = tildecomb;
}
);
width = 630;
}
);
unicode = 360;
},
{
glyphname = V;
lastChange = "2023-05-04 08:30:25 +0000";
layers = (
{
anchors = (
{
name = bottom;
pos = (347,0);
},
{
name = top;
pos = (347,636);
}
);
background = {
shapes = (
{
closed = 1;
nodes = (
(250,0,l),
(458,0,l),
(659,636,l),
(474,636,l),
(352,182,l),
(218,636,l),
(35,636,l)
);
}
);
};
hints = (
{
horizontal = 1;
place = (0,21);
target = up;
type = BottomGhost;
},
{
horizontal = 1;
place = (636,-20);
target = down;
type = TopGhost;
}
);
layerId = "49A649E9-A574-4B20-B218-33A3EC71A7EA";
shapes = (
{
closed = 1;
nodes = (
(458,0,l),
(659,636,l),
(474,636,l),
(352,182,l),
(218,636,l),
(35,636,l),
(250,0,l)
);
}
);
width = 694;
}
);
unicode = 86;
},
{
glyphname = W;
kernLeft = W_2nd;
kernRight = W1_1st;
lastChange = "2023-05-04 08:32:18 +0000";
layers = (
{
anchors = (
{
name = bottom;
pos = (487,0);
},
{
name = top;
pos = (487,636);
}
);
background = {
shapes = (
{
closed = 1;
nodes = (
(180,0,l),
(385,0,l),
(486,355,l),
(488,377,l),
(491,355,l),
(589,0,l),
(794,0,l),
(944,636,l),
(759,636,l),
(684,221,l),
(682,200,l),
(678,200,l),
(674,221,l),
(559,626,l),
(419,626,l),
(303,221,l),
(301,200,l),
(295,200,l),
(293,221,l),
(215,636,l),
(30,636,l)
);
}
);
};
hints = (
{
horizontal = 1;
place = (0,21);
target = up;
type = BottomGhost;
},
{
horizontal = 1;
place = (636,-20);
target = down;
type = TopGhost;
}
);
layerId = "49A649E9-A574-4B20-B218-33A3EC71A7EA";
shapes = (
{
closed = 1;
nodes = (
(385,0,l),
(486,355,l),
(488,377,l),
(491,355,l),
(589,0,l),
(794,0,l),
(944,636,l),
(759,636,l),
(684,221,l),
(682,200,l),
(678,200,l),
(674,221,l),
(559,626,l),
(419,626,l),
(303,221,l),
(301,200,l),
(295,200,l),
(293,221,l),
(215,636,l),
(30,636,l),
(180,0,l)
);
}
);
width = 974;
}
);
unicode = 87;
},
{
glyphname = Wacute;
kernLeft = W_2nd;
kernRight = W1_1st;
lastChange = "2023-05-04 08:32:18 +0000";
layers = (
{
background = {
shapes = (
{
closed = 1;
nodes = (
(747,773,l),
(676,896,l),
(436,746,l),
(496,646,l)
);
},
{
closed = 1;
nodes = (
(180,0,l),
(385,0,l),
(486,355,l),
(488,377,l),
(491,355,l),
(589,0,l),
(794,0,l),
(944,636,l),
(759,636,l),
(684,221,l),
(682,200,l),
(678,200,l),
(674,221,l),
(559,626,l),
(419,626,l),
(303,221,l),
(301,200,l),
(295,200,l),
(293,221,l),
(215,636,l),
(30,636,l)
);
}
);
};
guides = (
{
pos = (0,1087);
}
);
hints = (
{
horizontal = 1;
place = (0,21);
target = up;
type = BottomGhost;
},
{
horizontal = 1;
place = (636,-20);
target = down;
type = TopGhost;
}
);
layerId = "49A649E9-A574-4B20-B218-33A3EC71A7EA";
shapes = (
{
ref = W;
},
{
pos = (316,140);
ref = acutecomb;
}
);
width = 974;
}
);
unicode = 7810;
},
{
glyphname = Wcircumflex;
lastChange = "2023-05-04 08:47:02 +0000";
layers = (
{
background = {
shapes = (
{
closed = 1;
nodes = (
(357,688,l),
(488,806,l),
(618,689,l),
(713,785,l),
(552,911,l),
(422,911,l),
(261,785,l)
);
},
{
closed = 1;
nodes = (
(180,0,l),
(385,0,l),
(486,355,l),
(488,377,l),
(491,355,l),
(589,0,l),
(794,0,l),
(944,636,l),
(759,636,l),
(684,221,l),
(682,200,l),
(678,200,l),
(674,221,l),
(559,626,l),
(419,626,l),
(303,221,l),
(301,200,l),
(295,200,l),
(293,221,l),
(215,636,l),
(30,636,l)
);
}
);
};
guides = (
{
pos = (0,1087);
}
);
hints = (
{
horizontal = 1;
place = (0,21);
target = up;
type = BottomGhost;
},
{
horizontal = 1;
place = (636,-20);
target = down;
type = TopGhost;
},
{
horizontal = 1;
place = (911,-20);
target = down;
type = TopGhost;
}
);
layerId = "49A649E9-A574-4B20-B218-33A3EC71A7EA";
shapes = (
{
ref = W;
},
{
pos = (241,35);
ref = circumflexcomb;
}
);
width = 974;
}
);
unicode = 372;
},
{
glyphname = Wdieresis;
kernLeft = W_2nd;
kernRight = W1_1st;
lastChange = "2023-05-04 08:32:18 +0000";
layers = (
{
background = {
shapes = (
{
closed = 1;
nodes = (
(445,656,o),
(481,694,o),
(481,743,cs),
(481,792,o),
(445,830,o),
(391,830,cs),
(337,830,o),
(301,792,o),
(301,743,cs),
(301,694,o),
(337,656,o),
(391,656,cs)
);
},
{
closed = 1;
nodes = (
(666,656,o),
(702,694,o),
(702,743,cs),
(702,792,o),
(666,830,o),
(612,830,cs),
(558,830,o),
(522,792,o),
(522,743,cs),
(522,694,o),
(558,656,o),
(612,656,cs)
);
},
{
closed = 1;
nodes = (
(180,0,l),
(385,0,l),
(486,355,l),
(488,377,l),
(491,355,l),
(589,0,l),
(794,0,l),
(944,636,l),
(759,636,l),
(684,221,l),
(682,200,l),
(678,200,l),
(674,221,l),
(559,626,l),
(419,626,l),
(303,221,l),
(301,200,l),
(295,200,l),
(293,221,l),
(215,636,l),
(30,636,l)
);
}
);
};
guides = (
{
pos = (0,1087);
}
);
hints = (
{
place = (301,180);
type = Stem;
},
{
place = (522,180);
type = Stem;
},
{
horizontal = 1;
place = (656,174);
type = Stem;
},
{
horizontal = 1;
place = (0,21);
target = up;
type = BottomGhost;
},
{
horizontal = 1;
place = (636,-20);
target = down;
type = TopGhost;
}
);
layerId = "49A649E9-A574-4B20-B218-33A3EC71A7EA";
shapes = (
{
ref = W;
},
{
pos = (266,140);
ref = dieresiscomb;
}
);
width = 974;
}
);
unicode = 7812;
},
{
glyphname = Wgrave;
kernLeft = W_2nd;
kernRight = W1_1st;
lastChange = "2023-05-04 08:32:18 +0000";
layers = (
{
background = {
shapes = (
{
closed = 1;
nodes = (
(254,773,l),
(505,646,l),
(565,746,l),
(325,896,l)
);
},
{
closed = 1;
nodes = (
(180,0,l),
(385,0,l),
(486,355,l),
(488,377,l),
(491,355,l),
(589,0,l),
(794,0,l),
(944,636,l),
(759,636,l),
(684,221,l),
(682,200,l),
(678,200,l),
(674,221,l),
(559,626,l),
(419,626,l),
(303,221,l),
(301,200,l),
(295,200,l),
(293,221,l),
(215,636,l),
(30,636,l)
);
}
);
};
guides = (
{
pos = (0,1087);
}
);
hints = (
{
horizontal = 1;
place = (0,21);
target = up;
type = BottomGhost;
},
{
horizontal = 1;
place = (636,-20);
target = down;
type = TopGhost;
}
);
layerId = "49A649E9-A574-4B20-B218-33A3EC71A7EA";
shapes = (
{
ref = W;
},
{
pos = (315,135);
ref = gravecomb;
}
);
width = 974;
}
);
unicode = 7808;
},
{
glyphname = X;
lastChange = "2023-05-04 08:30:25 +0000";
layers = (
{
anchors = (
{
name = bottom;
pos = (373,0);
},
{
name = top;
pos = (373,636);
}
);
background = {
shapes = (
{
closed = 1;
nodes = (
(30,0,l),
(239,0,l),
(372,193,l),
(502,0,l),
(716,0,l),
(485,317,l),
(708,636,l),
(508,636,l),
(378,441,l),
(245,636,l),
(39,636,l),
(267,314,l)
);
}
);
};
hints = (
{
horizontal = 1;
place = (0,21);
target = up;
type = BottomGhost;
},
{
horizontal = 1;
place = (636,-20);
target = down;
type = TopGhost;
}
);
layerId = "49A649E9-A574-4B20-B218-33A3EC71A7EA";
shapes = (
{
closed = 1;
nodes = (
(239,0,l),
(372,193,l),
(502,0,l),
(716,0,l),
(485,317,l),
(708,636,l),
(508,636,l),
(378,441,l),
(245,636,l),
(39,636,l),
(267,314,l),
(30,0,l)
);
}
);
width = 746;
}
);
unicode = 88;
},
{
glyphname = Y;
kernLeft = Y_2nd;
kernRight = Y1_1st;
lastChange = "2023-05-04 08:32:49 +0000";
layers = (
{
anchors = (
{
name = bottom;
pos = (374,0);
},
{
name = top;
pos = (361,636);
},
{
name = topleft;
pos = (20,636);
}
);
background = {
shapes = (
{
closed = 1;
nodes = (
(279,0,l),
(470,0,l),
(470,245,l),
(691,636,l),
(494,636,l),
(369,400,l),
(363,400,l),
(229,636,l),
(30,636,l),
(279,239,l)
);
}
);
};
hints = (
{
place = (279,191);
type = Stem;
},
{
horizontal = 1;
place = (636,-20);
target = down;
type = TopGhost;
},
{
horizontal = 1;
place = (0,21);
target = up;
type = BottomGhost;
}
);
layerId = "49A649E9-A574-4B20-B218-33A3EC71A7EA";
shapes = (
{
closed = 1;
nodes = (
(470,0,l),
(470,245,l),
(691,636,l),
(494,636,l),
(369,400,l),
(363,400,l),
(229,636,l),
(30,636,l),
(279,239,l),
(279,0,l)
);
}
);
width = 721;
}
);
unicode = 89;
},
{
glyphname = Yacute;
kernLeft = Y_2nd;
kernRight = Y1_1st;
lastChange = "2023-05-04 08:12:54 +0000";
layers = (
{
background = {
shapes = (
{
closed = 1;
nodes = (
(616,797,l),
(545,920,l),
(305,770,l),
(365,670,l)
);
},
{
closed = 1;
nodes = (
(279,0,l),
(470,0,l),
(470,245,l),
(691,636,l),
(494,636,l),
(369,400,l),
(363,400,l),
(229,636,l),
(30,636,l),
(279,239,l)
);
}
);
};
hints = (
{
place = (279,191);
type = Stem;
},
{
horizontal = 1;
place = (636,-20);
target = down;
type = TopGhost;
},
{
horizontal = 1;
place = (0,21);
target = up;
type = BottomGhost;
}
);
layerId = "49A649E9-A574-4B20-B218-33A3EC71A7EA";
shapes = (
{
ref = Y;
},
{
pos = (190,140);
ref = acutecomb;
}
);
width = 721;
}
);
unicode = 221;
},
